<svg xmlns="http://www.w3.org/2000/svg" viewBox="0 0 212 63"><defs><style>.cls-1{fill:#29abe2;}.cls-2{fill:#f0f;}</style></defs><g id="Capa_4" data-name="Capa 4"><rect class="cls-1" x="14" y="13.6" width="191" height="45.4" rx="14.79"/><path class="cls-2" d="M39.65,41.14a6.13,6.13,0,0,1-2.63.55,4.6,4.6,0,0,1-3.45-1.32,4.79,4.79,0,0,1-1.28-3.49,4.76,4.76,0,0,1,1.29-3.49A4.57,4.57,0,0,1,37,32.07a7.06,7.06,0,0,1,2.63.49l-.36,1.13A7,7,0,0,0,37,33.26a3.08,3.08,0,0,0-2.4,1,3.8,3.8,0,0,0-.88,2.65,3.74,3.74,0,0,0,.91,2.57,3,3,0,0,0,2.38,1,7,7,0,0,0,2.4-.45Z"/><path class="cls-2" d="M46.94,32.07a3.72,3.72,0,0,1,3,1.32,5.17,5.17,0,0,1,1.12,3.47,5.22,5.22,0,0,1-1.12,3.5,4.06,4.06,0,0,1-6,0,5.26,5.26,0,0,1-1.11-3.5,5.18,5.18,0,0,1,1.11-3.47A3.75,3.75,0,0,1,46.94,32.07Zm0,8.42a2.27,2.27,0,0,0,2-1.05,5,5,0,0,0,0-5.16,2.45,2.45,0,0,0-4,0,5.13,5.13,0,0,0,0,5.19A2.26,2.26,0,0,0,46.94,40.49Z"/><path class="cls-2" d="M61.29,41.45H59.92V35.58a3.09,3.09,0,0,0-.39-1.77,1.4,1.4,0,0,0-1.23-.55,4,4,0,0,0-2.7,1.56v6.63H54.23V32.29H55.6v1.35a4.3,4.3,0,0,1,3.12-1.57c1.71,0,2.57,1,2.57,3.11Z"/><path class="cls-2" d="M72.09,41.45H70.72V35.58a3.09,3.09,0,0,0-.39-1.77,1.4,1.4,0,0,0-1.23-.55,3.94,3.94,0,0,0-2.69,1.56v6.63H65V32.29h1.37v1.35a4.26,4.26,0,0,1,3.11-1.57c1.71,0,2.57,1,2.57,3.11Z"/><path class="cls-2" d="M83.17,36.91H76.88a3.71,3.71,0,0,0,.9,2.57,2.86,2.86,0,0,0,2.21,1A8,8,0,0,0,82.57,40l.24,1.1a6.77,6.77,0,0,1-2.83.55,4.35,4.35,0,0,1-3.29-1.31,4.94,4.94,0,0,1-1.25-3.54,5.1,5.1,0,0,1,1.12-3.47,3.64,3.64,0,0,1,2.9-1.3,3.37,3.37,0,0,1,2.64,1.21,4.65,4.65,0,0,1,1.07,3.2Zm-1.5-1.11A2.57,2.57,0,0,0,81,34a2,2,0,0,0-1.49-.73,2.36,2.36,0,0,0-1.76.7A2.75,2.75,0,0,0,77,35.8Z"/><path class="cls-2" d="M93.66,41.14a6.16,6.16,0,0,1-2.63.55,4.6,4.6,0,0,1-3.45-1.32,4.75,4.75,0,0,1-1.28-3.49,4.76,4.76,0,0,1,1.29-3.49A4.57,4.57,0,0,1,91,32.07a7.1,7.1,0,0,1,2.63.49l-.36,1.13A7,7,0,0,0,91,33.26a3.08,3.08,0,0,0-2.4,1,3.8,3.8,0,0,0-.88,2.65,3.74,3.74,0,0,0,.91,2.57,3,3,0,0,0,2.38,1A6.91,6.91,0,0,0,93.42,40Z"/><path class="cls-2" d="M104.59,41a6.53,6.53,0,0,1-2.72.63c-1.63,0-2.45-.86-2.45-2.59v-5.6H97.66V32.29h1.76v-2.5h1.33v2.5h3.12v1.19h-3.12v5.24a2,2,0,0,0,.37,1.29,1.21,1.21,0,0,0,1,.46,5.21,5.21,0,0,0,2.23-.5Z"/><path class="cls-2" d="M127.18,32.29l-1.32,9.16h-1l-2.15-5.19-2.17,5.19h-1l-1.29-9.16h1.36c.48,4.28.74,6.52.75,6.73L122,35h1.41L125,39l.74-6.71Z"/><path class="cls-2" d="M137.13,41.45h-1.36A5.32,5.32,0,0,1,135.6,40a3.65,3.65,0,0,1-3.18,1.72,2.54,2.54,0,0,1-1.8-.73,2.45,2.45,0,0,1-.77-1.87,2.52,2.52,0,0,1,.27-1.19,2.4,2.4,0,0,1,.8-.88,4.58,4.58,0,0,1,1.28-.56,9.35,9.35,0,0,1,1.79-.28l1.54-.13v-.44c0-1.57-.73-2.35-2.2-2.35a5,5,0,0,0-1.31.22,7.4,7.4,0,0,0-1.37.53l-.36-1a7.7,7.7,0,0,1,3.48-1q3.14,0,3.13,3.32v3.93A9.08,9.08,0,0,0,137.13,41.45Zm-1.6-2.72V37.07c-1.23.11-2.08.22-2.54.31a2.88,2.88,0,0,0-1.2.55,1.3,1.3,0,0,0-.5,1.07,1.24,1.24,0,0,0,.43,1,1.6,1.6,0,0,0,1.1.38,2.81,2.81,0,0,0,1.45-.44A4.21,4.21,0,0,0,135.53,38.73Z"/><path class="cls-2" d="M147,41.45h-3.75V30.23H140.9V29.05h3.76V40.26H147Z"/><path class="cls-2" d="M157.84,41.45h-3.75V30.23H151.7V29.05h3.77V40.26h2.37Z"/><path class="cls-2" d="M169.58,36.91H163.3a3.71,3.71,0,0,0,.9,2.57,2.86,2.86,0,0,0,2.21,1A8,8,0,0,0,169,40l.24,1.1a6.74,6.74,0,0,1-2.83.55,4.36,4.36,0,0,1-3.29-1.31,4.93,4.93,0,0,1-1.24-3.54A5.1,5.1,0,0,1,163,33.37a3.62,3.62,0,0,1,2.89-1.3,3.37,3.37,0,0,1,2.65,1.21,4.65,4.65,0,0,1,1.06,3.2Zm-1.49-1.11a2.61,2.61,0,0,0-.67-1.81,2,2,0,0,0-1.5-.73,2.39,2.39,0,0,0-1.76.7,2.85,2.85,0,0,0-.78,1.84Z"/><path class="cls-2" d="M180.2,41a6.53,6.53,0,0,1-2.72.63c-1.63,0-2.45-.86-2.45-2.59v-5.6h-1.76V32.29H175v-2.5h1.34v2.5h3.11v1.19h-3.11v5.24a2,2,0,0,0,.37,1.29,1.2,1.2,0,0,0,1,.46A5.2,5.2,0,0,0,180,40Z"/><path d="M14.61,43.85a147,147,0,0,1-.26-22.11c0-.28-.71-.13-.72.1A145.62,145.62,0,0,0,13.89,44c0,.21.75.06.72-.19Z"/><path d="M14.61,20.82c.32,0,.76-.47.27-.47-.31,0-.75.47-.27.47Z"/><path d="M13.36,38.2c.24,2.66.38,5.35.79,8a9,9,0,0,0,2.68,5.73c.19.16.86-.12.68-.28-1.73-1.48-2.35-3.68-2.67-5.85-.37-2.58-.52-5.2-.75-7.79,0-.22-.75-.07-.73.2Z"/><path d="M14.55,48,18,53.56c.14.23.84,0,.67-.3l-3.47-5.61c-.15-.23-.85,0-.67.3Z"/><path d="M14,49.94a13.3,13.3,0,0,0,6.36,5.13c.33.13.85-.35.42-.51a12.7,12.7,0,0,1-6.11-5c-.2-.3-.88,0-.67.33Z"/><path d="M19.49,54.92a13.88,13.88,0,0,0,8.61,4.23c.37,0,.74-.49.25-.54a13.21,13.21,0,0,1-8.19-4c-.23-.24-.92,0-.67.32Z"/><path d="M188.28,58.12l-.09-.11c-.07-.09-.3,0-.39,0-.29.07-.46.1-.59.38v0c.78,1,3.43.7,4.56.61a14.91,14.91,0,0,0,4.78-1.18,11.18,11.18,0,0,0,6.77-8.23,52.25,52.25,0,0,0,.71-7.9c.13-2.93.18-5.85.13-8.78-.09-4.89.31-10.88-3-14.88s-8.93-5.27-14.05-5.46c-.14,0-.81.27-.47.28,4.38.16,8.92,1,12.35,3.92s4.06,7.12,4.28,11.46a136.11,136.11,0,0,1,0,14.14c-.2,4.08-.11,8.83-2.81,12.17a11.51,11.51,0,0,1-5.19,3.54,12.73,12.73,0,0,1-3.66.68,14.6,14.6,0,0,1-1.62,0l-.65-.07c-.18,0-1.72-.42-1.49-.48h-.39l.09.12c.12.16.76-.14.72-.2Z"/><path d="M191.37,13.18a32,32,0,0,1,13.52,24,58.36,58.36,0,0,1-.08,8.77c-.17,2.27.06,5.75-1.91,7.32a16.89,16.89,0,0,1-3.84,1.94c-1.29.54-2.61,1-3.95,1.46a46.2,46.2,0,0,1-7.68,1.77A47.54,47.54,0,0,1,170,57.73c-.2,0-.84.27-.45.36a48.75,48.75,0,0,0,31.17-3.2c2.12-1,3.88-1.9,4.34-4.36a53.63,53.63,0,0,0,.67-8.5,36.77,36.77,0,0,0-3-16.38,31.68,31.68,0,0,0-10.71-12.74c-.19-.14-.84.15-.68.27Z"/><path d="M12.78,31.79c1.18-6,4.68-12.29,10-15.48,3.12-1.85,7-2.09,10.54-2.34a79.28,79.28,0,0,1,11.43,0c.3,0,.76-.41.27-.45a79.56,79.56,0,0,0-12.35,0c-3.38.27-7,.59-10,2.27C17,19,13.28,25.64,12.05,31.87c-.06.3.68.19.73-.08Z"/><path d="M36.63,14.32c5-.6,9.94.55,14.91.73,4.73.17,9.49-.09,14.22-.23l29.45-.9c.39,0,.58-.47.08-.46l-29.44.89c-5,.16-10,.45-15,.19-4.7-.24-9.38-1.25-14.1-.68-.37,0-.58.52-.08.46Z"/><path d="M51.83,14.32c4.57-.15,9.14.27,13.7.52s9.42.44,14.14.56q14,.35,28-.12,7.74-.26,15.46-.77c.37,0,.59-.45.09-.42a479.52,479.52,0,0,1-55.72.4c-5.14-.26-10.29-.77-15.43-.61-.29,0-.77.45-.28.44Z"/><path d="M92.84,12.16a.78.78,0,0,0-.16,1.51c.9.44,2.32.25,3.29.3l3.46.2,15.08.87,29.92,1.73c.36,0,.74-.51.25-.54L119,14.75,106.11,14l-6.43-.37-3-.17-1.48-.08-1-.06A1.25,1.25,0,0,1,93,12.67c.47-.08.32-.59-.13-.51Z"/><path d="M116.15,15.44a234.42,234.42,0,0,1,44.55,1.5c.34,0,.75-.43.26-.5a235.51,235.51,0,0,0-44.73-1.5c-.4,0-.57.53-.08.5Z"/><path d="M132.94,15.17a256.29,256.29,0,0,1,37.17,1.26c.2,0,.84-.3.46-.34a257.08,257.08,0,0,0-37.33-1.27c-.23,0-.78.37-.3.35Z"/><path d="M143.53,14.38a223.47,223.47,0,0,1,32.72,1.18c.36,0,.74-.47.25-.53a224.63,224.63,0,0,0-32.91-1.19c-.41,0-.55.55-.06.54Z"/><path d="M153.2,13.81a348.17,348.17,0,0,1,40.94,3c.38.05.74-.49.25-.55a349.4,349.4,0,0,0-41.14-3c-.42,0-.54.55-.05.55Z"/><path d="M174.82,13.16c5.45,0,11.25.13,16.53,1.59,4.2,1.16,10,3.87,10.68,8.75,0,.26.76.09.72-.19-.65-4.74-6.05-7.43-10.11-8.72-5.53-1.76-11.79-1.91-17.54-1.86-.29,0-.77.43-.28.43Z"/><path d="M119.78,59.18a419.44,419.44,0,0,0,51-2.32c.2,0,.78-.37.31-.32a416.92,416.92,0,0,1-50.83,2.32c-.17,0-.83.31-.47.32Z"/><path d="M73.39,59.23a461.5,461.5,0,0,1,61.09-2.14c.17,0,.83-.31.46-.32A462.05,462.05,0,0,0,73.7,58.91c-.21,0-.78.37-.31.32Z"/><path d="M100.46,56.52Q126.25,57.38,152,59c.18,0,.83-.3.46-.33q-25.76-1.65-51.54-2.51c-.17,0-.83.31-.46.33Z"/><path d="M105.77,57.46a431.91,431.91,0,0,1,56.08,1.12q7.86.68,15.69,1.63c.17,0,.83-.26.47-.31a434.44,434.44,0,0,0-56.32-3.17q-7.81.08-15.61.42c-.2,0-.78.33-.31.31Z"/><path d="M149.37,59.11q19.37.11,38.72-.67c.2,0,.79-.32.31-.3q-19.28.78-38.56.67c-.16,0-.83.3-.47.3Z"/><path d="M173,58.91l13.83-.7c3.29-.16,6.91-.06,9.68-2.12.27-.2-.2-.2-.32-.17A52.47,52.47,0,0,1,185,57.61c-.22,0-.78.37-.3.35a54.87,54.87,0,0,0,11.6-1.76l-.33-.17c-3,2.22-7.53,1.78-11.08,1.95l-11.56.58c-.22,0-.78.37-.3.35Z"/><path d="M26,57.66A24,24,0,0,0,37.55,59.5c4.43-.35,8.81-1.21,13.24-1.65a91,91,0,0,1,13.81-.33c4.44.23,8.86.66,13.31.78a52.12,52.12,0,0,0,13.58-1.23c.18,0,.52-.31.12-.27a157.6,157.6,0,0,1-26.07-.12,84.55,84.55,0,0,0-11.9-.49c-4.21.22-8.37.94-12.58,1.05a58.09,58.09,0,0,1-14.63-1.48c-.16,0-.83.22-.6.29,15.36,4.62,31.57,3.34,47.32,2,.2,0,.78-.35.31-.31-15.66,1.32-31.76,2.59-47-2l-.6.29a58.58,58.58,0,0,0,12,1.51,107.86,107.86,0,0,0,12.57-.84c8.74-.84,17.48.75,26.23.87q7.33.1,14.66-.49l.12-.27c-8.42,2.05-17.1.9-25.64.42A120.11,120.11,0,0,0,41.9,58.71c-5.27.75-10.25.85-15.22-1.3-.2-.09-.78.21-.69.25Z"/><path d="M51.6,60a8.72,8.72,0,0,1-3.27-1.65l-.38.36q14.1-.91,28.23-1.51c9.4-.4,18.9-.79,28.15,1.24.25.06.86-.32.44-.41-9-2-18.33-1.69-27.52-1.3q-14.61.6-29.21,1.55c-.09,0-.58.2-.38.36a9.52,9.52,0,0,0,3.5,1.78c.25.06.85-.31.44-.42Z"/><path d="M89.45,57.83q-24.51-.11-49-1.13c-.37,0-.73.53-.24.55q24.58,1,49.19,1.14c.43,0,.55-.55.06-.56Z"/><path d="M28.26,58.06l-1.34-.22-.46.32q29.88.72,59.78.72,8.46,0,16.91-.06c.23,0,.79-.33.31-.33q-29.61.21-59.21-.3Q35.6,58,26.92,57.84c-.15,0-.86.26-.46.32l1.34.23c.18,0,.84-.26.46-.33Z"/><path d="M79,57.65a434.4,434.4,0,0,1,60.13,2.4c.16,0,.82-.26.47-.3a436.56,436.56,0,0,0-60.28-2.4c-.2,0-.79.31-.32.3Z"/><path d="M82.32,57.83c27.36-1.62,54.64,1.87,82,2.12,7.52.07,15-.12,22.53-.7.37,0,.6-.47.09-.43C159.6,61,132.29,57.58,105,57c-7.52-.15-15-.07-22.55.37-.37,0-.6.46-.1.43Z"/><path d="M186.07,58.29l-48.2-1.13-.47.3q15.49,0,31,.91c5.08.29,10.14.71,15.22,1.07,4.19.3,8.52.39,12.56-.95,3.76-1.24,7.2-3.71,8.77-7.44,0-.11-.64,0-.72.13-3.75,8.92-14.74,8.41-22.75,7.77q-13.85-1.11-27.72-1.53-7.94-.24-15.87-.26c-.15,0-.83.29-.47.3l48.2,1.13c.15,0,.82-.29.47-.3Z"/><path d="M202.29,49.85c-3.14,4.94-9.19,6.35-14.54,7.45-.45.1-.32.59.13.49,5.62-1.15,11.82-2.69,15.1-7.86.21-.33-.53-.35-.69-.08Z"/><path d="M201.92,18.49l0-.17-.67.14c.64.39.62,1.8.67,2.45a16.19,16.19,0,0,1,0,2.31c-.09,1.64-.34,3.27-.48,4.91a48.26,48.26,0,0,0,.33,9.46c.71,6.32,1.87,12.79,0,19-.05.17.66.08.72-.12,1.93-6.24.77-12.74,0-19.08a47.8,47.8,0,0,1-.28-9.93c.15-1.64.4-3.26.46-4.91,0-1,.28-3.74-.73-4.35a.71.71,0,0,0-.68.15c-.17.14-.15.12-.14.34a.13.13,0,0,0,.07.06l.12,0c.18,0,.81-.25.59-.29Z"/><path d="M204.7,26.32a12.4,12.4,0,0,0-4.34-9.54c-2.83-2.37-6.53-3.2-10.13-3.46-4.3-.31-8.62,0-12.92-.23-4.75-.24-9.47-.74-14.21-1a76.31,76.31,0,0,0-15.26.3c-.31,0-.62.39-.12.32,9.14-1.24,18.31.09,27.44.66,4,.24,7.89.16,11.85.22s8,.42,11.42,2.58A12.25,12.25,0,0,1,204,26.51c0,.16.72,0,.72-.19Z"/><path d="M174.9,13.29a382.65,382.65,0,0,1-45.3-1.57c-.13,0-.82.26-.52.35,17.42,5.13,35.69,1.56,53.49,2.82.21,0,.84-.34.46-.37-17.75-1.25-36,2.33-53.36-2.78l-.52.35a387.58,387.58,0,0,0,45.46,1.57c.24,0,.77-.38.29-.37Z"/><path d="M178.9,13.7c-9.56-1-19.19-.1-28.75-1-4.72-.46-9.42-1.2-14.17-1.37a94.24,94.24,0,0,0-13.95.63c-5.22.59-10.4,1.48-15.57,2.37-.46.08-.31.6.14.52,9.25-1.59,18.59-3.19,28-3,4.72.09,9.39.78,14.07,1.27a134.46,134.46,0,0,0,13.61.62c5.46,0,10.93,0,16.37.53.37,0,.73-.5.24-.55Z"/><path d="M105.93,14.3l-2.16-.72-.33.52a184.94,184.94,0,0,0,32.26,1.05l.06-.54c-10.42.74-20.84-.25-31.26-.34-10.25-.08-20.72,1.75-30.84-.46-.36-.08-.73.43-.25.53,7.75,1.69,15.68.95,23.52.61,8.34-.36,16.67.19,25,.41,4.59.12,9.18.12,13.76-.21.41,0,.55-.56.06-.54a182.81,182.81,0,0,1-32.07-1c-.26,0-.76.38-.33.52l2.15.72c.32.1.86-.35.42-.5Z"/><path d="M53.92,12.11a1.81,1.81,0,0,0-1.42,1.46c0,.14.13.24.24.25,6.1.71,12.33-.7,18.41-1.1a156.86,156.86,0,0,1,19.15-.05c.36,0,.73-.51.24-.54a158.39,158.39,0,0,0-18.36,0c-3.09.18-6.17.46-9.24.81a43.61,43.61,0,0,1-9.95.36l.24.24.83-.9c.44-.12.31-.64-.14-.51Z"/><path d="M72.26,12.9a350,350,0,0,0-35.9,1.86c-.32,0-.63.38-.12.33A349.35,349.35,0,0,1,72,13.24c.23,0,.78-.34.3-.34Z"/><path d="M40.55,12.51C35.28,13.44,30,14.62,25.14,17c-3.91,1.93-9.72,5.44-9.56,10.47,0,.34.74.21.73-.07-.16-5.07,5.88-8.53,9.85-10.38a57.32,57.32,0,0,1,14.31-4c.37-.06.57-.55.08-.47Z"/><path d="M15.81,30.86c.28,0,.77-.42.28-.42-.27,0-.76.42-.28.42Z"/><path d="M17,27.8c1.8-4.59,3.87-9.71,8.5-12.13.42-.22-.24-.21-.43-.12-4.78,2.49-6.92,7.61-8.79,12.37-.05.15.64.08.72-.12Z"/><path d="M28,13.19c-6.64,2.38-11.29,8.19-13.52,14.73a42.66,42.66,0,0,0-2,12.44c-.13,4.19-.28,8.87,1.59,12.72.07.14.75,0,.73-.19-1.85-9.74-3.69-19.89-1-29.66,0-.12-.66,0-.71.14-2.71,9.78-.88,20,1,29.71l.73-.19c-1.69-3.48-1.66-7.55-1.63-11.34A45.86,45.86,0,0,1,14.73,29.1c2-6.83,6.56-13.3,13.46-15.78.49-.17,0-.23-.24-.13Z"/><path d="M28.86,56.91c-3.74-.19-7.88-.45-10.8-3.11-2.57-2.35-3-6-4.88-8.83l-.7.22c3.08,3.19,3.62,8,6.67,11.17S27.42,60,31.32,58c0,0,.23-.12.14-.16a15.1,15.1,0,0,0-5.85-1.52c-2.23-.11-4.59.27-6.57-1-1.73-1.13-2.84-3-3.93-4.73a17.3,17.3,0,0,1-2.7-6l-.72.19q4.11,5.79,8.74,11.18c.11.13.78-.13.68-.24q-4.61-5.37-8.7-11.13c-.09-.13-.75,0-.72.19a17.25,17.25,0,0,0,2.7,6,16,16,0,0,0,3.73,4.6c1.64,1.19,3.6,1.22,5.55,1.21a15.67,15.67,0,0,1,7.1,1.5l.14-.16a9.52,9.52,0,0,1-12.36-3.43c-2-3.09-2.79-6.83-5.39-9.52-.11-.12-.76.14-.7.22,2,2.88,2.37,6.72,5.14,9.07,3,2.52,7.07,2.76,10.79,2.95.15,0,.82-.26.47-.28Z"/><path d="M13.67,32.16A65.87,65.87,0,0,1,16,23.55a24.08,24.08,0,0,1,3.51-7.2c3.76-4.82,11-5.61,16.65-5.7.26,0,.78-.4.29-.39-5.54.08-12.47.81-16.6,4.94a19.25,19.25,0,0,0-4.09,7.08,66.28,66.28,0,0,0-2.8,10c0,.26.68.14.73-.1Z"/><path d="M38.52,13.52c-5.74.76-11.6,1.63-16.77,4.37-4.06,2.15-9.41,6.4-8.91,11.55,0,.27.69.08.73-.13A19.52,19.52,0,0,1,30.1,13.58L30,13.2a30.94,30.94,0,0,0-10.15,7.68c-.29.32.41.34.58.14a30.07,30.07,0,0,1,9.87-7.49c.3-.14.24-.42-.1-.38A20.32,20.32,0,0,0,12.84,29.39l.73-.14c-.5-5.2,5.15-9.42,9.27-11.44,4.85-2.38,10.28-3.16,15.59-3.85.36-.05.59-.5.09-.44Z"/><path d="M34.79,12.12c-5-3.75-11.76-2.65-16.72.59-6.46,4.22-9,11.59-9.16,19.05a65.68,65.68,0,0,0,1.7,14.71c.06.3.76.11.73-.19A46.23,46.23,0,0,1,19.6,15l-.68-.05A81.29,81.29,0,0,0,14,29a64.1,64.1,0,0,0-2.15,14.23c-.06,3.54.41,7.45,2.69,10.3,2.74,3.43,7.18,3.67,11.23,4L44.45,58.7c.32,0,.76-.43.27-.47l-15.23-1c-4.46-.3-10.18.12-13.61-3.28-2.66-2.63-3.29-6.69-3.29-10.27a59.79,59.79,0,0,1,1.73-13A81.81,81.81,0,0,1,19.6,15c.17-.37-.54-.24-.68-.05a46.62,46.62,0,0,0-8.31,31.55l.73-.19C9.77,38.73,8.57,30.61,11,23.11A18.4,18.4,0,0,1,24.43,10.5a12,12,0,0,1,9.79,2c.22.17.87-.15.57-.38Z"/><path d="M184.19,58.74l-1.22-.4-.53.29a38.5,38.5,0,0,0,29.91-10.41c.16-.15-.53,0-.66.05-5.62,4.6-11.75,9-18.65,11.46a23.31,23.31,0,0,1-10.9,1.39,17.11,17.11,0,0,1-4.95-1.46,4.63,4.63,0,0,1-1-.53c-.42-.41-.13-.54.29-.85a13.81,13.81,0,0,1,2.32-1.36c5.63-2.63,12.17-2.08,17.89-4.48s9-7.63,10.16-13.48c1.6-8.27-1.42-16.49-4.25-24.14-.06-.16-.73,0-.72.19a284.17,284.17,0,0,1-.76,39.9c0,.11.69,0,.72-.16,1.83-9.06,3.35-18.83,1.11-28a23.37,23.37,0,0,0-6.12-11.24,23.83,23.83,0,0,0-13-6.23c-5.63-.93-11.4-.52-17,.16-.1,0-.76.27-.39.29l29.15,1.73c1.25.07,2.5.1,3.74.22.7.07.68-.05.3.31a6.53,6.53,0,0,1-1.64.85,18.46,18.46,0,0,1-6.5,1.58,19.3,19.3,0,0,1-11.71-3.08l-.64.27c13.58,1.87,27.18,12.21,27.79,26.79a24.79,24.79,0,0,1-6.45,18c-6.1,6.43-14.94,6.76-23.23,5.86-9.3-1-18.56-2.33-27.89-3.19S130.39,57.54,121,57.12c-18.81-.85-37.64-.77-56.44.12-16.09.75-35.3,1.14-46.78-12.31a26.11,26.11,0,0,1-3.2-4.74c-.09-.16-.78,0-.73.2a38.07,38.07,0,0,0,18.05,22c.15.08.81-.15.68-.24A92.36,92.36,0,0,1,14.16,43.07c-.1-.14-.76,0-.73.19a15.17,15.17,0,0,0,7.34,9.93C25,55.78,30,56.54,34.88,56.7c5.67.17,11.37-.19,17-.35l17.94-.51,71.74-2.05,35.88-1,9-.26,2.24-.06a12.6,12.6,0,0,1,1.83-.15c-.26-.15-1.79.56-2.15.66-.75.22-1.5.44-2.25.64a129.71,129.71,0,0,1-17.25,3.34c-11.25,1.45-22.61,1.78-33.94,2.19l-35.81,1.3c-11.92.44-23.84,1-35.76,1.23-11.67.24-23.39.06-35-1.62-2.85-.41-5.69-.92-8.5-1.52-.17,0-.8.23-.6.28C41.31,63.5,64,62,86.36,61.18l35.32-1.29c11.33-.41,22.69-.66,34-1.43,12-.82,24-2.42,35.51-6.14.21-.06.34-.23,0-.22l-73.74,2.1L43.75,56.3c-6.53.19-13.51.62-19.67-2-4.77-2-8.95-6-9.92-11.23l-.73.19A92.36,92.36,0,0,0,31.85,62.4l.68-.24a38,38,0,0,1-18-22l-.73.2c3.54,6.66,9.8,11.3,16.73,14,8.21,3.22,17.16,3.64,25.88,3.42,9.86-.24,19.7-.85,29.57-1s19.89,0,29.82.37,19.87,1,29.77,1.85,19.8,2.12,29.69,3.31c7.47.9,15.71,1.25,22.26-3.11a23.46,23.46,0,0,0,9.71-15.88c2.32-14.66-8.86-26.92-22.28-30.88a36.11,36.11,0,0,0-5.35-1.14c-.09,0-.79.16-.64.26a20.39,20.39,0,0,0,21.75,0c.12-.07.1-.15,0-.16l-33.89-2-.39.29c9.75-1.17,21.13-1.67,29,5.32,6.76,6,8.2,15.48,7.84,24.08a100.21,100.21,0,0,1-2.12,15.71l.72-.16a284.2,284.2,0,0,0,.76-39.9l-.72.19c3.18,8.62,6.59,18.12,3.41,27.25a16.74,16.74,0,0,1-7.43,9.33c-3.72,2-8.06,2.42-12.16,3.15C181.84,55.42,178,56.42,175,59c0,0-.05.08,0,.1,12.75,7.42,27.67-2.92,37.39-10.86l-.66.05a36.82,36.82,0,0,1-28.78,10.06c-.11,0-.77.21-.53.29l1.22.4c.16.06.8-.21.59-.28Z"/><path d="M6.54,22.05l-.49.07,0-.74c.16-.36.68-.6,1-.76s1-.4,1.57-.59c1.25-.45,2.5-.9,3.76-1.33q3.44-1.18,6.9-2.26,6.93-2.16,14-3.91A248.07,248.07,0,0,1,62.23,7.18a250.67,250.67,0,0,1,58.33-.46,247,247,0,0,1,32.51,5.8c.25.06.86-.31.44-.41a250.61,250.61,0,0,0-127.74,2Q17.2,16.53,8.82,19.55C8.2,19.77,4,21,5.44,22.46c.49.5,2.13.32,1.82-.61-.09-.27-.81-.07-.72.2Z"/><path d="M158.38,19c-7.11-3.17-15-3.59-22.64-3.71q-12.8-.18-25.6.1-13.06.27-26.11,1c-8.38.46-16.76,1.06-25.15,1A99.09,99.09,0,0,1,31.2,13.86c-.28-.09-.85.33-.42.46,15.66,4.6,32.13,3.73,48.22,2.8,17.45-1,34.9-1.55,52.37-1.42,8.95.07,18.25,0,26.58,3.72.28.12.84-.28.43-.46Z"/><path d="M105.23,16.74l-8-17.47c-.07-.16-.77.09-.73.19l8,17.48c.07.16.77-.09.73-.2Z"/><path d="M106.53,21.06l1.76-18.61c0-.29-.7-.15-.73.09l-1.75,18.62c0,.29.7.15.72-.1Z"/><path d="M110.74,22.49A45.31,45.31,0,0,1,117,4.09c.19-.32-.54-.29-.69,0A45.89,45.89,0,0,0,110,22.57c0,.33.7.21.73-.08Z"/><path d="M188.39,19.81l12.68-16c.28-.36-.4-.47-.61-.22l-12.68,16c-.28.36.4.48.61.22Z"/><path d="M189.88,20,204,9.73c.4-.29-.21-.44-.46-.26L189.42,19.75c-.4.29.21.44.46.26Z"/><path d="M191.21,22.55l14.16-10.28c.3-.22-.42-.15-.57,0L190.64,22.51c-.3.22.42.15.57,0Z"/><path d="M20.08,41.29,13.85,61.21c-.08.27.65.17.73-.08l6.23-19.92c.08-.27-.65-.17-.73.08Z"/><path d="M21.24,45.52,18.53,58.46c-.06.31.67.2.73-.08L22,45.44c.06-.31-.67-.21-.73.08Z"/></g></svg>