<svg xmlns="http://www.w3.org/2000/svg" xmlns:xlink="http://www.w3.org/1999/xlink" viewBox="0 0 665 20"><defs><style>.cls-1{fill:none;}.cls-2{clip-path:url(#clip-path);}.cls-3{fill:#603813;}</style><clipPath id="clip-path"><rect class="cls-1" x="-1158" y="-1243" width="1976" height="1119"/></clipPath></defs><g id="Capa_1" data-name="Capa 1"><g class="cls-2"></g></g><g id="Capa_4" data-name="Capa 4"><path class="cls-3" d="M25.71.26l1.92,19.18-5.88-1.8L23.32-.19Z"/><path class="cls-3" d="M31.37,1.07V0l3,1.26L39,.19,44,.71l.77.87L45,4.91l-.81,2.66L43,9.74l.33,3-1.21,1.66.79,3-1.7,1.66-2.78-.18-3.26.55-1-1.71L32.67,19l-3.23-.53,0-2-.94-2.82.37-4-.6-2.89.6-5,.69-2Zm6.08,14.35L31.92,1.36H29.85V18.14h2.44V8.82l4.27,9.32H40L44.31,1.36H40.65L38.77,15.42Z"/><path class="cls-3" d="M69.83,5l-.41,4.08L69.13,18l-.22,1.16-.48.33L64.18,17l-.83.73-4.69,1.45.45-1.2-5.81,1.2-.7-2.26.82-3.1L52.6,8.56l.74-3.25L52.6,1.08c.41-.89.65-1.33.74-1.3l1.89.65.62-.65,5.82.87L62,2.29,66.23.11l2.68.45Zm-1.59-3.9H65.73V8.25h-7V1.08H54.13V17.7h4.7V13H66V17.7h2.2Z"/><path class="cls-3" d="M81.89,2.28a9.77,9.77,0,0,1,1.19,2.88,21.85,21.85,0,0,1,.5,8.62,8.16,8.16,0,0,1-1.28,3,5.34,5.34,0,0,1-5.5,2.56,5,5,0,0,1-2.69-1c-1.89-1.29-3.08-3.51-3.57-6.64a18,18,0,0,1,.78-3.93,13.44,13.44,0,0,1,3.91-6.61A5.08,5.08,0,0,1,77.51-.12Q80.15-.84,81.89,2.28ZM77.53,15.75a6.47,6.47,0,0,0,2-1.47,5.77,5.77,0,0,0,1.71-4.76A18.12,18.12,0,0,0,80.79,6q-.87-3.78-2.87-4.81a6.53,6.53,0,0,0-2.37,1.94,9.89,9.89,0,0,0-2,7.26,15,15,0,0,0,.89,3.48Q75.71,17.06,77.53,15.75Z"/><path class="cls-3" d="M87.75,1.07V0l3,1.26,4.68-1,5,.52.76.87.22,3.33-.81,2.66L99.37,9.74l.33,3-1.21,1.66.78,3-1.7,1.66-2.77-.18-3.27.55-1-1.71L89.05,19l-3.24-.53,0-2-.93-2.82.37-4-.6-2.89.6-5,.68-2Zm6.08,14.35L88.3,1.36H86.22V18.14h2.45V8.82l4.26,9.32h3.49l4.27-16.78H97L95.14,15.42Z"/><path class="cls-3" d="M113.35,2.28a9.77,9.77,0,0,1,1.19,2.88,21.85,21.85,0,0,1,.5,8.62,8.16,8.16,0,0,1-1.28,3,5.34,5.34,0,0,1-5.5,2.56,5,5,0,0,1-2.69-1c-1.89-1.29-3.08-3.51-3.57-6.64a18,18,0,0,1,.78-3.93,13.44,13.44,0,0,1,3.91-6.61A5.08,5.08,0,0,1,109-.12Q111.61-.84,113.35,2.28ZM109,15.75a6.47,6.47,0,0,0,2-1.47,5.77,5.77,0,0,0,1.71-4.76A18.12,18.12,0,0,0,112.25,6q-.87-3.78-2.87-4.81A6.53,6.53,0,0,0,107,3.09a9.89,9.89,0,0,0-2,7.26,15,15,0,0,0,.89,3.48Q107.17,17.06,109,15.75Z"/><path class="cls-3" d="M117.15,14.06l-1.08-1.53,1.46-.66-1-2.31,2.35-1.77-1.28-2.88L119,3.64l.87-1.43,4.12-.54L125.61.36,127,1.1l1.16-1.36,1.91,1.93-.81,3,1,2.15-1.11,3.51.7,2.36-.36,3.23.28,2.4-2,.86L125,18.56l-1.8-1.11-2.54,1.68-3.06.31-1.14-1.37.39-2.1-.82-1.34Zm2.43,4.26a16.28,16.28,0,0,1,4.76-7.91,6.23,6.23,0,0,1,2.76-1.5v9.41h1.75V1.67q-4.62.69-6.54,2A2.34,2.34,0,0,0,121,6a4,4,0,0,0,1.23,2,7.36,7.36,0,0,0,1,.86,15.37,15.37,0,0,0-4.66,6.2,11.51,11.51,0,0,0-.94,3.21Zm6.24-13.41q-3.25.28-1.95,1.29a6.77,6.77,0,0,0,1.95,1Z"/><path class="cls-3" d="M149.24,2.28a9.77,9.77,0,0,1,1.19,2.88,21.66,21.66,0,0,1,.5,8.62,8,8,0,0,1-1.28,3,5.34,5.34,0,0,1-5.5,2.56,5,5,0,0,1-2.69-1c-1.89-1.29-3.08-3.51-3.57-6.64a18.7,18.7,0,0,1,.79-3.93,13.37,13.37,0,0,1,3.91-6.61,5,5,0,0,1,2.27-1.33Q147.5-.84,149.24,2.28Zm-4.36,13.47a6.47,6.47,0,0,0,2-1.47,5.74,5.74,0,0,0,1.71-4.76A16.73,16.73,0,0,0,148.14,6c-.58-2.52-1.54-4.12-2.86-4.81a6.48,6.48,0,0,0-2.38,1.94,9.93,9.93,0,0,0-2,7.26,15.56,15.56,0,0,0,.89,3.48C142.65,16,143.67,16.62,144.88,15.75Z"/><path class="cls-3" d="M165.7-.33V5.32H154.56v8.54h5.49V17h-5.54v2.55H152V-.33Z"/><path class="cls-3" d="M187.2,5.45l.59-.41V7.49L188,7l.71,7-.85.55,1,1.5-.2,2.78-4.84.32.62-.42-2.49.42-.75-.69-2,1.14-2.76-.32-3.26.32L174.5,9.45l.37.68V5.94l1.18-.45-1.21-2L177.61.3l7.89-.52Zm-12.7,13h4.16l.83-4.64h2.69l1,4.64h4.28l-1.27-4.64h1.27V10h-2l-2.24-8.18h-4ZM180,8.91v0Zm1-2.43L182,8.91h-1.76Z"/><path class="cls-3" d="M191.69,17.85l11.52-2.18-2.64,3.77H189.21V-.15Z"/><path class="cls-3" d="M206.12,17.85l11.53-2.18L215,19.44H203.64V-.15Z"/><path class="cls-3" d="M241.12,13.5l-2.27.54.22.74-.83,1.27-.53,1.16L234,18l-3.7,1.45L228,19.2l-1.49.24-1.21-1,.4-2.74L225,14.35l.65-2.06a2.56,2.56,0,0,1-.36-.67c0-.07.17-1.13.51-3.17l-.19-2.21L226,4.08l-.39-2.17.39-.83.1-.89.78-.38.9,1,2-.43.33.4,3,.14-.85.17,3.09,1-.25,1.36,4.31,1.46L238.6,5l1.92,1.7.6,2.1-.24,1.51Zm-14.2,4.95q6.84-2.09,10.24-5.25,3-2.77,1.29-5.43-2.14-3.34-11.53-6.3Zm3.3-10.3a6.61,6.61,0,0,1,3.67,2.2c-.13-.21-1.36.06-3.67.81Z"/><path class="cls-3" d="M253.22,2.28a10,10,0,0,1,1.2,2.88,21.67,21.67,0,0,1,.49,8.62,8.14,8.14,0,0,1-1.27,3,5.36,5.36,0,0,1-5.51,2.56,5,5,0,0,1-2.68-1c-1.9-1.29-3.09-3.51-3.57-6.64a18,18,0,0,1,.78-3.93,13.37,13.37,0,0,1,3.91-6.61,5.08,5.08,0,0,1,2.28-1.33Q251.48-.84,253.22,2.28Zm-4.36,13.47a6.36,6.36,0,0,0,2-1.47,5.78,5.78,0,0,0,1.72-4.76A18.12,18.12,0,0,0,252.13,6c-.59-2.52-1.54-4.12-2.87-4.81a6.45,6.45,0,0,0-2.37,1.94,9.89,9.89,0,0,0-2,7.26,15,15,0,0,0,.89,3.48Q247.05,17.06,248.86,15.75Z"/><path class="cls-3" d="M269.22,4.8a5.49,5.49,0,0,0-4.53-1.37,9.13,9.13,0,0,0-2.6.55q-2.19.89-2.43,4.42a12.7,12.7,0,0,0,.21,3.35c.63,2.05,1.4,3.4,2.29,4a2.13,2.13,0,0,0,2.34.14A6.36,6.36,0,0,0,267,13.36l-4.14-1.61.22-2.68L271.54,12a13.77,13.77,0,0,1-3,5.44,4.61,4.61,0,0,1-1.62,1.2c-2.62,1.06-4.91,1.05-6.89,0a5.63,5.63,0,0,1-2.18-1.93,13.4,13.4,0,0,1-1.51-10,9.42,9.42,0,0,1,1.84-3.81,8.17,8.17,0,0,1,7.56-3.06A11.85,11.85,0,0,1,269.92.93,9.34,9.34,0,0,1,269.22,4.8Z"/><path class="cls-3" d="M285.32,1.67l-1.83,1.24,1.4,3.75-.66,1.66-2.7.52,2,2.12-1.44,2.31,1.44,3.41h-3.7l-1.46,2.76-3.65-.66-1.52.66-1-2,1.67-2-1.64-3.31,2.38-1.44-2.38-1.89L275,5.34l-.32-3.67,1.06.69L276.6.93h1.87l5-1.18Zm-12.16,16.5h2.59l6.15-6.67-5.49-2.66,7.08-7.17h-3.26l-6.58,7.54,5.84,2.17Z"/><path class="cls-3" d="M306.67,5.45l.58-.41V7.49l.24-.51.71,7-.85.55,1,1.5-.2,2.78-4.84.32.62-.42-2.49.42-.75-.69-2,1.14L296,19.26l-3.26.32L294,9.45l.37.68V5.94l1.18-.45-1.21-2L297.07.3,305-.22ZM294,18.44h4.16L299,13.8h2.69l1,4.64h4.28l-1.27-4.64h1.27V10h-2L302.6,1.81h-4Zm5.54-9.53v0Zm1-2.43,1,2.43h-1.76Z"/><path class="cls-3" d="M311.81,1.07V0l3,1.26,4.68-1,4.95.52.77.87.22,3.33-.81,2.66-1.17,2.17.33,3-1.21,1.66.78,3-1.7,1.66-2.77-.18-3.26.55-1.05-1.71L313.11,19l-3.23-.53-.05-2-.93-2.82.37-4-.6-2.89.6-5,.69-2Zm6.08,14.35L312.36,1.36h-2.07V18.14h2.44V8.82L317,18.14h3.48l4.27-16.78h-3.67l-1.87,14.06Z"/><path class="cls-3" d="M342.14,13.5l-2.27.54.22.74-.83,1.27-.53,1.16-3.66.78-3.71,1.45L329,19.2l-1.49.24-1.21-1,.4-2.74-.65-1.36.65-2.06a2.56,2.56,0,0,1-.36-.67c0-.07.17-1.13.51-3.17l-.19-2.21.4-2.16-.4-2.17.4-.83.09-.89.78-.38.9,1,2-.43.33.4,2.94.14-.85.17,3.09,1-.25,1.36,4.31,1.46-.78.11,1.92,1.7.6,2.1-.24,1.51Zm-14.2,4.95q6.84-2.09,10.24-5.25,3-2.77,1.29-5.43-2.14-3.34-11.53-6.3Zm3.3-10.3a6.61,6.61,0,0,1,3.67,2.2c-.13-.21-1.36.06-3.67.81Z"/><path class="cls-3" d="M363.62-.33V5.32H352.48v8.54H358V17h-5.54v2.55h-2.54V-.33Z"/><path class="cls-3" d="M375.53,2.28a10.34,10.34,0,0,1,1.19,2.88,21.67,21.67,0,0,1,.49,8.62,8,8,0,0,1-1.27,3,5.35,5.35,0,0,1-5.5,2.56,5,5,0,0,1-2.69-1c-1.9-1.29-3.09-3.51-3.57-6.64A18,18,0,0,1,365,7.82a13.37,13.37,0,0,1,3.91-6.61,5.08,5.08,0,0,1,2.28-1.33C372.91-.6,374.36.2,375.53,2.28Zm-4.37,13.47a6.36,6.36,0,0,0,2-1.47,5.78,5.78,0,0,0,1.72-4.76A18.12,18.12,0,0,0,374.43,6c-.59-2.52-1.54-4.12-2.87-4.81a6.53,6.53,0,0,0-2.37,1.94,9.89,9.89,0,0,0-2,7.26,15,15,0,0,0,.89,3.48C368.93,16,370,16.62,371.16,15.75Z"/><path class="cls-3" d="M379.33,14.06l-1.09-1.53,1.47-.66-1-2.31,2.35-1.77-1.28-2.88,1.3-1.27L382,2.21l4.12-.54L387.79.36l1.41.74,1.17-1.36,1.91,1.93-.81,3,1,2.15-1.11,3.51.7,2.36-.36,3.23.28,2.4-2,.86-2.82-.62-1.79-1.11-2.54,1.68-3.06.31-1.14-1.37.39-2.1-.83-1.34Zm2.42,4.26a16.36,16.36,0,0,1,4.77-7.91,6.26,6.26,0,0,1,2.75-1.5v9.41H391V1.67c-3.08.46-5.27,1.12-6.55,2A2.34,2.34,0,0,0,383.18,6a4,4,0,0,0,1.22,2,8,8,0,0,0,1,.86,15.48,15.48,0,0,0-4.67,6.2,11.8,11.8,0,0,0-.93,3.21ZM388,4.91q-3.25.28-1.95,1.29a6.77,6.77,0,0,0,1.95,1Z"/><path class="cls-3" d="M406.38,4.8a5.49,5.49,0,0,0-4.53-1.37,9.13,9.13,0,0,0-2.6.55q-2.19.89-2.43,4.42a13.14,13.14,0,0,0,.2,3.35c.65,2.05,1.41,3.4,2.3,4a2.13,2.13,0,0,0,2.34.14,6.36,6.36,0,0,0,2.54-2.56l-4.14-1.61.22-2.68L408.7,12a13.77,13.77,0,0,1-3,5.44,4.61,4.61,0,0,1-1.62,1.2c-2.62,1.06-4.91,1.05-6.89,0A5.63,5.63,0,0,1,395,16.7a13.4,13.4,0,0,1-1.51-10,9.42,9.42,0,0,1,1.84-3.81A8.17,8.17,0,0,1,402.9-.19,11.85,11.85,0,0,1,407.08.93,9.34,9.34,0,0,1,406.38,4.8Z"/><path class="cls-3" d="M420.67,2.28a10.34,10.34,0,0,1,1.19,2.88,21.67,21.67,0,0,1,.49,8.62,8.14,8.14,0,0,1-1.27,3,5.36,5.36,0,0,1-5.51,2.56,5,5,0,0,1-2.68-1c-1.9-1.29-3.09-3.51-3.57-6.64a18,18,0,0,1,.78-3.93A13.37,13.37,0,0,1,414,1.21a5.08,5.08,0,0,1,2.28-1.33Q418.92-.84,420.67,2.28ZM416.3,15.75a6.36,6.36,0,0,0,2-1.47,5.78,5.78,0,0,0,1.72-4.76A18.12,18.12,0,0,0,419.57,6C419,3.44,418,1.84,416.7,1.15a6.45,6.45,0,0,0-2.37,1.94,9.89,9.89,0,0,0-2,7.26,15,15,0,0,0,.89,3.48Q414.49,17.06,416.3,15.75Z"/><path class="cls-3" d="M429.43,1.33V.18l2.75-.41-.33,1.56h4.46c1.29.45,1.68,1,1.16,1.69a3,3,0,0,1-1.16.89h-4.52V19.44h-2.43V4.1h-6l1.4-2.77Z"/><path class="cls-3" d="M444.36,1.33V.18l2.74-.41-.33,1.56h4.46c1.3.45,1.69,1,1.17,1.69a3.17,3.17,0,0,1-1.17.89h-4.51V19.44h-2.43V4.1h-6l1.4-2.77Z"/><path class="cls-3" d="M453.24-.22h14V5.39h-14Zm0,8.38h11.19v2.93H453.24ZM456,13.82v2.81H467.2v2.81h-14V13.82Z"/><path class="cls-3" d="M470.94,1.07V0l3,1.26,4.68-1,5,.52.77.87.22,3.33-.81,2.66-1.16,2.17.33,3-1.21,1.66.78,3-1.7,1.66L478,18.89l-3.27.55-1-1.71L472.24,19,469,18.51l0-2L468,13.71l.37-4-.61-2.89.61-5,.68-2ZM477,15.42,471.48,1.36h-2.07V18.14h2.44V8.82l4.27,9.32h3.49l4.26-16.78h-3.66l-1.88,14.06Z"/><path class="cls-3" d="M506,4.6q-5-.81-5.29-.81A4,4,0,0,0,497.2,4a2.08,2.08,0,0,0-.84,1,11.28,11.28,0,0,0-.7,5.21,33.53,33.53,0,0,0,.27,3.4A2.77,2.77,0,0,0,498.47,16a6.53,6.53,0,0,0,2.2.07,9,9,0,0,0,3.92-1.56A7.48,7.48,0,0,0,506,13.27v4.35c-.62,1.06-2.21,1.66-4.79,1.8a20.91,20.91,0,0,1-3.66-.13q-4.17-.08-5.09-6.78a26.53,26.53,0,0,1-.09-6.66,7.33,7.33,0,0,1,3-4.78A8.49,8.49,0,0,1,500-.21a15.66,15.66,0,0,1,6,1.08Z"/><path class="cls-3" d="M517.82,2.28A10,10,0,0,1,519,5.16a21.67,21.67,0,0,1,.49,8.62,8,8,0,0,1-1.27,3,5.34,5.34,0,0,1-5.5,2.56,5,5,0,0,1-2.69-1c-1.9-1.29-3.08-3.51-3.57-6.64a18,18,0,0,1,.78-3.93,13.44,13.44,0,0,1,3.91-6.61,5.08,5.08,0,0,1,2.28-1.33Q516.08-.84,517.82,2.28Zm-4.37,13.47a6.26,6.26,0,0,0,2-1.47,5.78,5.78,0,0,0,1.72-4.76A18.12,18.12,0,0,0,516.72,6c-.59-2.52-1.54-4.12-2.87-4.81a6.53,6.53,0,0,0-2.37,1.94,9.89,9.89,0,0,0-2,7.26,15,15,0,0,0,.89,3.48C511.22,16,512.25,16.62,513.45,15.75Z"/><path class="cls-3" d="M520.53,19l2.94-16.38.45-.67.35-1.72a1.35,1.35,0,0,1,.56-.23A1.28,1.28,0,0,1,526,.26l-.23,2,5,9,4.25-8.52a1.2,1.2,0,0,0,.24-.89V.47a4.87,4.87,0,0,1,1-.58c.67-.26,1-.08,1,.52V2l4.13,17-2.63-1.41-3-12.94-5.23,14.76-6.32-8.92L522.89,18Z"/><path class="cls-3" d="M542,19l2.94-16.38.45-.67.34-1.72a1.46,1.46,0,0,1,.57-.23,1.29,1.29,0,0,1,1.16.23l-.23,2,5,9,4.25-8.52a1.2,1.2,0,0,0,.23-.89V.47a5.42,5.42,0,0,1,1-.58c.68-.26,1-.08,1,.52V2l4.13,17-2.63-1.41-3-12.94-5.23,14.76-6.33-8.92L544.35,18Z"/><path class="cls-3" d="M579.21,13.54l1,2-1.5,2.41-3.15,1.37L571.12,19l-1.1.42-3.85-1.88-1.86.66V13.79l-.86-3.4a16.26,16.26,0,0,1,1.25-2.47s-.36-1.3-1.25-3.9L564,2.58,563.45.73l3.73-.85,1,2.41,2.14-1.07.89,1.61,2.64-1.16,2.32-1.9,2.22,1L579.45,0l1.07,2.39L580.2,5l.58,2.66-.63,1.91L580.09,12Zm-3.27,3a8.13,8.13,0,0,0,1.22-2.68,66.13,66.13,0,0,0,2.29-12.42h-4.54q0,3.72-.39,7.47c-.48,5-1.28,7.57-2.4,7.69a2.85,2.85,0,0,1-1.66,0c-1.19-.37-2-1.4-2.44-3.09a47.42,47.42,0,0,1-.84-12H565A41.57,41.57,0,0,0,565,9.29q.81,8.06,4.5,9a6.65,6.65,0,0,0,2.34.29A5.13,5.13,0,0,0,575.94,16.51Z"/><path class="cls-3" d="M584.66,1.07V0l3,1.26,4.68-1,4.95.52.77.87.22,3.33-.81,2.66-1.17,2.17.33,3-1.21,1.66.79,3-1.7,1.66-2.78-.18-3.26.55-1-1.71L586,19l-3.23-.53,0-2-.94-2.82.37-4-.6-2.89.6-5,.69-2Zm6.08,14.35L585.21,1.36h-2.07V18.14h2.44V8.82l4.27,9.32h3.48L597.6,1.36h-3.66l-1.88,14.06Z"/><path class="cls-3" d="M602.87.26l1.92,19.18-5.87-1.8L600.48-.19Z"/><path class="cls-3" d="M611.44,1.33V.18l2.75-.41-.33,1.56h4.46c1.3.45,1.68,1,1.16,1.69a3,3,0,0,1-1.16.89H613.8V19.44h-2.42V4.1h-6l1.4-2.77Z"/><path class="cls-3" d="M624.27.26l1.92,19.18-5.87-1.8L621.88-.19Z"/><path class="cls-3" d="M626.8-.22h14V5.39h-14Zm0,8.38H638v2.93H626.8Zm2.73,5.66v2.81h11.23v2.81h-14V13.82Z"/><path class="cls-3" d="M654.51,1.67l-1.82,1.24,1.4,3.75-.66,1.66-2.71.52,2,2.12-1.44,2.31,1.44,3.41H649l-1.45,2.76-3.65-.66-1.52.66-1-2,1.68-2-1.65-3.31,2.39-1.44-2.39-1.89,2.81-3.5-.31-3.67,1,.69L645.8.93h1.87l5-1.18Zm-12.15,16.5H645l6.14-6.67-5.48-2.66,7.08-7.17h-3.27l-6.57,7.54,5.83,2.17Z"/></g></svg>