<svg xmlns="http://www.w3.org/2000/svg" viewBox="0 0 120 148"><defs><style>.cls-1{fill:#050608;}.cls-2{fill:#090b0f;}.cls-3{fill:#6c6f77;}.cls-4{fill:#0b0f13;}.cls-5{fill:#23282b;}.cls-6{fill:#cecfcf;}.cls-7{fill:#cfcfcf;}.cls-8{fill:#181b20;}.cls-9{fill:#080b0d;}.cls-10{fill:#646b78;}.cls-11{fill:#5c6a77;}.cls-12{fill:#c2c4c6;}.cls-13{fill:#c3c5c6;}.cls-14{fill:#f2f2f2;stroke:gray;stroke-miterlimit:10;stroke-width:0.25px;}</style></defs><g id="Capa_3" data-name="Capa 3"><path class="cls-1" d="M107.47,69.82a5.37,5.37,0,0,0-.69,1.76c0,4.8-1.19,5.4-5.65,2.87-1.21-1.93.44-4.33-1-6.21a10.16,10.16,0,0,1-4.68-3c-.39-1,.31-1.34,1.08-1.61a5.4,5.4,0,0,1,3.61,1.28c2.3,1.55,2.6.27,2.48-1.69a3.59,3.59,0,0,1,.92-2c1.29-1,2-2.73,3.89-3,1.74.4,1.61,1.84,1.76,3.13.07,1.65-.54,3.23-.48,4.88C109.05,67.72,108.11,68.72,107.47,69.82Z"/><path class="cls-2" d="M97.13,64.23a2.07,2.07,0,0,0-1.71,1c-3-1.48-5.27-3.82-7.68-6a1.42,1.42,0,0,1-.83-1.35c0-1.3,0-2.59,0-3.89h-.07c6.23-1.8,11.24.94,16,4.38a3.21,3.21,0,0,1,1.57,3.39,2.29,2.29,0,0,0-1,1.79c-4.37-.23-7-4.26-10.78-4.7C93.85,60.46,97.31,60.83,97.13,64.23Z"/><path class="cls-2" d="M100.1,68.24c1.71,1.84,2.44,3.85,1,6.21-1-.4-1.08-1.52-1.61-2.29C99.71,70.85,99.91,69.55,100.1,68.24Z"/><path class="cls-3" d="M86.91,57.89l.83,1.35c-.33.69.12,1.94-1.31,1.85C87,59.62,84,60,85,58,85.91,56.26,86.29,57.72,86.91,57.89Z"/><path class="cls-4" d="M108.36,61.1c-.94-.56.2-1.92-.93-2.41,0-4.62,3.52-7,7.94-5.53,4.93,2.29,5.28,3.64,2.23,8.65-2.16.86-2.78,3.71-5.3,4.1-.69.28-1-.12-1.31-.66-.37-3.1,3.15-4.07,3.74-6.88C111.73,57.4,110.94,61.48,108.36,61.1Z"/><path class="cls-5" d="M111.26,64.76l1,1.15c-.78,2.33-3.45,2.32-4.83,3.91,0-1.14.07-2.29.1-3.43C108.58,65.35,109.39,63.85,111.26,64.76Z"/><path class="cls-6" d="M97.13,64.23c-.88-1.71-2.85-2.08-4.11-3.36s-2.84-2.3-3.71-4.46c5.61,1,10,3.83,14.12,7.16.63,1.28,1.68,2.81.54,4-1.41,1.42-2.52-.54-3.69-1.08A19.81,19.81,0,0,1,97.13,64.23Z"/><path class="cls-7" d="M113.09,64.76c-.89.37-1.37,2.12-2.52,1.63-.37-1.88.25-3.55.54-5.29a44.72,44.72,0,0,1,2.65-4.27c.86-1.1,2.13-1.37,2.94-.19s0,2.64-.64,3.68C115.11,61.86,114.09,63.29,113.09,64.76Z"/><path class="cls-8" d="M39,7.79c.46-1.32.93-2.64,1.37-4,.94-2.84,2.44-3.89,5-1.63.25,6.26,1.47,12.65-2.31,18.41-4.54.39-3.69-3.17-4.2-5.74Q39,11.34,39,7.79Z"/><path class="cls-8" d="M29.5,20.32c-1.56-1.14-3.18-2.21-4.67-3.42-2.19-1.78-2.37-3.35.69-4.35H27c1.26.84,2.86-.2,4.11.74,2.61.69,4.86,2.67,7.8,2.18,1.1,1.42.14,2.19-.92,2.92-2.52.74-4.53-1-6.72-1.32,1.61,1.9,4.61,1.42,6.41,3.25A3.08,3.08,0,0,1,37,23.65a2.12,2.12,0,0,1-2.24.23A11.46,11.46,0,0,1,32.66,22h0C31.63,21.39,30.32,21.33,29.5,20.32Z"/><path class="cls-9" d="M36.66,23.2l.73-2.82c-.65-.83-.27-1.65,0-2.46.64-.73,1.72-1.19,1.45-2.46a1.12,1.12,0,0,1,0-.6c1.38,1.82,1.5,4.55,4,5.57,2.13.34,1.59,1.81,1,2.94a4.58,4.58,0,0,1-4.79,2.78C37.53,26,36,25.47,36.66,23.2Z"/><path class="cls-10" d="M31.07,13.28A8.19,8.19,0,0,1,27,12.54C28.37,12.58,29.87,12.08,31.07,13.28Z"/><path class="cls-11" d="M30.81,26c-.36.19-.67.45-.76.39a3.65,3.65,0,0,1-.69-.77c.21-.1.49-.35.63-.28A3.17,3.17,0,0,1,30.81,26Z"/><path class="cls-11" d="M34.94,22.79c-1.06-.61-1,2-2.29.78,0-.53,0-1.07,0-1.6C33.49,22.05,34.37,22,34.94,22.79Z"/><path class="cls-11" d="M29.5,20.32A5.57,5.57,0,0,1,32.67,22C31.29,22.05,30.08,21.78,29.5,20.32Z"/><path class="cls-12" d="M41.31,17.34C40.15,12.13,41,6.93,43.41,3.52,44.12,8.32,44,12.53,41.31,17.34Z"/><path class="cls-13" d="M37.42,17.92a1.54,1.54,0,0,1,0,2.46c-4.46.45-7.3-2.42-10.37-4.87C30.92,14.83,34.13,16.53,37.42,17.92Z"/></g><g id="Capa_4" data-name="Capa 4"><rect class="cls-14" x="7.26" y="74.52" width="111" height="60.06" rx="14.79"/><path d="M15.94,129.31A59.3,59.3,0,0,1,7.32,84.93l-.72.16a98.07,98.07,0,0,0,3.77,41.48l.72-.19A75.83,75.83,0,0,1,10.56,80l-.72.16q-1,11.35-1.47,22.76-.21,5.69-.26,11.4c0,3.28-.31,6.81.66,10,1.76,5.78,7.91,7,13.14,7.91,7.34,1.22,14.68,2.45,22,3.64a95,95,0,0,0,21.55,1.49c7.44-.5,14.85-1.68,22.25-2.64,3.69-.48,7.37-.94,11.06-1.43,2.45-.32,5-.76,6.95-2.46,2.2-2,3.35-5,4.55-7.64,1.32-2.89,2.52-5.83,3.57-8.82,4.44-12.7,6.32-27.46-1.07-39.46-.1-.16-.75,0-.73.19a223.72,223.72,0,0,1,.61,57.46c0,.1.69,0,.72-.16a249.73,249.73,0,0,0,3-29.37c.23-7.71-.57-16.18-6.23-22-.1-.1-.72,0-.7.23l3.71,28.7.92,7.11c.29,2.24.93,4.73.55,7s-2.35,3.52-4.47,4.31a49.4,49.4,0,0,1-7,2c-9,1.91-18.25,1.86-27.37,2.1-9.6.26-19.2.45-28.79.19a213,213,0,0,1-32.18-3.1l-.59.29a404,404,0,0,0,67.64,4.56q9.81-.16,19.61-.81c.07,0,.71-.22.45-.29-10.92-3.07-21.77,2-32.61,2.91-6.15.52-12.37-.32-18.48-.85L32,133.79,22.57,133c-2.64-.23-5.51-.41-7.72-2-2-1.48-3-3.81-3.82-6.06-1-2.7-1.83-5.44-2.67-8.18C5.24,106.41,3.19,95.12,7.82,85a22.52,22.52,0,0,1,9-10.37c5.36-3.07,11.91-3,17.9-3.4,12.42-.79,25-1.37,37.33.63,11.55,1.88,22.68,6,34.38,7,1.51.14,3.43.33,4.63-.83s.82-3.18-.16-4.37c-1.34-1.63-3.72-1.74-5.66-1.6-3,.2-6,.67-9,1C71.56,76,46.69,79.69,21.73,79.6q-4.57,0-9.15-.22c-.16,0-.83.29-.47.31,24.8,1.11,49.5-2.26,74.07-5.17,6-.71,12-1.52,18-2.12,2.55-.26,5.86-.12,6.79,2.79a2.76,2.76,0,0,1-.52,2.86c-1.22,1.14-4.11.44-5.6.26-11.74-1.39-22.93-5.55-34.63-7.13-12-1.63-24.1-1-36.11-.22-5.25.34-10.73.47-15.65,2.54A21.17,21.17,0,0,0,9.2,81.31C3.4,90,3.59,100.72,5.89,110.5c.67,2.84,1.5,5.64,2.38,8.41.82,2.59,1.58,5.25,2.65,7.75A10.12,10.12,0,0,0,15,131.71a16.09,16.09,0,0,0,6.63,1.53c12.34,1.08,24.67,2.23,37,3.19a63.31,63.31,0,0,0,16.89-.81c5.64-1.07,11.24-2.63,17-2.91a27.6,27.6,0,0,1,8.77.92l.45-.29a402.22,402.22,0,0,1-67.56-1.26q-9.73-1-19.41-2.48c-.16,0-.8.25-.59.29,19.64,3.57,39.67,3.49,59.55,3,9.44-.24,19-.15,28.35-2a58.3,58.3,0,0,0,6.37-1.63,16.33,16.33,0,0,0,5-2.23,5.14,5.14,0,0,0,1.92-4.27,52.56,52.56,0,0,0-.79-7.07l-4.48-34.59-.7.23c5.64,5.76,6.41,14.24,6.18,21.91a250.44,250.44,0,0,1-2.95,29.3l.72-.16a224.09,224.09,0,0,0-.61-57.45l-.73.19c6.3,10.23,5.87,22.62,2.81,33.85a96.51,96.51,0,0,1-6.43,16.75,22.92,22.92,0,0,1-2.07,3.72,8.26,8.26,0,0,1-5.24,3.25c-3.38.69-6.89.95-10.31,1.39-7.19.93-14.37,2-21.59,2.71a88.13,88.13,0,0,1-22.3-.81c-7-1.08-14-2.29-21-3.45-5.17-.86-12.38-1.18-15.46-6.18-1.86-3-1.66-6.82-1.65-10.22q0-5.94.22-11.89Q9.45,92.1,10.57,80c0-.13-.67,0-.72.16a75.87,75.87,0,0,0,.52,46.42c.06.18.77,0,.72-.19A98.07,98.07,0,0,1,7.32,84.9c0-.11-.68,0-.72.16a59.36,59.36,0,0,0,8.62,44.44c.12.18.79-.1.72-.19Z"/><path d="M14.76,75a584.84,584.84,0,0,1,81.78,3.45q11.46,1.31,22.87,3c.22,0,.7-.22.41-.45-5.89-4.63-13.4-6-20.71-6.37-8.74-.43-17.55,0-26.29.23q-14.34.33-28.66,1-7.23.3-14.45.68c-2.41.12-4.81.25-7.22.39a27.78,27.78,0,0,0-5.67.73C9.17,79.69,7.73,88.14,7.16,94.94c0,.36.69.25.73-.06a31.22,31.22,0,0,1,17.76-24.7l-.31-.41A41,41,0,0,0,4.91,100.39c0,.35.62.24.71,0A85.66,85.66,0,0,1,24.8,70.65c.24-.24-.16-.4-.36-.33-8.22,2.84-12.37,11.05-15.1,18.74a131.44,131.44,0,0,0-4,13.62,56.33,56.33,0,0,0-1.84,15,26.55,26.55,0,0,0,4.67,14.77c.15.22.79,0,.69-.25A19,19,0,0,1,8,124.4l-.69.19c5.17,6.47,13.89,8,21.66,8.93a193.32,193.32,0,0,0,31.64,1.08,194.67,194.67,0,0,0,31.63-4.13c4.35-.94,9.22-1.69,13.11-4s5-5.94,5.39-10.13a200.45,200.45,0,0,0,.07-36.5l-.72.2q1.62,16.2,2.59,32.45c.27,4.38.79,9.12-.77,13.33a9.32,9.32,0,0,1-3.71,4.76,15.62,15.62,0,0,1-6,1.91c-3.84.62-7.94.87-11,3.58-.17.16,0,.33.18.35A17.73,17.73,0,0,0,109,127.72c2.13-3.86,2.63-8.35,2.72-12.69.1-4.92-.08-9.85-.23-14.77s-.39-9.9-.67-14.85c-.21-3.43-.43-7.42-2.76-10.17C105.44,72.1,100.74,72.31,97,72q-7.76-.62-15.55-.92c-10.09-.41-20.19-.48-30.29-.41q-7.68.06-15.35.2L28.12,71a35,35,0,0,0-6.14.44c-4.07.79-6.55,3.38-8.55,6.85A55.64,55.64,0,0,0,8.59,89.42a59.9,59.9,0,0,0-2.34,24.35,55.4,55.4,0,0,0,7.81,23.35,8.38,8.38,0,0,0,4,3.68,10.53,10.53,0,0,0,5.46.17c4.88-.85,9.72-2.06,14.57-3.1l7.54-1.62c.45-.09.32-.56-.13-.47l-13.87,3c-2.32.5-4.64,1-7,1.49s-4.74.9-6.85-.22c-1.83-1-2.93-2.87-3.92-4.61a53.1,53.1,0,0,1-2.64-5.35,57.46,57.46,0,0,1-3.41-10.93A60,60,0,0,1,7.7,95.79a56.73,56.73,0,0,1,3.39-11.27c1.48-3.54,3.27-7.72,6.17-10.33,3.35-3,8.33-2.62,12.52-2.7q7.06-.13,14.12-.23c9.54-.13,19.08-.16,28.62.06,9.39.22,18.78.65,28.12,1.52,2.13.2,4.35.5,6,1.93a9,9,0,0,1,2.61,4.48c1.1,3.9,1,8.19,1.16,12.2q.34,7,.49,14a112.8,112.8,0,0,1-.1,13.26c-.38,4-1.46,8.06-4.06,11.23a17,17,0,0,1-9.52,5.76,16.35,16.35,0,0,1-5.58.19l.18.35c3.18-2.85,7.79-2.74,11.76-3.53,3.59-.71,6.82-2.34,8.5-5.75,1.76-3.57,1.66-7.8,1.45-11.67-.29-5.44-.66-10.88-1.08-16.31q-.72-9.6-1.69-19.17c0-.31-.75-.14-.72.2a206.1,206.1,0,0,1,.32,31.33c-.29,4.38-.09,10-3.48,13.25-3.19,3.12-8.3,3.88-12.47,4.84a193,193,0,0,1-60.47,4c-9-.82-19.95-1.64-26-9.23-.16-.2-.67-.08-.7.18a19.41,19.41,0,0,0,.84,7.94l.69-.25c-5.62-7.88-5.22-17.9-3.34-27A128.61,128.61,0,0,1,9.23,91.46a57,57,0,0,1,4.85-11.34c2.45-4.14,5.85-7.73,10.48-9.33l-.36-.34A86.28,86.28,0,0,0,4.93,100.32h.71a40.34,40.34,0,0,1,20-30.15c.43-.25.05-.57-.31-.41A31.85,31.85,0,0,0,7.16,94.94l.73-.06c.52-6.24,1.67-14.52,8.65-16.68a25.79,25.79,0,0,1,6.13-.83c2.24-.12,4.48-.25,6.72-.36q6.72-.36,13.45-.64,13.45-.59,26.92-.94c8.67-.22,17.38-.54,26.06-.39,8.18.14,16.8,1.14,23.44,6.37l.41-.46a585.51,585.51,0,0,0-82.16-6.69q-11.34-.12-22.67.2c-.41,0-.57.51-.08.5Z"/><path d="M30.36,85.77A122.89,122.89,0,0,0,12.19,49.59c-.19-.25-.88,0-.67.31A122.41,122.41,0,0,1,29.64,86c.1.31.82.12.72-.2Z"/><path d="M31.5,85.8,26.61,58.4c-.05-.31-.78-.13-.72.19L30.78,86c0,.31.78.13.72-.19Z"/><path d="M34.88,85.71a50.81,50.81,0,0,1,1.44-17.15c.08-.32-.66-.22-.73.07A51,51,0,0,0,34.16,85.9c0,.3.75.13.72-.19Z"/></g></svg>