<svg xmlns="http://www.w3.org/2000/svg" viewBox="0 0 364 204"><defs><style>.cls-1{fill:#4eb69d;}.cls-2{fill:#f2f2f2;}.cls-3{fill:#e6e6e6;}</style></defs><g id="Capa_4" data-name="Capa 4"><rect class="cls-1" x="27" y="16" width="326" height="171" rx="23.13"/><path class="cls-2" d="M64.63,152.08a2.79,2.79,0,0,1,2.47,1.28,8.59,8.59,0,0,1,0,7.45,3,3,0,0,1-4.93,0,6.69,6.69,0,0,1-.86-3.72,6.78,6.78,0,0,1,.85-3.72A2.78,2.78,0,0,1,64.63,152.08Zm0,9q2.13,0,2.13-4c0-2.68-.71-4-2.13-4a1.71,1.71,0,0,0-1.58,1.05,8.45,8.45,0,0,0,0,6A1.71,1.71,0,0,0,64.63,161.11Z"/><path class="cls-2" d="M71.38,155.71a2.59,2.59,0,0,1,1-.79,2.86,2.86,0,0,1,1.28-.3,2.23,2.23,0,0,1,1.93,1,4.55,4.55,0,0,1,.7,2.64,4.75,4.75,0,0,1-.73,2.73,2.27,2.27,0,0,1-2,1.09,2.45,2.45,0,0,1-1.24-.33,2.51,2.51,0,0,1-.92-.88v3.85H70.32v-9.94h1.06Zm0,1.06v3a2.87,2.87,0,0,0,.82,1,1.69,1.69,0,0,0,1.06.41,1.56,1.56,0,0,0,1.37-.81,3.67,3.67,0,0,0,.51-2,3.79,3.79,0,0,0-.49-2,1.5,1.5,0,0,0-1.35-.78A2.28,2.28,0,0,0,71.38,156.77Z"/><path class="cls-2" d="M84.28,161.59a5,5,0,0,1-2.12.49c-1.27,0-1.9-.67-1.9-2v-4.35H78.89v-.92h1.37v-1.95h1v1.95h2.42v.92H81.3v4.07a1.58,1.58,0,0,0,.28,1,.94.94,0,0,0,.78.36,4.11,4.11,0,0,0,1.73-.39Z"/><path class="cls-2" d="M90.83,161.91H89.77v-6.2h-2.1v-.92h3.16Zm-.52-9.82a.74.74,0,0,1,.52.22.73.73,0,0,1-.52,1.25.64.64,0,0,1-.49-.22.71.71,0,0,1,0-1A.68.68,0,0,1,90.31,152.09Z"/><path class="cls-2" d="M101.57,161.91H100.5v-4.68c0-1.13-.21-1.69-.62-1.69-.22,0-.45.19-.71.58a3.66,3.66,0,0,0-.39.65v5.14H97.72v-4.68c0-1.13-.21-1.69-.63-1.69-.21,0-.45.19-.7.58a3.66,3.66,0,0,0-.39.65v5.14H94.93v-7.12h1v1.07a2.86,2.86,0,0,1,.71-.9,1.29,1.29,0,0,1,.83-.34,1.07,1.07,0,0,1,.77.34,1.77,1.77,0,0,1,.47.9,2.75,2.75,0,0,1,.72-.9,1.29,1.29,0,0,1,.82-.34q1.29,0,1.29,2.31Z"/><path class="cls-2" d="M107.63,161.91h-1.06v-6.2h-2.1v-.92h3.16Zm-.51-9.82a.74.74,0,0,1,.51,1.26.69.69,0,0,1-.51.21.66.66,0,0,1-.5-.22.71.71,0,0,1,0-1A.7.7,0,0,1,107.12,152.09Z"/><path class="cls-2" d="M117.72,161.91h-5.48v-.57l4.06-5.62h-4v-.93h5.38v.52L113.66,161h4.06Z"/><path class="cls-2" d="M126.43,158.38h-4.89a2.87,2.87,0,0,0,.7,2,2.24,2.24,0,0,0,1.72.79,6.29,6.29,0,0,0,2-.35l.19.85a5.4,5.4,0,0,1-2.2.42,3.37,3.37,0,0,1-2.56-1,3.82,3.82,0,0,1-1-2.75,4,4,0,0,1,.87-2.71,2.83,2.83,0,0,1,2.25-1,2.65,2.65,0,0,1,2.06.93,3.66,3.66,0,0,1,.83,2.5Zm-1.17-.87a2,2,0,0,0-.51-1.4,1.57,1.57,0,0,0-1.17-.57,1.83,1.83,0,0,0-1.37.55,2.15,2.15,0,0,0-.6,1.42Z"/><path class="cls-2" d="M134.59,161.91h-1.07v-1a2.4,2.4,0,0,1-.94.87,2.57,2.57,0,0,1-1.29.34,2.19,2.19,0,0,1-1.93-1.09,4.88,4.88,0,0,1-.71-2.76,4.34,4.34,0,0,1,.74-2.59,2.3,2.3,0,0,1,2-1,2.56,2.56,0,0,1,2.16,1.09v-3.45h1.07Zm-1.07-2.18v-3a2.18,2.18,0,0,0-1.84-1.23,1.59,1.59,0,0,0-1.4.78,3.55,3.55,0,0,0-.51,2,3.89,3.89,0,0,0,.48,2,1.47,1.47,0,0,0,1.32.81,1.71,1.71,0,0,0,.82-.22,2.74,2.74,0,0,0,.77-.66A1.71,1.71,0,0,0,133.52,159.73Z"/><path class="cls-2" d="M151.78,161.31a4.51,4.51,0,0,1-2.63.78,3.34,3.34,0,0,1-2.85-1.28,6.09,6.09,0,0,1-1-3.72,6.26,6.26,0,0,1,.94-3.68,3.29,3.29,0,0,1,2.88-1.33,5.45,5.45,0,0,1,1.38.18,3.31,3.31,0,0,1,1.1.47l-.37.88a4.23,4.23,0,0,0-2.11-.55,2.23,2.23,0,0,0-2,1,5.57,5.57,0,0,0-.65,3.06c0,2.68.87,4,2.63,4a4.56,4.56,0,0,0,2.28-.68Z"/><path class="cls-2" d="M157.06,154.62a2.92,2.92,0,0,1,2.34,1,4.7,4.7,0,0,1,0,5.42,3.18,3.18,0,0,1-4.68,0,4.1,4.1,0,0,1-.87-2.73,4,4,0,0,1,.87-2.7A2.92,2.92,0,0,1,157.06,154.62Zm0,6.55a1.75,1.75,0,0,0,1.53-.83,3.9,3.9,0,0,0,0-4,1.9,1.9,0,0,0-3.08,0,3.51,3.51,0,0,0-.55,2,3.46,3.46,0,0,0,.56,2A1.76,1.76,0,0,0,157.06,161.17Z"/><path class="cls-2" d="M168.22,161.91h-1.06v-4.57a2.41,2.41,0,0,0-.31-1.37,1.07,1.07,0,0,0-.95-.43,3.08,3.08,0,0,0-2.1,1.22v5.15h-1.07v-7.12h1.07v1a3.32,3.32,0,0,1,2.42-1.21c1.33,0,2,.8,2,2.42Z"/><path class="cls-2" d="M176.69,161.59a5,5,0,0,1-2.11.49c-1.27,0-1.91-.67-1.91-2v-4.35H171.3v-.92h1.37v-1.95h1v1.95h2.42v.92h-2.42v4.07a1.58,1.58,0,0,0,.29,1,.94.94,0,0,0,.78.36,4.14,4.14,0,0,0,1.73-.39Z"/><path class="cls-2" d="M185.13,155l-.43,1a3.18,3.18,0,0,0-1.21-.3,1.78,1.78,0,0,0-.93.27,3,3,0,0,0-.83.77,2.86,2.86,0,0,0-.38.56v4.61h-1.06v-7.12h1.06v1.44a2.52,2.52,0,0,1,2.22-1.61A3.56,3.56,0,0,1,185.13,155Z"/><path class="cls-2" d="M193.6,161.91h-1.06a4.39,4.39,0,0,1-.13-1.15,2.83,2.83,0,0,1-2.47,1.33,2,2,0,0,1-1.4-.56,1.89,1.89,0,0,1-.6-1.45,2,2,0,0,1,.21-.93,1.83,1.83,0,0,1,.62-.68,3.29,3.29,0,0,1,1-.44,7.11,7.11,0,0,1,1.39-.22l1.2-.1v-.34q0-1.83-1.71-1.83a4.13,4.13,0,0,0-1,.17,5.32,5.32,0,0,0-1.06.42l-.28-.77a6.05,6.05,0,0,1,2.7-.74c1.63,0,2.44.86,2.44,2.57v3.07A6.86,6.86,0,0,0,193.6,161.91Zm-1.24-2.11v-1.29a17.46,17.46,0,0,0-2,.24,2.09,2.09,0,0,0-.93.42,1,1,0,0,0-.39.83,1,1,0,0,0,.33.78,1.3,1.3,0,0,0,.86.29,2.17,2.17,0,0,0,1.13-.34A3.32,3.32,0,0,0,192.36,159.8Z"/><path class="cls-2" d="M201.8,161.67a4.9,4.9,0,0,1-2,.42,3.6,3.6,0,0,1-2.69-1,4.17,4.17,0,0,1,0-5.43,3.55,3.55,0,0,1,2.65-1,5.63,5.63,0,0,1,2,.37l-.28.88a5.46,5.46,0,0,0-1.75-.33,2.38,2.38,0,0,0-1.86.76,3.29,3.29,0,0,0,0,4.06,2.36,2.36,0,0,0,1.86.81,5.5,5.5,0,0,0,1.86-.35Z"/><path class="cls-2" d="M210.3,161.59a5,5,0,0,1-2.12.49c-1.27,0-1.9-.67-1.9-2v-4.35h-1.37v-.92h1.37v-1.95h1v1.95h2.42v.92h-2.42v4.07a1.58,1.58,0,0,0,.28,1,.94.94,0,0,0,.78.36,4.11,4.11,0,0,0,1.73-.39Z"/><path class="cls-2" d="M226.62,163.34l-.42.59a8.08,8.08,0,0,1-2.32-2.69,7,7,0,0,1,0-6.47,8.06,8.06,0,0,1,2.33-2.68l.42.59a7,7,0,0,0,0,10.66Z"/><path class="cls-2" d="M235.56,153.06l-3.83,8.85h-1.14l3.76-8.67h-4.52v-1h5.73Z"/><path class="cls-2" d="M243.58,161.91h-5.3v-.81c1.34-1.5,2.21-2.51,2.61-3a7.65,7.65,0,0,0,1-1.6,4.1,4.1,0,0,0,.38-1.68,1.69,1.69,0,0,0-.49-1.27,1.91,1.91,0,0,0-1.37-.47,5.64,5.64,0,0,0-1.82.42l-.16-1a5.53,5.53,0,0,1,2.16-.44,2.92,2.92,0,0,1,2.08.73,2.49,2.49,0,0,1,.79,1.94,4,4,0,0,1-.4,1.73,8.51,8.51,0,0,1-1,1.64c-.43.52-1.25,1.46-2.48,2.81h4.06Z"/><path class="cls-2" d="M252.24,161.91h-5.08v-1h2.05v-7.49l-1.93,1v-1.12l2.08-1.07h1v8.72h1.91Z"/><path class="cls-2" d="M261.72,161.91h-1.18l-1.07-3.38h-3.16l-1.08,3.38h-1.16l3.15-9.65h1.35Zm-2.57-4.35-1.26-4-1.26,4Z"/><path class="cls-2" d="M277.62,161.91h-1.06a4,4,0,0,1-.13-1.15,2.85,2.85,0,0,1-2.48,1.33,2,2,0,0,1-1.4-.56,1.89,1.89,0,0,1-.6-1.45,2,2,0,0,1,.21-.93,1.83,1.83,0,0,1,.62-.68,3.4,3.4,0,0,1,1-.44,7.22,7.22,0,0,1,1.4-.22l1.19-.1v-.34q0-1.83-1.71-1.83a4.13,4.13,0,0,0-1,.17,5.57,5.57,0,0,0-1.06.42l-.28-.77a6.05,6.05,0,0,1,2.71-.74c1.62,0,2.43.86,2.43,2.57v3.07A6.83,6.83,0,0,0,277.62,161.91Zm-1.25-2.11v-1.29a17.46,17.46,0,0,0-2,.24,2.19,2.19,0,0,0-.93.42,1,1,0,0,0-.39.83,1,1,0,0,0,.34.78,1.25,1.25,0,0,0,.85.29,2.12,2.12,0,0,0,1.13-.34A3.32,3.32,0,0,0,276.37,159.8Z"/><path class="cls-2" d="M285.75,161.91h-5.48v-.57l4.06-5.62h-4v-.93h5.38v.52L281.68,161h4.07Z"/><path class="cls-2" d="M294.23,161.91h-1.07v-1a3.33,3.33,0,0,1-2.42,1.22c-1.33,0-2-.81-2-2.43v-4.86h1.07v4.56a2.54,2.54,0,0,0,.28,1.35,1.07,1.07,0,0,0,1,.45,3,3,0,0,0,2.1-1.22v-5.14h1.07Z"/><path class="cls-2" d="M303.34,161.91h-1.4l-3-3.54-.7.6v2.94h-1.07v-9.65h1.07v5.53l3.34-3h1.36l-3.24,2.91Z"/><path class="cls-2" d="M309.27,161.91H308.2v-6.2h-2.1v-.92h3.17Zm-.52-9.82a.74.74,0,0,1,.51,1.26.69.69,0,0,1-.51.21.68.68,0,0,1-.5-.22.74.74,0,0,1,0-1A.72.72,0,0,1,308.75,152.09Z"/><path class="cls-2" d="M314.76,152.09a8,8,0,0,1,2.32,2.68,7,7,0,0,1,0,6.47,8.08,8.08,0,0,1-2.32,2.69l-.43-.59a6.7,6.7,0,0,0,1.8-2.36,7.29,7.29,0,0,0,.55-3,7,7,0,0,0-.56-3,7.37,7.37,0,0,0-1.79-2.31Z"/><path class="cls-2" d="M67,130.3l-.42.59a8.11,8.11,0,0,1-2.33-2.69,6.94,6.94,0,0,1,0-6.47,7.86,7.86,0,0,1,2.33-2.68l.42.59A7.12,7.12,0,0,0,65.19,122a7.31,7.31,0,0,0-.55,3,7.19,7.19,0,0,0,.57,3A7.41,7.41,0,0,0,67,130.3Z"/><path class="cls-2" d="M74,123.58a2.91,2.91,0,0,1,1.52,1,2.48,2.48,0,0,1,.55,1.61,2.69,2.69,0,0,1-.88,2.1,3.16,3.16,0,0,1-2.17.78,3.19,3.19,0,0,1-2.21-.78,2.71,2.71,0,0,1-.86-2.09,2.5,2.5,0,0,1,.56-1.61,2.93,2.93,0,0,1,1.56-1,2.39,2.39,0,0,1-1.28-.79,2,2,0,0,1-.48-1.31,2.39,2.39,0,0,1,.74-1.69,2.61,2.61,0,0,1,2-.75,2.77,2.77,0,0,1,2,.75,2.3,2.3,0,0,1,.78,1.69,2,2,0,0,1-.49,1.3A2.46,2.46,0,0,1,74,123.58Zm-1,.49c-1.25.37-1.88,1.05-1.88,2.06a1.82,1.82,0,0,0,.57,1.41,1.92,1.92,0,0,0,1.33.53,1.85,1.85,0,0,0,1.34-.52,1.88,1.88,0,0,0,.54-1.42,2,2,0,0,0-.37-1.21A2.67,2.67,0,0,0,73,124.07Zm0-1a2,2,0,0,0,.33-.08,2.09,2.09,0,0,0,.5-.2,1.57,1.57,0,0,0,.38-.3,1.46,1.46,0,0,0,.29-.44,1.49,1.49,0,0,0-.36-1.65A1.64,1.64,0,0,0,73,120a1.58,1.58,0,0,0-1.12.44,1.44,1.44,0,0,0-.46,1.08,1.36,1.36,0,0,0,.17.71,1.49,1.49,0,0,0,.41.48,1.86,1.86,0,0,0,.58.29A1.63,1.63,0,0,0,73,123.11Z"/><path class="cls-2" d="M92.68,119.33l-.28.87A5.24,5.24,0,0,0,91,120a.86.86,0,0,0-.79.33,2.54,2.54,0,0,0-.22,1.31v.13h2.39v.92H90v6.2H89v-6.2h-1.8v-.92H89v-.24a3,3,0,0,1,.46-1.91,2,2,0,0,1,1.61-.55A5.81,5.81,0,0,1,92.68,119.33Z"/><path class="cls-2" d="M101.12,121.94l-.43,1a3.22,3.22,0,0,0-1.22-.3,1.78,1.78,0,0,0-.92.27,4,4,0,0,0-1.21,1.33v4.61H96.28v-7.12h1.06v1.44a2.52,2.52,0,0,1,2.21-1.61A3.64,3.64,0,0,1,101.12,121.94Z"/><path class="cls-2" d="M109.62,125.34h-4.88a2.89,2.89,0,0,0,.7,2,2.21,2.21,0,0,0,1.72.78,6.32,6.32,0,0,0,2-.34l.18.85a5.36,5.36,0,0,1-2.2.42,3.38,3.38,0,0,1-2.55-1,3.82,3.82,0,0,1-1-2.75,4,4,0,0,1,.87-2.71,2.83,2.83,0,0,1,2.25-1,2.65,2.65,0,0,1,2.06.93,3.66,3.66,0,0,1,.82,2.5Zm-1.16-.87a2,2,0,0,0-.52-1.4,1.53,1.53,0,0,0-1.16-.57,1.86,1.86,0,0,0-1.37.54,2.26,2.26,0,0,0-.61,1.43Z"/><path class="cls-2" d="M118,125.34h-4.89a2.89,2.89,0,0,0,.7,2,2.23,2.23,0,0,0,1.72.78,6.27,6.27,0,0,0,2-.34l.19.85a5.41,5.41,0,0,1-2.21.42,3.38,3.38,0,0,1-2.55-1,3.82,3.82,0,0,1-1-2.75,4,4,0,0,1,.87-2.71,2.83,2.83,0,0,1,2.25-1,2.65,2.65,0,0,1,2.06.93A3.66,3.66,0,0,1,118,125Zm-1.17-.87a2,2,0,0,0-.52-1.4,1.53,1.53,0,0,0-1.16-.57,1.86,1.86,0,0,0-1.37.54,2.2,2.2,0,0,0-.6,1.43Z"/><path class="cls-2" d="M135.18,128.87h-1.07v-4.68c0-1.13-.21-1.69-.63-1.69-.21,0-.45.19-.71.58a4,4,0,0,0-.38.65v5.14h-1.06v-4.68c0-1.13-.21-1.69-.64-1.69-.21,0-.44.19-.7.58a3.23,3.23,0,0,0-.38.65v5.14h-1.07v-7.12h1v1.07a3.05,3.05,0,0,1,.72-.91,1.31,1.31,0,0,1,.82-.33,1.1,1.1,0,0,1,.78.33,1.93,1.93,0,0,1,.47.91,3,3,0,0,1,.71-.91,1.35,1.35,0,0,1,.82-.33c.87,0,1.3.77,1.3,2.31Z"/><path class="cls-2" d="M141.24,128.87h-1.07v-6.2h-2.09v-.92h3.16Zm-.52-9.82a.75.75,0,0,1,.73.73.72.72,0,0,1-.21.53.7.7,0,0,1-.52.21.68.68,0,0,1-.5-.22.74.74,0,0,1,0-1A.72.72,0,0,1,140.72,119.05Z"/><path class="cls-2" d="M151.42,128.87h-1.07V124.3a2.42,2.42,0,0,0-.3-1.37,1.08,1.08,0,0,0-1-.43,3,3,0,0,0-2.09,1.21v5.16h-1.07v-7.12H147v1a3.32,3.32,0,0,1,2.42-1.21c1.33,0,2,.8,2,2.42Z"/><path class="cls-2" d="M159.89,128.55a5,5,0,0,1-2.11.49c-1.28,0-1.91-.67-1.91-2v-4.35H154.5v-.92h1.37v-2h1v2h2.42v.92h-2.42v4.07a1.52,1.52,0,0,0,.29,1,.93.93,0,0,0,.77.36,4.11,4.11,0,0,0,1.73-.39Z"/><path class="cls-2" d="M176.33,119l-4.19,10h-1l4.17-10Z"/><path class="cls-2" d="M193.43,128.87h-5.08v-1h2.05V120.4l-1.93,1v-1.12l2.08-1.07h1v8.72h1.91Z"/><path class="cls-2" d="M201.57,128.87h-5.3v-.81c1.34-1.5,2.22-2.51,2.62-3a7.46,7.46,0,0,0,1-1.61,4,4,0,0,0,.37-1.67,1.65,1.65,0,0,0-.49-1.27,1.9,1.9,0,0,0-1.37-.47,5.64,5.64,0,0,0-1.82.42l-.15-1a5.45,5.45,0,0,1,2.16-.44,2.93,2.93,0,0,1,2.08.73,2.52,2.52,0,0,1,.79,1.94,4,4,0,0,1-.41,1.72,8.58,8.58,0,0,1-1,1.65c-.43.52-1.25,1.46-2.48,2.81h4.06Z"/><path class="cls-2" d="M218.7,128.55a5,5,0,0,1-2.11.49c-1.28,0-1.91-.67-1.91-2v-4.35h-1.37v-.92h1.37v-2h1v2h2.42v.92h-2.42v4.07a1.58,1.58,0,0,0,.28,1,1,1,0,0,0,.78.36,4.11,4.11,0,0,0,1.73-.39Z"/><path class="cls-2" d="M224.27,121.58a2.92,2.92,0,0,1,2.34,1,4,4,0,0,1,.87,2.7,4.07,4.07,0,0,1-.87,2.72,3.18,3.18,0,0,1-4.68,0,4.1,4.1,0,0,1-.87-2.73,4,4,0,0,1,.87-2.7A2.92,2.92,0,0,1,224.27,121.58Zm0,6.54a1.74,1.74,0,0,0,1.53-.82,3.9,3.9,0,0,0,0-4,1.9,1.9,0,0,0-3.08,0,3.5,3.5,0,0,0-.55,2,3.44,3.44,0,0,0,.56,2A1.76,1.76,0,0,0,224.27,128.12Z"/><path class="cls-2" d="M241.06,119a2.61,2.61,0,0,1,2.35,1.32,6.91,6.91,0,0,1,.83,3.69,7.16,7.16,0,0,1-.8,3.65,2.77,2.77,0,0,1-4.73,0,6.91,6.91,0,0,1-.83-3.69,7.2,7.2,0,0,1,.8-3.66A2.61,2.61,0,0,1,241.06,119Zm0,9a1.6,1.6,0,0,0,1.5-1,9.8,9.8,0,0,0,0-6.12,1.6,1.6,0,0,0-1.5-.95,1.58,1.58,0,0,0-1.49,1,7.11,7.11,0,0,0-.49,3,7.22,7.22,0,0,0,.48,3A1.59,1.59,0,0,0,241.06,128.07Zm0-5a1,1,0,0,1,1,1,1.06,1.06,0,0,1-.3.76,1,1,0,0,1-.73.32.94.94,0,0,1-.71-.32,1.06,1.06,0,0,1-.3-.76,1,1,0,0,1,.29-.73A1,1,0,0,1,241,123Z"/><path class="cls-2" d="M249.43,127.3a.85.85,0,0,1,.61.25.81.81,0,0,1,.25.61.91.91,0,0,1-.25.63.8.8,0,0,1-.61.26.75.75,0,0,1-.59-.26.87.87,0,0,1-.25-.63.84.84,0,0,1,.84-.86Z"/><path class="cls-2" d="M257.86,119a2.63,2.63,0,0,1,2.36,1.32,6.91,6.91,0,0,1,.82,3.69,7.16,7.16,0,0,1-.8,3.65,2.77,2.77,0,0,1-4.73,0,6.91,6.91,0,0,1-.83-3.69,7.09,7.09,0,0,1,.81-3.66A2.58,2.58,0,0,1,257.86,119Zm0,9a1.58,1.58,0,0,0,1.5-1,9.8,9.8,0,0,0,0-6.12,1.64,1.64,0,0,0-3,0,9.71,9.71,0,0,0,0,6.09A1.57,1.57,0,0,0,257.86,128.07Zm0-5a1,1,0,0,1,1,1,1.06,1.06,0,0,1-.3.76,1,1,0,0,1-.73.32,1,1,0,0,1-.71-.32,1.06,1.06,0,0,1-.3-.76,1,1,0,0,1,.29-.73A1,1,0,0,1,257.83,123Z"/><path class="cls-2" d="M266.26,119a2.63,2.63,0,0,1,2.36,1.32,6.91,6.91,0,0,1,.82,3.69,7.16,7.16,0,0,1-.8,3.65,2.59,2.59,0,0,1-2.38,1.35,2.62,2.62,0,0,1-2.35-1.31,6.91,6.91,0,0,1-.83-3.69,7.09,7.09,0,0,1,.81-3.66A2.58,2.58,0,0,1,266.26,119Zm0,9a1.58,1.58,0,0,0,1.5-1,9.8,9.8,0,0,0,0-6.12,1.64,1.64,0,0,0-3,0,9.71,9.71,0,0,0,0,6.09A1.57,1.57,0,0,0,266.26,128.07Zm0-5a1,1,0,0,1,.72.3,1,1,0,0,1,.3.73,1.06,1.06,0,0,1-.3.76,1,1,0,0,1-1.44,0,1.06,1.06,0,0,1-.3-.76,1,1,0,0,1,.29-.73A1,1,0,0,1,266.24,123Z"/><path class="cls-2" d="M277.19,128.87h-5.31v-.81c1.35-1.5,2.22-2.51,2.62-3a7.46,7.46,0,0,0,1-1.61,4,4,0,0,0,.37-1.67,1.68,1.68,0,0,0-.48-1.27A1.94,1.94,0,0,0,274,120a5.59,5.59,0,0,0-1.81.42l-.16-1a5.53,5.53,0,0,1,2.16-.44,2.93,2.93,0,0,1,2.08.73,2.49,2.49,0,0,1,.79,1.94,4,4,0,0,1-.41,1.72,8.58,8.58,0,0,1-1,1.65c-.42.52-1.25,1.46-2.47,2.81h4.06Z"/><path class="cls-2" d="M294.45,125.34h-4.88a2.89,2.89,0,0,0,.7,2,2.21,2.21,0,0,0,1.72.78,6.32,6.32,0,0,0,2-.34l.18.85a5.36,5.36,0,0,1-2.2.42,3.38,3.38,0,0,1-2.55-1,3.82,3.82,0,0,1-1-2.75,4,4,0,0,1,.87-2.71,2.83,2.83,0,0,1,2.25-1,2.65,2.65,0,0,1,2.06.93,3.66,3.66,0,0,1,.82,2.5Zm-1.16-.87a2,2,0,0,0-.52-1.4,1.53,1.53,0,0,0-1.16-.57,1.86,1.86,0,0,0-1.37.54,2.26,2.26,0,0,0-.61,1.43Z"/><path class="cls-2" d="M302.71,128.55a5,5,0,0,1-2.11.49c-1.27,0-1.91-.67-1.91-2v-4.35h-1.36v-.92h1.36v-2h1v2h2.42v.92h-2.42v4.07a1.58,1.58,0,0,0,.29,1,.94.94,0,0,0,.78.36,4.14,4.14,0,0,0,1.73-.39Z"/><path class="cls-2" d="M311,128.87H310V124.3a2.33,2.33,0,0,0-.31-1.37,1.07,1.07,0,0,0-.95-.43,3.06,3.06,0,0,0-2.1,1.21v5.16h-1.06v-9.65h1.06v3.57a3.33,3.33,0,0,1,2.42-1.21c1.34,0,2,.8,2,2.42Z"/><path class="cls-2" d="M314.76,119.05a7.94,7.94,0,0,1,2.32,2.68,7,7,0,0,1,0,6.47,8.08,8.08,0,0,1-2.32,2.69l-.43-.59a6.79,6.79,0,0,0,1.8-2.36,7.32,7.32,0,0,0,.55-3,7.07,7.07,0,0,0-.56-3,7.46,7.46,0,0,0-1.79-2.3Z"/><path class="cls-2" d="M63.33,90.82H52.9v-1.6q4-4.43,5.15-5.93A14.9,14.9,0,0,0,60,80.12a8,8,0,0,0,.74-3.29,3.28,3.28,0,0,0-1-2.5,3.76,3.76,0,0,0-2.7-.92,11.08,11.08,0,0,0-3.58.82l-.31-1.9a10.92,10.92,0,0,1,4.26-.86,5.77,5.77,0,0,1,4.09,1.44,4.93,4.93,0,0,1,1.56,3.82,7.74,7.74,0,0,1-.81,3.39,15.53,15.53,0,0,1-2,3.23Q59,84.9,55.34,88.89h8Z"/><path class="cls-2" d="M74.9,71.47a5.18,5.18,0,0,1,4.64,2.59,13.72,13.72,0,0,1,1.62,7.27,14,14,0,0,1-1.58,7.19,5.07,5.07,0,0,1-4.68,2.66,5.15,5.15,0,0,1-4.62-2.58,13.57,13.57,0,0,1-1.63-7.27,14,14,0,0,1,1.58-7.2A5.11,5.11,0,0,1,74.9,71.47Zm0,17.77a3.15,3.15,0,0,0,3-1.89,14,14,0,0,0,1-6,14,14,0,0,0-1-6,3.24,3.24,0,0,0-5.89,0,14,14,0,0,0-1,6,14.07,14.07,0,0,0,1,6A3.12,3.12,0,0,0,74.9,89.24Zm-.05-9.92a1.93,1.93,0,0,1,1.43.58,2,2,0,0,1,.59,1.43,2.1,2.1,0,0,1-.59,1.5,1.9,1.9,0,0,1-1.43.63,1.86,1.86,0,0,1-1.41-.63,2.09,2.09,0,0,1-.58-1.5,1.94,1.94,0,0,1,.57-1.43A1.91,1.91,0,0,1,74.85,79.32Z"/><path class="cls-2" d="M113.43,90.82h-2.1v-9a4.77,4.77,0,0,0-.6-2.71,2.14,2.14,0,0,0-1.87-.84q-1.92,0-4.13,2.4V90.82h-2.1v-14h2.1v2.06a6.54,6.54,0,0,1,4.76-2.4q3.95,0,3.94,4.77Z"/><path class="cls-2" d="M130.1,72.05l-.55,1.71a9.7,9.7,0,0,0-2.68-.43,1.71,1.71,0,0,0-1.55.64,5.23,5.23,0,0,0-.43,2.58v.25h4.71v1.82h-4.71v12.2h-2.1V78.62h-3.52V76.8h3.52v-.47a5.86,5.86,0,0,1,.92-3.75,4,4,0,0,1,3.16-1.08A10.88,10.88,0,0,1,130.1,72.05Z"/><path class="cls-2" d="M146.63,90.19a10,10,0,0,1-4.15,1q-3.76,0-3.76-4V78.62H136V76.8h2.69V73h2.05V76.8h4.76v1.82h-4.76v8a3.14,3.14,0,0,0,.56,2,1.88,1.88,0,0,0,1.54.71,8.16,8.16,0,0,0,3.4-.77Z"/><path class="cls-2" d="M179.7,72.05l-.55,1.71a9.7,9.7,0,0,0-2.68-.43,1.71,1.71,0,0,0-1.55.64,5.12,5.12,0,0,0-.43,2.58v.25h4.71v1.82h-4.71v12.2h-2.1V78.62h-3.52V76.8h3.52v-.47a5.86,5.86,0,0,1,.92-3.75,4,4,0,0,1,3.16-1.08A10.88,10.88,0,0,1,179.7,72.05Z"/><path class="cls-2" d="M190.66,76.46a5.73,5.73,0,0,1,4.6,2,9.18,9.18,0,0,1,0,10.67,6.24,6.24,0,0,1-9.2,0,8,8,0,0,1-1.71-5.36,7.93,7.93,0,0,1,1.71-5.32A5.7,5.7,0,0,1,190.66,76.46Zm0,12.89a3.48,3.48,0,0,0,3-1.61,7.67,7.67,0,0,0,0-7.9,3.5,3.5,0,0,0-3-1.56,3.45,3.45,0,0,0-3,1.54,7.81,7.81,0,0,0,0,7.94A3.46,3.46,0,0,0,190.66,89.35Z"/><path class="cls-2" d="M212.85,77.18l-.85,2a6,6,0,0,0-2.4-.61,3.53,3.53,0,0,0-1.81.53,6,6,0,0,0-1.64,1.52,5.68,5.68,0,0,0-.74,1.11v9.07h-2.09v-14h2.09v2.84q1.68-3.18,4.36-3.18A7.05,7.05,0,0,1,212.85,77.18Z"/><path class="cls-2" d="M247.35,76.8l-2,14h-1.6l-3.29-7.94-3.31,7.94h-1.6l-2-14h2.08c.75,6.55,1.13,10,1.16,10.31l2.57-6.1h2.15l2.56,6.06L245.2,76.8Z"/><path class="cls-2" d="M262.58,90.82H260.5a8.1,8.1,0,0,1-.26-2.26,5.6,5.6,0,0,1-4.87,2.62,3.91,3.91,0,0,1-2.75-1.11,3.74,3.74,0,0,1-1.19-2.86,3.86,3.86,0,0,1,.42-1.83A3.62,3.62,0,0,1,253.07,84a6.67,6.67,0,0,1,2-.86,14.86,14.86,0,0,1,2.75-.43l2.35-.19v-.67q0-3.61-3.36-3.61a8.06,8.06,0,0,0-2,.34,10,10,0,0,0-2.09.82l-.56-1.51a11.78,11.78,0,0,1,5.33-1.47c3.19,0,4.79,1.7,4.79,5.08v6A13.92,13.92,0,0,0,262.58,90.82Zm-2.45-4.16V84.12a38.62,38.62,0,0,0-3.89.48,4.38,4.38,0,0,0-1.83.82,2,2,0,0,0-.78,1.65,1.91,1.91,0,0,0,.66,1.51,2.44,2.44,0,0,0,1.69.58,4.31,4.31,0,0,0,2.22-.66A6.59,6.59,0,0,0,260.13,86.66Z"/><path class="cls-2" d="M277.74,90.82H272V73.65h-3.66V71.84h5.76V89h3.63Z"/><path class="cls-2" d="M294.27,90.82h-5.73V73.65h-3.66V71.84h5.76V89h3.63Z"/><path class="cls-2" d="M312.25,83.88h-9.62A5.67,5.67,0,0,0,304,87.8a4.32,4.32,0,0,0,3.38,1.55,12.47,12.47,0,0,0,3.94-.68l.37,1.68a10.63,10.63,0,0,1-4.34.83,6.66,6.66,0,0,1-5-2,7.54,7.54,0,0,1-1.91-5.41,7.81,7.81,0,0,1,1.72-5.32,5.59,5.59,0,0,1,4.43-2,5.2,5.2,0,0,1,4.05,1.85,7.17,7.17,0,0,1,1.63,4.91ZM310,82.17a4,4,0,0,0-1-2.77,3.08,3.08,0,0,0-2.29-1.12,3.66,3.66,0,0,0-2.7,1.08,4.24,4.24,0,0,0-1.19,2.81Z"/><path class="cls-2" d="M328.5,90.19a10,10,0,0,1-4.16,1q-3.75,0-3.75-4V78.62H317.9V76.8h2.69V73h2V76.8h4.76v1.82h-4.76v8a3.08,3.08,0,0,0,.57,2,1.86,1.86,0,0,0,1.53.71,8.13,8.13,0,0,0,3.4-.77Z"/><path class="cls-3" d="M26.79,35.91A311.45,311.45,0,0,1,22,107.2l.73-.07a565.66,565.66,0,0,1,4.89-78.25L26.9,29a658,658,0,0,1-2.47,101.32Q23,144.59,20.9,158.76l.73-.14a659.83,659.83,0,0,1-.45-87.25q.75-12.14,1.94-24.23l-.73.07q1.84,46.14,1.52,92.34-.11,13.2-.38,26.39l.73-.07L23,77.25l-.35-25.12L22,52.2l1.92,69.51c.3,10.86.25,21.8,1.07,32.64.7,9.26,2.63,19.14,9,26.32,5.7,6.47,14.66,10.66,23.24,7.91.18-.05.5-.34.16-.43-16.35-4.38-30-16.89-36.37-32.49a52.4,52.4,0,0,1-3.5-13.55l-.73.2C23,160.34,31,180.67,50.35,187.9c9.89,3.69,20.73,3.47,31.08,2.39C93.26,189,105,186.83,116.83,186c26.18-1.91,52.63-.46,78.8,1.08s52.22,3.87,78.22,7c11.62,1.4,23.53,3.31,35.19,1.2a53.25,53.25,0,0,0,15.19-5.52c4.71-2.47,9.26-5.27,14.18-7.32A35.36,35.36,0,0,1,346.9,180c.15,0,.38-.09.41-.27,4.75-28.86,9.45-58,9-87.32a195.86,195.86,0,0,0-5-42.75c-2.59-10.81-6-25-17.47-29.68a34.59,34.59,0,0,0-10-2.11c-4.2-.4-8.42-.66-12.62-1l-26.12-2c-.32,0-.76.43-.27.48l39.5,3.38,9.87.84c3.07.26,6.37.45,8.94,2.33,4.12,3,4.73,8.81,5.08,13.49a597.89,597.89,0,0,1,.48,78.28q-1.14,19.32-3.5,38.55c-.74,6.05-1.31,12.25-2.65,18.2-1.29,5.74-4.16,10.49-9.6,13.07-4.89,2.31-10.43,2.84-15.74,3.36-6.38.63-12.77,1-19.17,1.3-13,.51-26,.29-38.94-.33-25.6-1.22-51.09-4-76.62-6.12-25.34-2.08-50.69-3.31-76.1-2-12.94.67-25.89,1.68-38.86,1.49a160.49,160.49,0,0,1-19-1.31c-5.73-.78-12.12-1.57-17.25-4.44-4.91-2.74-7.16-7.57-7.95-12.95-.91-6.09-.81-12.39-1-18.54q-.59-19.68-.25-39.37.33-19.53,1.57-39,.63-9.83,1.48-19.63C25.66,40,26,34,27.56,28.27,33.82,5.65,63.5,2.05,82,10.74A44.21,44.21,0,0,1,94,19.07l.47-.39a380.26,380.26,0,0,0-74.14.47l-.08.47,76.57-12-.11-.42A196.75,196.75,0,0,1,24,19.53c-.14,0-.5.07-.5.27L23.12,94l-.18,36.78c-.06,10.52-.85,21.51,1.62,31.82a31.76,31.76,0,0,0,14.75,20.46c7.2,4.21,15.65,5.81,23.86,6.47,9.81.77,19.69.15,29.51-.17l36.7-1.23,74.06-2.47,73.74-2.46,37-1.23c5.4-.18,11,0,16.31-.89,4-.65,7.83-2.17,10.34-5.44,2.85-3.71,3.57-8.57,4.33-13q1.51-8.9,2.61-17.83,2.18-17.9,2.66-35.93a382.6,382.6,0,0,0-4.7-70.91C344.34,29.15,342,19.53,333,15.76c-4.78-2-10.18-2.39-15.29-2.84a163.31,163.31,0,0,0-35.17.69c-.38.05-.58.53-.08.47a163.36,163.36,0,0,1,35.64-.63c5.31.49,11,.92,15.86,3.4,4.38,2.27,7.11,6.32,8.72,10.88s2.26,9.44,3,14.22q1.29,8.58,2.19,17.23,1.85,17.73,2,35.59a381.94,381.94,0,0,1-5.6,69.18c-.85,4.83-1.88,10.21-5.88,13.5s-9.26,3.55-14.07,3.74c-11.82.45-23.65.79-35.47,1.18l-71.75,2.39-71.42,2.38L110,188.33c-11.37.38-22.75.95-34.13,1.09-16.11.2-36.07-1.26-45.92-16-5.72-8.59-6.26-19.4-6.29-29.4,0-11.71.11-23.43.17-35.14l.35-71.57.09-17.56-.5.27A198.31,198.31,0,0,0,97,7.61c.32-.12.23-.47-.11-.42l-76.57,12c-.37.06-.59.53-.08.47a379.88,379.88,0,0,1,73.95-.47c.14,0,.69-.17.47-.38C80.53,5,57.2,1.47,40,11.53A28,28,0,0,0,29.35,22c-2.82,5.12-3.69,11-4.27,16.75-1.38,13.5-2.27,27.06-2.91,40.61s-1,27.34-.93,41q0,10.34.29,20.67c.17,6.25.23,12.54.76,18.77.42,5,1.57,10.38,5.5,13.91s9.4,4.69,14.45,5.63c12.68,2.36,25.63,2.56,38.48,2.11,13.33-.46,26.62-1.6,40-1.85,13.57-.26,27.13.2,40.67,1,26.77,1.62,53.43,4.69,80.18,6.59,26.29,1.87,52.89,2.75,79.13-.3,4.74-.55,9.65-1.4,13.87-3.76a17.47,17.47,0,0,0,8.22-10.76c1.75-6,2.2-12.49,3-18.67q1.26-10,2.18-20.05a606.49,606.49,0,0,0,2-80.65c-.27-6.58-.5-13.21-1.16-19.77-.44-4.39-1.48-9.45-5.45-12-2.18-1.42-4.83-1.78-7.36-2-3.35-.31-6.71-.58-10.06-.86l-20.74-1.78-20.07-1.72-.27.48,22.53,1.72,11.1.85a82.66,82.66,0,0,1,10.64,1.19A21.46,21.46,0,0,1,343.4,29.5c3.23,5.39,5,11.6,6.51,17.63,7.13,27.64,6.66,56.54,3.61,84.72-1.74,16.05-4.32,32-6.94,47.93l.4-.28c-10.39,1.53-18.75,8.25-28.17,12.32-11.33,4.89-23.76,4.2-35.74,2.82-25.42-2.92-50.81-5.68-76.36-7.4-25.38-1.71-51-3.17-76.42-2.43A316.42,316.42,0,0,0,93.8,188.2c-10.88,1.59-22,3.24-33,1.72a42,42,0,0,1-26.89-14.61c-6.44-7.67-10.51-17-14-26.34-.85-2.28-1.66-4.56-2.46-6.86-.11-.29-.76-.11-.73.2,2,16.83,12.45,32.14,27,40.74a52.5,52.5,0,0,0,13.18,5.54l.16-.44c-8.48,2.72-17.29-1.7-22.78-8.15-6.12-7.19-7.93-17-8.59-26.13-.77-10.49-.74-21.06-1-31.57l-.92-33.1-1-37.07c0-.35-.73-.22-.73.07l1.23,88.61.34,25.13c0,.34.73.21.73-.07q1-46.17-.26-92.36-.36-13.19-.88-26.37c0-.35-.7-.22-.73.07a658.76,658.76,0,0,0-2.78,87.27q.42,12.18,1.3,24.34c0,.29.69.1.72-.13A658.55,658.55,0,0,0,28.52,56.85q-.15-14-.89-28c0-.28-.7-.11-.73.14A565.42,565.42,0,0,0,22,107.2c0,.35.68.2.73-.07a313.15,313.15,0,0,0,4.78-71.42c0-.28-.74-.12-.73.2Z"/><path class="cls-3" d="M95.73,9.75,54.28,15.53,33.72,18.4c-4.89.69-10.1,1.51-12.91,6.06a21.92,21.92,0,0,0-2.46,6.68c-.76,3.23-1.38,6.49-1.92,9.76-1.1,6.56-1.83,13.18-2.27,19.81a307.11,307.11,0,0,0,.28,40.36c.86,13.22,2.25,26.4,3.69,39.56,1.09,9.88,2.52,20.42,8,29a27.34,27.34,0,0,0,10.46,9.65,41.24,41.24,0,0,0,15.73,4c6,.48,12.1.31,18.14.29l20.78-.06,83.81-.26,83.8-.25,41.91-.13c11.64,0,23.89.39,34.35-5.54,15.72-8.92,22.2-27.7,24.29-44.67,1.3-10.47.9-21-.08-31.5a229.29,229.29,0,0,0-7-38.56q-2.58-9.54-6-18.84c-2-5.42-3.91-11.17-7-16.09a19.14,19.14,0,0,0-12.25-8.57c-6.41-1.59-13.06-2.43-19.55-3.57L287.8,12l-.25.54c22.18,1.88,47.66,4.54,62.31,23.58a36.65,36.65,0,0,1,6.72,14c1.43,6.09,1.32,12.41.75,18.6-1.15,12.49-3.3,25-5.68,37.25a490.22,490.22,0,0,1-20,72.89c-1,2.85-1.85,6.39-4.77,7.88-2.52,1.29-5.77.9-8.5.84l-20.11-.47q-19.75-.48-39.52-1-40-1.17-80-2.69-39.51-1.52-79-3.39c-13-.62-26-1-39-2-5.84-.44-11.84-1.34-17-4.24a26.66,26.66,0,0,1-9.44-9.08c-4.94-7.83-6.37-17.48-6.82-26.56-.58-11.53.17-23.16.44-34.69l.94-39.32c.24-10.27.15-20.68,2.24-30.79C33,24.18,37,15,45.11,9.73,55,3.35,67.21,4.85,77.88,8.16A144.73,144.73,0,0,1,93.07,14c.32.14.84-.32.41-.5C83.39,9.08,72.57,4.75,61.37,4.72c-9.79,0-18.95,4.2-24.55,12.36-5.28,7.7-7.07,17.31-7.89,26.44-1.08,12.12-.89,24.4-1.18,36.56q-.48,20.51-1,41c-.24,10.08-.55,20.26,1.58,30.18,1.84,8.54,5.73,17,13.22,21.92,4.53,3,9.86,4.33,15.19,5,6.26.76,12.61.86,18.91,1.18q41.19,2.07,82.39,3.75T240.25,186q20.61.65,41.23,1.19l20.78.52c6.67.16,13.43.63,20.09.42a10.25,10.25,0,0,0,5.94-1.67c2-1.52,2.75-4.08,3.57-6.34q3.38-9.27,6.36-18.69,5.85-18.39,10.25-37.2,4.44-19.06,7.37-38.46c1.83-12.11,4.45-25.33,1.08-37.4-2.76-9.9-9.85-17.95-18.32-23.5-9.65-6.33-21-9.31-32.26-11C300.19,13,294,12.51,287.8,12c-.36,0-.74.45-.25.54L307,16c6.25,1.1,12.58,2,18.77,3.37a21.31,21.31,0,0,1,8.6,3.62,20.49,20.49,0,0,1,5.31,6.63c2.89,5.35,4.92,11.29,6.93,17,8.12,23.11,13,48.09,12.88,72.64-.1,17.43-3.52,37.21-15.79,50.45-7.36,8-17.16,11.51-27.83,12.27-6.36.45-12.78.29-19.16.31l-20.1.06-80.74.25-80.74.24L75,183c-6.33,0-12.68.18-19-.08-5.67-.23-11.45-.9-16.73-3.1-10-4.16-15.23-13.52-17.78-23.59C18.7,145.3,18.1,133.79,17,122.66c-2.57-26-4.21-52.32-.4-78.25.48-3.24,1-6.47,1.7-9.68a41.43,41.43,0,0,1,2.23-8.29,10.78,10.78,0,0,1,6.74-6.22,50.66,50.66,0,0,1,9.09-1.64L76.13,13,95.67,10.3c.41-.06.55-.62.06-.55Z"/><path class="cls-2" d="M317.1,27a74.75,74.75,0,0,0,2.22-23c0-.22-.74-.08-.73.2a74,74,0,0,1-2.21,22.87c-.07.26.66.15.72-.09Z"/><path class="cls-2" d="M320.45,28.74l14-28.85c.18-.36-.55-.36-.69-.07l-14,28.84c-.18.36.55.36.69.08Z"/><path class="cls-2" d="M324.06,29.81,347.44,0c.29-.36-.39-.49-.61-.22L323.45,29.58c-.29.37.39.5.61.23Z"/><path class="cls-2" d="M33.16,133.44A26.16,26.16,0,0,1,12,128.68c-.16-.12-.79.17-.68.25A26.87,26.87,0,0,0,33,133.72c.28-.06.64-.38.13-.28Z"/><path class="cls-2" d="M31.18,141.48a35.69,35.69,0,0,1-31,3.38c-.2-.07-.86.23-.58.33a37,37,0,0,0,32-3.53c.42-.26-.22-.32-.44-.18Z"/><path class="cls-2" d="M31.55,138.86a51.87,51.87,0,0,1-28.42-1.62c-.33-.12-.85.36-.41.51a52.91,52.91,0,0,0,29,1.65c.46-.1.31-.64-.14-.54Z"/><path class="cls-2" d="M320.9,174.94a128.76,128.76,0,0,1-1.43,28.62c-.05.3.68.18.73-.08a129.81,129.81,0,0,0,1.43-28.74c0-.25-.74-.1-.73.2Z"/><path class="cls-2" d="M324.33,173.5a67.56,67.56,0,0,0,5.32,25.75c.08.18.78-.06.73-.19a67.23,67.23,0,0,1-5.32-25.75c0-.12-.73,0-.73.19Z"/><path class="cls-2" d="M326.23,174a126.94,126.94,0,0,0,13.46,12.46c.24.18.88-.15.57-.4a124.13,124.13,0,0,1-13.36-12.37c-.21-.23-.9.06-.67.31Z"/></g></svg>