<svg xmlns="http://www.w3.org/2000/svg" viewBox="0 0 210 91"><defs><style>.cls-1{fill:#93278f;}.cls-2{fill:#29abe2;}</style></defs><g id="Capa_4" data-name="Capa 4"><path d="M13.1,23.51a87.71,87.71,0,0,0-2.95,37.11l.72-.19a42.88,42.88,0,0,1,1.38-34.14l-.69-.06c-1.86,3.88-2.18,8.18-2,12.43a110.27,110.27,0,0,0,1.42,13,126.69,126.69,0,0,0,7.45,26.62l.7-.25a52.43,52.43,0,0,1-13-25.19L5.38,53c1.82,8,3.71,16.4,8.47,23.28,4,5.71,9.93,10.26,17,10.95.33,0,.74-.44.26-.49-7.17-.71-13.17-5.53-17-11.4-4.42-6.74-6.22-14.79-8-22.53-.07-.31-.79-.13-.73.19A52.79,52.79,0,0,0,18.47,78.29c.16.17.82,0,.7-.25a127.53,127.53,0,0,1-7.3-25.7,119.36,119.36,0,0,1-1.53-12.93c-.26-4.46-.05-9,1.91-13.12.17-.36-.56-.33-.69-.06a43.23,43.23,0,0,0-1.41,34.39c.12.3.77.13.72-.19a87.64,87.64,0,0,1,3-37c.09-.31-.65-.23-.73.07Z"/><rect class="cls-1" x="10.97" y="20.6" width="186" height="60.06" rx="14.79"/><path d="M15.62,73.27l-4.73-1.41c-.13,0-.79.16-.56.35,11,9.09,26.63,7,39.82,5.72,18-1.69,36.17-2.5,54.29-2.51q26.87,0,53.67,2.26c4.26.35,8.51.82,12.76,1.16a41,41,0,0,0,10-.16A17,17,0,0,0,189,75.19a17.45,17.45,0,0,0,5.17-8.36,49.91,49.91,0,0,0,1.33-21.64,55.45,55.45,0,0,0-7.27-20.55,52.34,52.34,0,0,0-3.08-4.58c-.15-.21-.85,0-.67.28a55,55,0,0,1,10.23,40.89,27.89,27.89,0,0,1-3.32,10.34,14,14,0,0,1-8.55,6.28,32,32,0,0,1-10.38.66c-3.89-.24-7.76-.71-11.64-1.05Q135.2,75.22,109.42,75T58.13,76.83c-7.58.6-15.17,1.63-22.78,1.76-6.8.12-13.88-.54-20-3.76A26.48,26.48,0,0,1,11,71.92l-.55.35,4.73,1.41c.23.07.85-.29.44-.41Z"/><path d="M181.71,24c3.28.48,5.39,3.2,6.74,6a49.5,49.5,0,0,1,3.24,10.3,93.08,93.08,0,0,1,.86,38.35c0,.21.67.09.72-.11,3.68-15.87,7.51-33.7-1.16-48.7A29.53,29.53,0,0,0,184.28,21c-.11-.09-.79,0-.7.22A102.29,102.29,0,0,1,191.3,45c1.36,7.14,2.69,15.28.42,22.37a15.39,15.39,0,0,1-6.84,8.69c-3.39,2-7.31,2.91-11.14,3.65a125.93,125.93,0,0,1-25.57,2C131,81.48,114.05,78.82,97,77.87a170.39,170.39,0,0,0-25.26.31C62.82,79,53.93,80.39,45,79.89c-7.42-.42-14.55-2.31-20.7-6.58-5.24-3.64-9.65-8.91-11-15.28a19.54,19.54,0,0,1-.39-4.64c0-.16-.72,0-.73.19-.37,13.8,13.07,23.5,25.43,25.82,8.71,1.64,17.61.8,26.34-.13A197.46,197.46,0,0,1,91.8,78c17.7.62,35.25,3.46,53,4a134.88,134.88,0,0,0,25.64-1.37c6.71-1.07,14.73-2.45,19.26-8.07s4.27-13.45,3.51-20.19a101.11,101.11,0,0,0-6.32-25.44c-.78-2-1.64-4-2.54-5.93l-.7.23c13.06,9.83,14.4,27.64,12,42.53-.79,5-1.94,10-3.09,14.95l.72-.11a93.41,93.41,0,0,0-.75-38,50,50,0,0,0-3.42-10.9c-1.42-2.88-3.59-5.52-6.94-6-.18,0-.83.28-.45.33Z"/><path d="M13.71,27.66l-3.77,7.5.72-.15a15.55,15.55,0,0,1,6.79-13.29H16.8L11.28,32l.72-.15c-.11-5.12,4.4-8.32,8.7-10,5.38-2.15,11.5-2.75,17.23-3.31,13-1.27,26.1-.62,39.11.05s26,1.36,39,.38,26.14-3.37,39.32-3.36c12.89,0,26.24,2.43,36.89,10.1l.56-.32a394.83,394.83,0,0,0-77-5.4c-13.06.36-26.09,1.62-39.16,1.3C65.19,21,54,18.8,42.57,18.05c-11.08-.73-22.55.14-32,6.51-.24.16.1.24.23.22q35-5.34,70.22-8c23.23-1.72,46.56-2.63,69.85-2.46,12,.09,24.4.86,35.5,6l.44-.35-62.52-3.05c-.17,0-.76.33-.37.37l51.29,5.44a14.29,14.29,0,0,1,5.65,1.35c1.45.8,3,2.32,1.92,4-.16.26.55.17.67,0,1.58-2.46-1.56-4.35-3.57-5a25.65,25.65,0,0,0-5.45-.83l-6.69-.71L140,18.58l-15.61-1.66-.37.36,62.52,3c.1,0,.72-.21.43-.35-9.59-4.4-20.19-5.61-30.64-5.91-11.61-.34-23.25-.05-34.85.3q-35.42,1-70.69,4.85-20,2.16-39.86,5.2l.23.22c9.14-6.15,20.29-6.94,31-6.23s21.44,2.74,32.25,3.14C87,22,99.65,20.87,112.3,20.41q18.74-.69,37.5.43a394.53,394.53,0,0,1,42.53,4.86c.09,0,.77-.16.57-.31-21.21-15.27-48.74-9.41-72.77-7.16-13.78,1.29-27.56.72-41.35,0-13.4-.69-26.87-1.41-40.27-.15-3.79.36-7.58.87-11.32,1.59A34.87,34.87,0,0,0,19.48,22c-4.17,1.87-8.31,5.11-8.2,10.1,0,.25.65,0,.72-.15l5.52-10.27c.13-.23-.59,0-.64,0A15.83,15.83,0,0,0,9.94,35.2c0,.25.65,0,.72-.15l3.78-7.49c.08-.18-.62-.11-.73.1Z"/><path d="M192.79,68.24c-21.44,9.46-44.84,13.25-68,15.43-22.85,2.15-46,2.5-68.79-.91a180.59,180.59,0,0,1-37.31-9.62l-.58.27,53.85,2.84c.15,0,.82-.26.47-.28L18.55,73.12c-.09,0-.69.22-.58.27C39.79,81.68,63.11,85.1,86.36,85.54a332.91,332.91,0,0,0,34.89-1.3A333.41,333.41,0,0,0,156,79.6a174.21,174.21,0,0,0,37.18-11.28c.43-.19-.25-.16-.42-.08Z"/><path class="cls-2" d="M63.68,36.17l1.59-1.68h.17l.06.24.56-.47.41.47.23-.24c1.43,1.25,2.38,1.88,2.87,1.88h.57v.38l.14,0,.24-.08a1.53,1.53,0,0,1,.1.5,5.22,5.22,0,0,1,1,1.29l1.13.76v.14l-.13.06c.11,0,.35.31.75.94l.74.47h.14v.27l.12.29-.12.2c.16,0,.28.18.35.55l-.11.25v.14a1,1,0,0,1,.37.61l-.26.7A5.21,5.21,0,0,0,77,46.44l.36-1.4-.15-.49.09.06h.15L78,43.32a5.07,5.07,0,0,1,.69-1.39l-.07-.18a1.11,1.11,0,0,0,.17-.75h.09l-.09-.06v-.06l.09-.06v-.06l-.19-.24a1,1,0,0,0,.43-.73c.3,0,.59-.29.85-.87.39-.08.59-.22.59-.42A2.57,2.57,0,0,1,81.29,37l.3-.49.47-.74-.26-1,.09-.06H82l.06,0,0,0a1.79,1.79,0,0,1,.74-.38c.26,0,.48,0,.67.08l.35-.08c2,.07,2.93.32,2.93.73v.06a.82.82,0,0,0-.62.37q-.78,0-.78.18c.21,0,.36.16.48.48l-.48.75c.16.77.41,1.15.78,1.15l-.14.18.14.37-.14.06v.06c.3,0,.44.29.44.87-.29,0-.44.18-.44.54l-.16.06h-.17l.33.25-.47.36.14.42h-.14l.14.08v.06l-.14.06.31.55-.31.12.47.73-.33.73.17.38-.17.36.17.36c-.24.12-.4.42-.48.92l.17.18-.47.38.14.3-.46.73.17.36v.19l-.17.06.17.06V48l-.32.18.15.26h-.15l.47.61-.32.72.17.07v.06l-.17.06V50l.17.18-.32.12.61.5-.14.06v.06l.3.49a.27.27,0,0,1-.3.3l.61.55a.81.81,0,0,0-.31.67l.17.32-.17.06v.06l.48.42v.12l-.17.06c.11.28.57.56,1.38.85l.18.31h-.18l.18.06c-.15.49-.36.74-.62.74l.15.49-.45.67h.3l-.17.06v.3l.17.26-.3.91c0,.19.42.68,1.27,1.46v.06l-.82.66.15.07V61c0,.18-.2.35-.6.5l.13.06-.13.3.6.85v.25l1,.12v.18l.17.26-.64.76-2.38-.51-.24.51-.11.27a1.52,1.52,0,0,1,.58.42L79.87,65a1.58,1.58,0,0,1-.54-.32c-.11,0-.23-.12-.35-.36.07-.62.3-.93.68-.93-.07-1-.18-1.46-.33-1.46v-.18l.09-.06-.09-.06v-.12l.32-.78-3.33.35c0-.15-.33-.34-.85-.57l.26,0,.09,0a.58.58,0,0,0,0-.41,1,1,0,0,1-.35.06l.09.3c-.13,0-.24.14-.33.43l-.46.06-.59-.37h-.76l-.09-.06-.42.12a2.1,2.1,0,0,1-.67-.85l.08-.18c-.2,0-.43-.38-.7-1.15-.15,0-.49-.55-1-1.66l.08-.06-.35-.42.09-.06c-.1,0-.25-.39-.43-1.17a2.75,2.75,0,0,0-.76-1,.54.54,0,0,1-.18.48l.18.12-.09.31v.8l-.09.06.09.06v.06l-.16.49q.18.48.42.48l-.26.55v.18c0,.09.09.14.26.14l.09.06v.06l-.09.43.18.6-.18.55.09.06-.09.24.26.73c-.1,0-.21.12-.33.37l.33.74-.26.48h.09l-.26.37a1.38,1.38,0,0,0,.85,1.17l.34.36v.25a.83.83,0,0,0-.5.3,2.52,2.52,0,0,1-1.11.36l-.08-.06h-.09l-.36.06h-.09l-.08-.06H68q0,.15-.69.18L67.26,65h-.09l-.26.06L66.82,65l-.06.06v.07L66.67,65h-.26a1.47,1.47,0,0,0-.85.25h-.35a2.27,2.27,0,0,1-.54-.26.55.55,0,0,1-.23-.29.83.83,0,0,1-.56-.17L63,65a.82.82,0,0,1-.41-.35c-.84,0-1.33-.21-1.47-.64v-.42l.33-.22-.48-.22A4.09,4.09,0,0,0,62,61.8h.17L62,61.72l.79-1-.14-.38c.07-.32.17-.48.31-.48l-.17-.08v-.85l.17-.06-.17-.07.5-2.2-.18-.44h.18L63.15,56l.18-.21-.18-.42.33-.29-.65-.93a1,1,0,0,0,.32-.79h-.32V53L63,53l-.17-.08v-.06l.17-.58-.31-.13.31-.22-.31-.28.14-.28h-.14l.14-.07v-.08l-.29-.36c.19,0,.29-.07.29-.22l-.14-.07.31-.64-.17-.07v-.07l.32-.92L63,48.53v-.08l.15-.78L63,47.59l.15-.5v-.78l.18-.71-.18-.08.33-.15-.33-.5.18-.06v-.07L63,44.31l.15-.08h.18l-.18-.07V44l.18-.07L63,43.67l.15-.21L62.83,43l.17-.22-.17-.07v-.09l.17-.29v-.06l-.17-.08v-.07H63l-.31-.35h.14l-.14-.08.14-.21-.14-.5.46-2.92L63,38l.33-1-.5-.35.5-.36-.08-.16Zm1.15,3.71,0-.09H64.8Zm0,.51,0,0,0,0Zm1.29,22.73q.09,0,.09.18l.09.06h.09l-.09.06v.14a.41.41,0,0,1,.11.07.43.43,0,0,1,.15.29l.09-.06h.24l.18.12V64c-.28,0-.42.07-.42.19l.24.12h.26v-.12h.09v.12h.24c.17,0,.34-.29.54-.85l-.1-.08c.11,0,.2-.12.25-.36L68.11,63v-.06l.08-.31-.08-.18h.08l-.08-.06V62l.08-.54-.08-.06V61.3l.08-.51-.08-.18.08-.06-.08-.24.08-.43L68,59h.07L68,59v-.12l.07-.24-.42-.91c.17,0,.25-.13.25-.38s-.1-.43-.18-.43a1.46,1.46,0,0,0,.35-1.15v-.36l.08-.06-.08-.08v-.37l.08-.06-.08-.06.08-.24L68,54l.07-.67v-.31l.08-.06-.08-.07v-.61H68l-.28.12h-.07l-.1-.06H67.5l.19-.55q-.59,0-.87-1.29v-.12c0-.19.58-.39,1.73-.6l.09.06.76.86c.14,0,.31.12.52.37-.09.36-.18.54-.26.54l.08.06v.12a.73.73,0,0,0-.25.55l.09.06h.08l-.08.06v.12c.17,0,.3.26.41.75a.68.68,0,0,1,.69.54H70.6c.72,1.41,1.2,2.12,1.46,2.14,1.18.89,1.77,1.57,1.77,2l.19.55h.25A1.52,1.52,0,0,0,75,57.5v-.24h.18v.18l.24-.24L75.32,57A3.43,3.43,0,0,1,76,55.44l-.09-.06v-.06l.25-.69H76l-.18.24-.44-.12-.06.06h-.09L75,54.75l-.09.06-.19-.12-.07.06h-.09c-.29,0-.43-.11-.43-.18l-.07.06h-.19l-.06-.06q-.18,0-.18-.42c-.17,0-.26-.06-.26-.19h.17l-.08-.06v-.06l.26-.12-.09-.06c.08-.44.19-.67.33-.67l-.15-.5c.07-.2.15-.3.25-.3a2.1,2.1,0,0,0-.13-.26,4.66,4.66,0,0,0-.89-.77l.09-.06V51a5.63,5.63,0,0,0-1.2-1.54l-1-1.09a3.79,3.79,0,0,1-.59-1.29h.06l-.06-.06.06-.31a1.21,1.21,0,0,1-.25-.6l.09-.26c-.09,0-.2-.26-.34-.79l.09-.06V45a4.1,4.1,0,0,0-1-1.9,2.7,2.7,0,0,0-1.05-1.46L66.91,40l-.24-.42v-.07h-.09c0,.08-.14.21-.43.37l-.23.51v0l.08.06v.06l-.26.36.42,1-.07.67.07.06-.07.06H66l-.26-.12h-.17v.12l.08.3h-.08l.26.3-.18.13.09.44-.08.06.08.06h.09l-.06.12c.1.17.21.35.33.53-.07.32-.17.49-.32.5l.15.08v.06l-.07.18.06.11-.09.18.27.41-.17.06.17.21a1.22,1.22,0,0,1-.06.35c.08.26.18.53.29.8s-.09.43-.17.43l.08.06v.06l-.08.32.17.42-.09.07.09.18a6.82,6.82,0,0,1-.59,2l.18.36-.09.06v.06l.09.06v.06c0,.29-.11.43-.18.43l.09.3V53a4.38,4.38,0,0,1,.44,1.15c.21,0,.32.17.32.5a1.75,1.75,0,0,0-.31.41c0,.2.1.43.14.67.11,0,.17.14.17.42a3.06,3.06,0,0,0-.35,1.28l.18.12-.18.2v.18c0,.56-.08.9-.24,1v.37l.09.24-.09.06v.06l.09.24H66l.09.06V60l-.26.24.09.06v.55l-.09.38.26.78-.09.19.09.18-.09.06.16.12-.07.49h.18ZM76.6,53.6l-.1.49.1.06h.07a.61.61,0,0,1,.26-.43Zm3.93,1.9.47.29h.2l-.32.12-.16.17-.24,0,0,0-.09.3.09.3h-.09l.09.06v.37l-.09.06.09.06v.06l-.09.24a2.13,2.13,0,0,1,.68,1c.24,0,.35.08.35.18v.3a1.53,1.53,0,0,1-.16.79l.07.06h.09l-.25.85.45.13V61l-.11.06.26.5c-.15.65-.32,1-.51,1l.07.24-.07.25c.11,0,.16.08.16.24h.2a.78.78,0,0,0,.18-.11.64.64,0,0,0,.23-.26l.09.07h.09c.33,0,.58-.57.76-1.7V61l-.17-.85L83,60l-.17-.13.1-.24-.1-.18.34-.18-.09-.19.09-.18-.34-2.26.1-.42-.1-.06h-.09c.05-.29.11-.43.19-.43a1,1,0,0,1-.35-.62h.07l-.32-.85.06-.06-.15-.49v-.18h.15V53.3l-.06.06h-.09V53.3l.09-.19-.18-.62.09-.06-.18-.67.18-.12L82.06,51v-.18l.09-.68L82,49.62l.08-.48L82,48.65l.41-2.5L82.33,46l.16-.37v-.67l.09-.37-.09-.18.16-.12v-.12l-.07-.3.07-.38L82.49,43l.16-.12-.07-.43.25-2.87-.18-.3.18-.56-.09-.18h.09l-.09-.06v-.55l-.09-.24.09-.06v-.06l-.09-.67a.23.23,0,0,1-.13,0,.31.31,0,0,0-.06.21l-.17.06-.23-.2V37L82,37.1c0,.32-.11.49-.33.49v.18l.24.24v.06h-.18V38c-.09,0-.21.12-.35.36h-.07l.16.25c-.11.07-.19.52-.25,1.35l.09.06V40l-.09.06v.06l.09.24a1.55,1.55,0,0,1-.78.55,1.44,1.44,0,0,0-.59,1.35l-.17.12v.43L79,44.61l-.09.73.09.06v.06c0,.15-.3.39-.87.75a.33.33,0,0,1,.28.36c-.15,0-.28.29-.37.85l-.07.06V48L77.52,49l.08.42L76.93,51l-.09.55H77v.24l-.26.43a1.72,1.72,0,0,1,.44.8h.15l.09-.5-.09-.18c.1,0,.19-.1.26-.3h.27V51.7c.14-.52.31-.79.52-.79v-.32q.18-.08.18-.72l.85-.49v-.12h.09l-.09-.18a1.18,1.18,0,0,0,.33-.61h.17a2,2,0,0,1-.41,1h.15l.35-.12c.4.1.59.18.59.24l.09-.06h.08a.55.55,0,0,1,.59.55,1.15,1.15,0,0,0-.5.8c-.17,0-.26.08-.26.25a3.88,3.88,0,0,0-.42,1.45c.07.2.3.38.68.56l.43.61-.19.18.1.06V54c0,.08-.15.12-.43.12l-.08.24.08.06v.06l-.12.12.27.18-.15.06-.27,0c.12,0,.14.14.07.36l.12.13C80.69,55.44,80.64,55.48,80.53,55.5Zm-3.6-2.08-.18.12v.06h.09l.26-.06Zm2.61,3.5-.15.1-1.17.31c-.54.79-.38,1.31.47,1.57l.67.62.2.38-.44.27h-.19c-.18.19-.09.34.26.43l.12,0,.34.09.1-.24-.09-.24c.11,0,.17-.06.17-.18l-.08-.25.08-.06-.08-.3v-.55l.08-.6c-.12,0-.21-.11-.26-.31l.18-.12Zm4.8,2.13.13-.14-.21-.73-.06.43A1.3,1.3,0,0,0,84.34,59.05Zm.12.23h0l-.06-.05A.12.12,0,0,1,84.46,59.28Zm5-23.71h.09l.17.12V36l-.26.18a.33.33,0,0,1-.25-.36v-.06Z"/><path class="cls-2" d="M95.72,36.81a1.58,1.58,0,0,1,.71-.15l.25-.08c0,.16.42.31,1.26.47L98,37h.08l.64.15.39-.08c.31.09.47.16.47.23l.08-.07h.07l.72.47V38a.84.84,0,0,0-.32.71v.23l.17.24-.32.39c0,.17.07.25.22.25l.1.07V40c0,.15-.11.23-.32.23l.32,1.42-.17.16v.86l-.08.09.08.08c-.07.52-.15.79-.23.79l.23,1.26-.08.07H100a1.77,1.77,0,0,0,.39,1.11,2.64,2.64,0,0,0-.47,1.66h-.08l.16.39-.08,2.2.08.08v.09a11.27,11.27,0,0,0-.64,2.35l.09.32-.09.08v.09l.17.62-.08.08.08.09v.07l-.08.08v.07c.1,0,.18.22.23.64a6,6,0,0,0-.4,1.66c.16,0,.25.2.25.47h-.08l.08.07v.08l-.08.07.08.09-.25.87.08.32-.15.7.07.09v.07l-.07.08v.08l.07.07v.08l-.23.86a2,2,0,0,1,.31.87l-.23.24.08.23-.16.17.08.31.32-.31-.17-.4.08-.08h.17v.63a5.5,5.5,0,0,0-.32,1.82l.15.39a.55.55,0,0,1-.62.63c0,.16-.11.24-.32.24l-.08-.08h-.07l-1.19.4v-.09l-.07.09h-.17l-.47-.25-.08.08-.07-.08L96,65.35v-.08l-.07.08-.4-.08-.24.08a1.27,1.27,0,0,1-1.18-.82l-1,0-.24-.15.12-.19a.7.7,0,0,0-.5-.34l-.12.06.12.06v.06l-.24.29H91.9v-.13h-.13v.13l.52.4c-.06.14-.23.23-.52.28l-.24-.21.12-.2q-.21,0-.51-.48l.39-.35c-.26,0-.47-.21-.64-.62l.25-.18-.5-.5c0-.09.12-.13.38-.13l-.38-.27.25-.68h-.25l.25-.61-.15-.35H91v-.27h-.28l-.1.41h-.13l-.12-.22.35-.34-.1-.06.1-.22-.1-.33.1-.53-.1-.08v-.07l.1-.2-.1-.9h.1L90.51,57l.13-.82-.13-.08V56l.23-1.24-.1-.34L91,53l-.13-.21.13-1-.13-1.15.13-.08v-.06L90.64,50v-.43l.1-.06-.1-.21.1-.06-.23-1,.23-.34-.1-.07h-.13l.13-.06-.25-1.17.12-.22-.27-.13.15-.06v-.06c-.42,0-.63-.07-.63-.22a.73.73,0,0,0,.24-.62h.12L90,45.19v-.07l.12-.08V45l-.24-.62.12-.07v-.07l-.12-.06v-.08l.12-.25-.24-.35.12-.63a.7.7,0,0,0,.63-.33l.87.06h.27c.21,0,.33-.16.37-.49L91.9,42V42a2.08,2.08,0,0,1,.51-1v-.06l-.12-.07v-.08l.23-.12v-.14l-.11-.35.38-.21-.15-.27.15-.41-.15-.06v-.08l.15-.06V39l-.62-.47.12-.07v-.08L92,37.84a1.41,1.41,0,0,0,.89-.53L92.79,37l.34-.19Zm-4.1-2c.36.64.59.95.72.95V36l-.4.47L92,37v.07c-.15.1-.29.65-.4,1.66l.17.39c-.08.22-.16.32-.24.32h-.08V35Zm2.72,26.83.12-1.21-.07-.08v-.09c0-.36.09-.54.16-.54l-.09-.23-.07-1.58h.07l-.07-.07c0-.79.09-1.19.16-1.19l-.09-.07v-.08l.09-.49L94.46,56l.09-.4v-.22L94.46,55l.09-.08v-.09l-.09-.08.09-.54v-.08l-.09-.47.09-.48L94.46,53l.09.07h.08V52.9h-.17v-.32l.24-1.11-.07-.22L94.7,51q-.15,0-.24-.72l-.39.25a1.21,1.21,0,0,1-.52,1l.24.15-.48.75.24.13c-.22.51-.39.76-.52.76l.13.06v.08l-.25.48.12.2-.12.43V55l.4.41-.15.27.15.08.64.68-.64,1.45v.19H93v.15h.28l-.15.47.15.07h-.15c.28,1,.58,1.47.91,1.5v.13h-.28l.5.55-.34.28.12.07v.06l-.12.08v.12h.12v-.12h.22v.06l-.12.06v.07Zm0-12.49a1.09,1.09,0,0,0,.17-.62v-.71l.09-.08-.09-.07v0l-.29.47.12.06-.12.68v.21Zm.29-2,0-.22-.08-.08c.07-.95.15-1.43.23-1.43l-.08-.07v-.08l.08-.07v-.1h0l-.34.18.15.06v.08l-.15.41.15.29-.15.19.15.34-.15.27Zm.15-2.38,0-.18h-.07ZM95,42.46a2.18,2.18,0,0,0,.06-.52L95,41.87v-.09a2.74,2.74,0,0,0,.15-1v-.94l-.36,1,.24.89-.12.22.12.06V42l-.24.22Zm1.56-2.81v.17l.08.38-.25,1A7.52,7.52,0,0,1,96.68,43l-.32.31.15.25v.94l.17.24V45a1.79,1.79,0,0,1-.4.79A3,3,0,0,1,96,46.91c0,.43.13.69.39.79a1.26,1.26,0,0,1-.31.78c.16,0,.4.48.71,1.42h-.08l.08.07c0,.69-.21,1-.47,1l-.55.72v.07l.55.87-.15.32.07.07v.08l-.24,1v.15l.32.47V55q0,.54-.15.54a3,3,0,0,1,.22,1h-.07l.07.07V57l-.15.23.08.24-.24.4.09.31-.17,2,.17.24v.08l-.09.3.16.72-.16,1,.09.23-.09.32a2.35,2.35,0,0,0,1,.47l.32-.24v-.08a.83.83,0,0,1-.25-.54h.17c0,.21.08.31.23.31a1.3,1.3,0,0,1,.47-.95L98,61.87h.25l-.09-.07v-.08l.16-1-.07-1v-.55l.07-.07-.07-.24h-.17l-.08.31h-.07v-.71a1.1,1.1,0,0,0,.15-.71c.26-.06.39-.14.39-.23v-.71L98.33,56l.08-.07c-.17,0-.28-.29-.32-.87l.39-2-.07-.08V53l.15-1-.08-.23.17-.17v-.23l-.09.08h-.15l-.15-.15.22-.17.08.08h.09l.15-.55-.07-.08.07-.39V49.5l-.07-.3A6,6,0,0,0,99,47.3a2.42,2.42,0,0,0-.31-1.18c.1,0,.17-.22.22-.64l-.07-.87.07-.22-.07-.08v-.09l.16-.3L99,43.83l.09-.4L99,43.2l.25-2.76-.08-.32h.08L99,39.33l.08-.07v-.08c-.23-.69-.55-1-1-1L98,38q-.32.07-1.26,1.65Zm1.66,18.29v.47h.07v-.47Zm4-24.12h.3V34h-.3Z"/><path class="cls-2" d="M102.72,39.88l.06.06V40l-.06.07h-.08l-.06-.07v-.07l.06-.06Zm20.26-3,.12-.11,0-.15,1.62.12v0l.12.06v.06l-.38.4.61,1.06-.09.71.09.08-.09.06h-.14l-.38-.14h-.26v.14l.12.32h-.12l.38.33-.26.14.14.47-.14.06.14.06h.12l-.12.2.12.59-.12.34.12.25h-.12l.26.32-.14.2a5.66,5.66,0,0,0,.74,2c0,.31-.13.46-.25.46l.13.07v.06l-.13.35.25.46-.12.06.12.2a5.69,5.69,0,0,1-.86,2.11l.26.39-.14.06v.06l.14.06v.08c-.07.3-.16.46-.26.46l.12.31v.87l-.26.14.4.31-.14.08.14.2-.14.06v.06a3,3,0,0,1,.88,1.79c.17,0,.26.15.26.46a2.46,2.46,0,0,0-.52,1.36l.26.14-.26.21v.2c0,.6-.12,1-.36,1.11v.38l.14.27-.14.06v.06l.14.27h-.14l.14.06v.06l-.4.26.14.08v.58l-.14.41.4.85-.14.19.14.18-.14.08.23.12-.09.59c.15,0,.22.07.22.2l.12.06h.14l-.14.08v.13l.16.1-2.6,1.47a.68.68,0,0,1-.33-.32,1.66,1.66,0,0,1-.32,0v.08a4.55,4.55,0,0,1-1,.85h-.08l-.26-.07-.06.07h-.06l-.27-.14v.06h.1l-1.16.38V64h-.09l-.15-.27a1.66,1.66,0,0,1-.59.08,1.37,1.37,0,0,1-1.32.84L117,64.5l-.46.13c-.53-.37-.79-.74-.79-1.1h-.06l.2-.73-.14-.12.06-.08-.06-.06v-.06l.2-.4h-.06c-.13,0-.2-.08-.2-.25a1.18,1.18,0,0,1-.45-.79l-.08-.06.08-.2-.28-.26V60c-.09,0-.26-.25-.51-.73-.16,0-.26-.2-.32-.58-.09,0-.14-.13-.14-.39h-.14v-.08H114v-.06a.49.49,0,0,0-.33-.46l-.46-1h.08L112.72,55l-.21-.38h-.11l0-.21-.38-.24,0-.11,0,0-.34-.2,0-.11.06,0h-.09l-.08-.1,0-.1-.27-.09,0-.22L111,53l0-.21h-.11l0-.06-.09-.24,0-.05h-.1l0-.06.06-.05-.31-.15,0,0-.08,0-.07-.18-.31-.3-1-1.66-.28.72c0,.26,0,.39-.13.39l.39,1.31-.26.33.12.2v.18l-.06.07v.07l.2.13-.06.06v.06l.06.2-.14.59.14.46-.06.2.38.71h-.06l.26,1-.13.71a8.71,8.71,0,0,1-.27,2l.08.06v.08l-.08.06v.06l.08.08v.06l-.08.32.08.27h-.08l.4,2.22c.23,0,.43.39.59,1.18a.72.72,0,0,1-.52.32c-.55.52-.95.79-1.18.79v-.08c-.27.05-.4.16-.4.34-.3,0-.45-.08-.45-.14l-.59.27-.13-.13h-.53a1.08,1.08,0,0,1-.65-.26c-.18,0-.31-.31-.38-.93.1-.3.19-.45.26-.45l-.08-.07v-.25l.08-.26-.08-.27c.13,0,.2-.22.2-.66l-.12-.57.06-.28-.06-.25.06-.07V60.7l-.06-.59.06-.07c-.09,0-.18-.61-.26-1.81l.06-.06-.06-.06v-.46l.06-.07v-.06l-.12-.13v-.53l-.07-.25.07-.07v-.07l-.14-1.37H105l-.13-.91.06-.27c-.13,0-.19-.28-.19-.85l.06-.06-.12-.12v-.08h.12l-.06-.06v-.06l.06-.4-.2-.39.08-.06h.06l-.06-.08V51.7l.06-.06v-.07l-.14-.32.14-.2-.06-.06v-.85l-.14-.26.06-.07v-.07l-.06-.25h.06l-.06-.08.06-.52-.06-.25.06-.08V48.5l-.12-.46.12-.71-.06-.08.2-1.88-.06-.19.06-1.51h.06l-.06-.07V42.29l-.14-.39.08-.19-.08-.07v-.06l.2-.53-.06-.06v-.32l.06-.08-.32-1.88c0-.08.15-.21.45-.4l.07-.19-.26-.34v-.32q0-.39.33-.39l-.14-.14h-.06l-.07.08c-.57-.3-.85-.63-.85-1a2.2,2.2,0,0,1,.59-1l.2.06.26-.39h2l.15-.11v0h.11l0,0v0a.93.93,0,0,1,.48.5l.06.08h.08l.06-.08H108l.2.08.33-.14.12.14.46-.59h1.64v.06l-1,1.44a1,1,0,0,1-.77.46l-.08.19-.06-.06h-.2a.57.57,0,0,1-.13.08l.06,0-.06.06.36.09,0,.22.33.3v.11h.09l.06-.05.06.2.4.41.13.3.22.14-.06.06.31.15.05.2A7.15,7.15,0,0,0,112,40.35q.22.38.15.45h.09l0,.05.15.32.38.24v.11l.18.1a8.67,8.67,0,0,1,.83,2l.35.19v.11l0,.05h.1l0,0c.16.26.21.42.16.47l.25.2.51.67,0,.19.37.11,0,.09.17.11v.1l0,0a3.38,3.38,0,0,1,1.45,1c.07-.06.2,0,.38.25a3.8,3.8,0,0,0,.58,1.26h.2v.28l.12.15a3.51,3.51,0,0,1,.33.49v-.2l.06-1-.06-.79.06-.57-.06-.08v-.06l.06-.06V46.6l-.26-1.42h.08l-.08-.08V45l.08-.08v-.06l-.14-.12.14-.67-.08-.57.2-1.39-.06-.06V42l.12-.26-.06-.07.06-.46v-.71l.27-1.5-.07-.08v-.06l.07-.39-.07-.06v-.07l.07-.25-1-.2v-.27l-.07-.66.67-.45.12.14c.22-.14.33-.29.33-.46h.12a1.6,1.6,0,0,0,.85.39l.06.07a2,2,0,0,1,.85-.34v-.06l.34.06.45-.12.59.26.2-.06a.58.58,0,0,1,.46.26H123l-.06.19ZM106.3,39.23c0,.24-.17.48-.51.71a.61.61,0,0,1-.2.39l.06.54h-.06l.13.37v.2l-.07.08.2.32-.2.53.07.45-.07-.07h-.06v.07l.2.26-.2.91.13,1.31a2.69,2.69,0,0,0-.19.92c.11.61.19.91.26.91l-.07.32v.34c0,.87-.09,1.3-.19,1.3l.19.65-.07.52.07.53h-.07l.2.65-.26.2.06.06v.2l-.06.06V52l.2.18-.07.07.26.46-.06.65.06.06v.08l-.13.32.19.2v.51L106.3,56q-.27,0,.09,1.65a4,4,0,0,1,0,2.44,4.8,4.8,0,0,1,.25,1.24v.26l-.06.07a2.57,2.57,0,0,1,.32.92h-.06l.2.51.39-.18.58.06h.2l.06-.06h.07l-.07-.08v-.12l.07-.07v-.06c-.08,0-.14-.2-.19-.6l.06-.06h-.12v-.13l.06-.07-.06-.06v-.13l.06-.06-.14-.53.08-.32-.2-.4.06-.06-.06-.07V60l-.27-1.61.07-.06v-.08l-.13-.52.06-.06h.07l-.13-.19c0-.57.1-.85.19-.85l-.06-.07v-.13l.06-.06v-.08l-.13-.12.07-.33-.13-.13.06-.07-.13-.4h-.06c0-.3,0-.45.13-.45l-.13-.58.13-.13V54l-.07-.28.07-.26v-.12l-.13-.2V53l.06-.26-.13-.33.07-.26c-.07-.17-.13-.26-.19-.26l.06-.65v-.59l.06-.07-.12-.59c0-.21,0-.32.12-.32a6.25,6.25,0,0,0-.4-1.89l.08-.26v-.14l-.27-1,.27-.92-.08-.06v-.06l.14-.33L107,44.9v-.32c0-.09.07-.13.2-.13l-.12-.2.06-.26-.14-.32H107L107,43.6v-.2l.08-.26-.14-.39v-.52l.06-.06-.06-.08V42l.14-.39h.06l.14,1.24h-.14V43a3.43,3.43,0,0,1,1.5-.59l.14.12h.06l.12-.12-2-2.42-.26-.13.07-.06v-.08c-.09,0-.19-.17-.32-.51ZM107.58,37c-.29.08-.43.18-.43.29l-.06-.06H107l-.14.12v.06l.06-.06H107l.12.13v.07l-.2.19-.19-.06v.4l-.19.25c.13,0,.21.2.26.58a2.64,2.64,0,0,1,.59.85c.13,0,.19.11.19.34.09,0,.37.28.85.85l.07.19a.37.37,0,0,1,.38.4l-.06.06c.24,0,.66.52,1.25,1.56.1,0,.27.35.51.91.18,0,.27.11.27.34.12,0,.22.11.32.33a4.25,4.25,0,0,1,1.25,1.82A3.79,3.79,0,0,0,113.3,48a15,15,0,0,1,2.15,2.55c.41.35.67.52.79.52l.66.59.06-.07.25.39-.06.33.26.4-.06.06v.06c.58,1,1,1.58,1.31,1.58l.06.06v-.06l-.06-.39.19-.86-.07-.07.14-.78-.07-.19.07-.06-.4-.52,0-.11h-.11l-1-1.71-.29-.26,0-.06-.16-.09-.06-.21-.29-.25,0-.3-.75-.45a1.36,1.36,0,0,0-.3-.67l-.12.1-.15-.19v-.11h-.09l0-.05-.25-.45-.18,0v-.24l-.26-.11-.11-.24,0,0V46l0,0-.32-.17q.1-.09,0-.24l-.09,0-.25-.55h-.09l0,0-.38-.76-.22-.15,0,0-.38-.62h-.1l-.2-.41-.42-.55-.34-.56h-.09l0-.21-.39-.26,0-.09-.05-.06-.35-.2,0-.1.06-.05h-.09l-.08-.09,0-.11-.28-.1,0-.2-.35-.2-.06-.21h-.11l0-.07-.1-.24,0-.06h-.09l0,0,0-.05-.29-.16,0-.05h-.09l-.06-.2-.32-.3Zm.54,10.55.12-.08,0,0h.09l0,.05.06.45.49.31c-.08-.26-.18-.57-.28-1l-.12-.39-.45-1.76h-.14l-.06.19.06.06v.06l-.14.26.14.14v.2l-.06.39.26.71-.06.06C108.1,47.36,108.11,47.45,108.12,47.53Zm5.51,6.53.14.09,0,.09.17.1a8.33,8.33,0,0,1,.82,1.95l.35.19,0,.11,0,0h.1l0,0c.14.26.19.42.15.46l.25.19.5.66,0,.19.37.11,0,.09.19.11,0,.09,0,.06a3.31,3.31,0,0,1,1.41,1c.09-.07.21,0,.38.24a3.7,3.7,0,0,0,.57,1.25h.19v.26l.12.15a1.85,1.85,0,0,1,.47.91l.14.23c.35,0,.52-.2.52-.6l-.06-.71c.08,0,.12-.2.12-.59l.2-.14-.07-.06v-.06l.14-.51-.07-.08v-.06l.07-.26v-.06h-.14v-.14c.14,0,.2-.06.2-.19h.06c0-.61-.15-.91-.45-.91s-.34-.35-.34-.79a2.42,2.42,0,0,1-.51-.91.78.78,0,0,0-.46-.26v.45l.14.12-.14.4v.2l.06-.06h.08v.06l-.14.33h.14l-.08.06v.46a1,1,0,0,1,.2.59c0,.13-.17.2-.39.2a.4.4,0,0,1-.38-.26l.06-.08v-.06l-.06-.2.18-.06v-.19l-.06-1.9.06-.06v-.08c0-.91-.27-1.36-.66-1.36a3.68,3.68,0,0,1-1.36-1.9l-1.11-1.31a6.28,6.28,0,0,1-1.44-1.64c-1.48-1.41-2.26-2.54-2.35-3.38a4.46,4.46,0,0,0-1.11-1.38,6.79,6.79,0,0,1-1.11-1.76c-.2,0-.4-.31-.59-.91H109v.06l.19.45-.07.26.07.2c-.09,0-.18.19-.27.59l.08.06-.2.08.32,1.76-.06.06c.15,0,.33.46.53,1.38a5,5,0,0,0,.71,1.23v.39c.18,0,.49.43.91,1.19a5.85,5.85,0,0,1,.91,1.5l.14.12c0,.09.22.27.65.53a4.35,4.35,0,0,0,.6,1.11c0,.13.06.2.19.2Zm-4.2-4.68-.08.06.08.11.24.19-.06,0,.12,0q0-.12-.09-.27C109.57,49.55,109.5,49.49,109.43,49.38Zm9,13-.06-.1-.29-.28.06,0-.17-.09-.06-.22-.29-.24,0-.3-.71-.44a1.45,1.45,0,0,0-.32-.65l-.11.09-.15-.2,0-.09h-.09l0-.05-.19-.36s0,.11,0,.18l-.06.06v.06l.33.53v.38c.39.16.58.38.58.66l.08-.06H117l.19.59h-.06c.11.43.35.65.72.65Zm1.17-23.77.06.4v.2a1.65,1.65,0,0,1-.12.71l.12.79v.06a9.39,9.39,0,0,0-.38,3l.06.08-.14.12v.2l.34.53c-.11,0-.2.24-.26.71l.06.2-.14.78.14.65-.06.19.18.2v.2l-.12.2v.39l.06.65h-.06l.06.07v.13l-.12.2v.39l.12.2-.2.52.2.45v.59l-.06.06.12.4-.12.14.06.06h.06l-.26,1,.08.07v.07l-.14.25.2.46h-.06l.06.08v.06l-.2.65a2,2,0,0,1,.52,1,3.71,3.71,0,0,1,.92,1.43h.06c0-.26,0-.39.14-.39l-.07-.06.07-.46v-.59l-.07-.26.07-.26v-.39l-.07-.26.13-.45-.06-.08.06-.32v-.26l-.13-.2v-.07l.13-.18v-.08l.12-1.31-.06-.06v-.06l.06-.07-.06-.4a2.94,2.94,0,0,1,.2-1l-.06-.07v-.07l.12-.25-.06-.08v-.12a1.24,1.24,0,0,0,.2-.65l-.06-.4.06-.85-.06-.2.06-.25c0-.79,0-1.19-.14-1.19l.08-.32v-1l.06-.06-.06-.08v-.38l-.08-.65h.08l-.2-.4v-.45l.06-.08-.06-.2.06-.25-.06-.06v-.07l.06-.27-.32-1.11.18-1-.06-.07.06-.32-.06-.46.14-.13h-.14l.14-.66-.26-.13c-.75,0-1.12.17-1.12.53Zm2.23,22.18a5.45,5.45,0,0,0,.3-.55h.12l-.12-.06.62-.91-.1-.35c0-.3.13-.45.23-.45l-.13-.06v-.79l.13-.06-.13-.06.38-2-.12-.41h.12l-.12-.2.12-.18L123,54.3l.26-.27-.52-.84a1,1,0,0,0,.26-.74h-.26v-.26l.13-.06-.13-.08V52l.13-.52-.23-.13.23-.2-.23-.26.1-.26h-.1l.1-.07v-.06l-.22-.35c.15,0,.22-.06.22-.18l-.1-.08.23-.58-.13-.07v-.06l.26-.85-.13-.26V48l.13-.73-.13-.06.13-.45V46l.12-.65L123,45.3l.26-.15-.26-.46.12-.06v-.06l-.25-.4.13-.07h.12L123,44v-.12l.12-.08-.25-.26.13-.2-.26-.39.13-.2-.13-.06v-.07l.13-.26v-.08l-.13-.06V42.2h.13l-.23-.33h.1l-.1-.06.1-.2-.1-.46.36-2.7-.13-.06.25-.93-.13-.12a2.59,2.59,0,0,1-.72.58,3.21,3.21,0,0,0-.39,1l.06.26c-.17,0-.26.08-.26.19.17,0,.26.28.26.72h-.06l.12.39a1.8,1.8,0,0,1-.26,1,2.09,2.09,0,0,0,.46,1v.26a2,2,0,0,0-.32,1.12l.06.18-.06.08v.06l.12.53-.06.58.14.39V46L122,46l.14.65-.14.65.08.26H122l.14.59-.06.06H122l.08.06v.08l-.08.18.14.14v.19l-.06.07.12.27-.46,2.15.06.26-.12.91.06.06v.08l-.09.67c.06,0,.13,0,.2.07h.11l.06,0,0,.09.09.12.12,0L122,55.07v0l0,.12-.08.57-.09,0,0,.12.06.26-.06.06.06.2-.06.06.06.33v.26c.19,0,.28.15.28.46l-.08.19.08.06v.08a1.41,1.41,0,0,0-.34.71l.06.4-.06.51v.08l.14.18V60l-.14.19v.26Z"/><path class="cls-2" d="M125.87,62.05l.24.07.07-.07h.07c.38,0,.57.18.57.41l.06-.07H127l.07.21.07-.07h.24l.14.13.32-.06h.06c.31,0,.63.35,1,1-.08,0-.15.14-.2.43-.1,0-.25.14-.44.42-.51.13-.76.27-.76.41l.06.22-.38.48v.58h-1.09v-.23l.32-.62-.06-.08v-.06l.25-.7c-.08-.21-.16-.33-.25-.35l-.38.14h-.06l-.2-.21v-2Zm14-7a3.15,3.15,0,0,1,.17,1c-.13,0-.2.17-.2.38l.06.26-.38,1.4.06.07v.06l-.06.26.12.12-.12.84c.06.41.12.62.18.62l-.06.32.06.26-.12.44.06.07-.06.44v.76l-.06.08.12.44-.12.12v.32c0,.24.22.41.66.52a.94.94,0,0,1,.33.75,2,2,0,0,1-1,1V65.5l-.6.14v-.06l-.06.06-.66-.14-.71.17a.45.45,0,0,0-.58-.11v-.07l-.57.13v-.06l-.07.06-.63-.13-.7.16-.65.17-.82-.33c-.43-.13-.64-.49-.64-1.08a2.3,2.3,0,0,1,.5-.76l.26-.71-.12-.32.06-.06-.12-.13.06-.06-.14-.39v-.06l.08-.38-.08-.2h.08l-.08-.06a2.14,2.14,0,0,1,.2-1v-.06h-.12l.06-.57-.06-.19.12-.12v-.07l-.06-.25.06-.25-.06-.32.06-.2-.06-.06.06-.32v-.12L133,56.44v-.06l.44-1.34,0-.06-.08-.06v-.08l.08-.24-.08-.26.08-.06v-.07l-.14-.25.06-.31-.24-.58.06-.06v-.08l-.06-.18c.12,0,.18-.23.18-.7h.06l-.18-.39V51.6l.06-.26-.06-.24c.11,0,.2-.18.26-.52l-.08-.26.08-.58-.14-.31h.06l-.06-.06.14-.7-.08-.58v-.2l.08-.06-.08-.06v-.06l.08-.32-.08-.32h.14l-.06-.06v-.07l.06-.19-.14-.25.08-.06v-.07l-.08-.51.2-.12-.06-.08V45.6l.12-.18-.12-.14v-.44l.12-.2v-.06l-.06-.25.06-.26V44l-.06-.26.06-.06v-.06l-.06-.32h.06l-.06-.06v-.06l.06-.08v-.06l-.12-.12h.06l-.12-.52.18-.63v-.26a.74.74,0,0,0-.64-.44l-.32.06-.26-.06-.06.06-.12-.12a1.87,1.87,0,0,1-.83.18c0,.16-.34.27-1,.32l-.14.13h-.12l-.38-.13-.77.19v-.06l-.06.06a2.68,2.68,0,0,1-1.08-.31l-.06.06h-.08l-.38-.7-.06-.06c0-.13,0-.2-.12-.2a2.47,2.47,0,0,1,.44-1.08,1.17,1.17,0,0,0-.2-.71v-.06l.08-.06-.08-.06v-.14l.08-.06-.08-.06v-.06l.08-.38-.08-.26h.08a1.42,1.42,0,0,0-.46-.77l-.06-.25.13-.31-.32-.4v-.32c0-.13.26-.26.63-.38h.2l.06.06.06-.06H128l.08.06h.06l.12-.12h.06l.2.15h.1l0,0h.08l2.39-.38c2.66,0,4-.15,4-.47,1.93-.15,2.89-.31,2.89-.47l.9.09,2.33-.16h.94l0,0c.76,0,1.41.07,1.95.13l.35-.15.18.12.14-.12H145l.06.06.79.38,0,.08c.18.09.28.19.28.3s0,.1-.05.15l.35.69v.19a.24.24,0,0,0-.27.26,2.5,2.5,0,0,1-.87.56l.06.32c-.12,0-.18.2-.18.52,0,.89.09,1.33.27,1.33a.54.54,0,0,1,.38.26.44.44,0,0,1,.4.32v.52l-.6.44-.27-.06-.51.25-.79-.13-.07.07c0-.09-.35-.16-1.06-.22l-.09.07-.26-.06-.5.26-.77-.14-.06.08s-.08-.08-.25-.12h0l-.46.26-.07-.07-.46.19.08.07L140,41V41l.14.18-.06.08H140a3.23,3.23,0,0,1,.61,1.08l-.08.06v.06l.14.58c-.07,0-.23.29-.47.89l.08.06v.06l-.08.26.14.38v.14l-.06.57.06.38c-.12,0-.18.28-.2.82l.06.58-.12.58.12.38-.06.31.06.64-.12.58.06.45-.06.06.06.32v1c.13,0,.2,0,.2.12l-.06.2c.07,0,.13.19.18.58l-.18.24.06.32A3.43,3.43,0,0,0,140,54.1l.08.38-.14.52Zm-5.39,0a5.82,5.82,0,0,0,.38,1.47v.25a.57.57,0,0,1-.32.51l.07.06v.14h-.19v.18l-.06.38.18.46-.06.06v.06a17.16,17.16,0,0,0,.58,2.61v.2a6.51,6.51,0,0,0-.58,1.91c.08,0,.13.06.13.18l-.07.32.4.21.06,0c.64,0,1-.25,1-.76l-.14-.52.06-.25v-.13l-.12-.19c.1,0,.17-.3.2-.9h-.2c.06-.33.12-.5.2-.5l-.08-.32.08-.2-.08-.31v-.26l.08-.25-.08-.06v-.06l.08-.07v-.06l-.08-.06v-.07l.08-.31-.08-.06v-.08l.08-.06v-.06l-.14-.58c.13,0,.2-.06.2-.18l-.06-.26.12-.2-.06-.06v-.06l.06-.06v-.07l-.06-.19.06-.06v-.07l-.06-.06a9.68,9.68,0,0,1,.28-1.66c0-.11.07-.22.1-.32l-.06-.19.12-.19-.06-.19.06-.06V54l-.06-.07v-.07l.12-.7-.12-.82h.06l-.12-.39.12-.57-.12-.89h.06l-.06-.06v-.08l.06-.38-.06-.26.06-.25-.06-.32.06-.25-.2-1.47.07-.06-.07-.06.07-.08h.07l-.14-.37.07-.06v-.07l-.07-.06.07-.39-.25-1.2.12-1.35-.44-1.28c0-.47.11-.76.26-.88l-.08-.57.2-.26-.32-1.08c.1,0,.21-.3.32-.89l.26-.14.89.06.38-.12c0,.07.15.13.44.2l.2.18c.12,0,.18,0,.18.13l.08-.07.32.07.31-.07.12.14h.26l.32-.07v.07l.06-.07h.2l.06.07a1.1,1.1,0,0,0,1-.7c-.08,0-.12-.07-.12-.2l.18-.38-.06-.06.12-.71-.06-.19.06-.45h-.06l-1-.24-.89.27-.58.17-.64-.06-.38.12h-.06l-.2-.12-.31.06v-.13l-.32.07c0-.1-.17-.16-.5-.2l-.38.06-.08-.06h-.06l-.18.06v-.06l-.52.13-.06-.07h-.06l-.2.07-.32-.07v.14h-.06l-.06-.07-.07.07-.32-.07h-.25l-.13.13-.58-.13-.18.07-.14-.14h-.82l-.06-.06-.07.06c-.3,0-.44-.06-.44-.12l-.06.06-.64-.06-.26.06-.2-.06-.18.06v-.06c-.13,0-.2.08-.2.26l-.19.06.07.06v.13a3.17,3.17,0,0,0-.52,1.6c-.07,0-.15.14-.25.44L129,39V39q-.15.51-.24.51c0,.24.31.47.95.7h.24l.58-.12.06.06c0-.16.17-.27.52-.32v-.12h.06l.2.06c0-.13.25-.22.75-.26v.07a1.62,1.62,0,0,1,.78-.32l.06.07H133l.26-.07.51.13.38-.06c.85.22,1.28.54,1.28,1l.06.32c0,.1-.17.27-.52.5a2.47,2.47,0,0,0-.5.83c.1,0,.21.22.32.64-.07.51-.16.76-.26.76l.13.58-.13.38c.14,0,.25.34.32,1l-.12.26.06.06v.2l-.06.06.06.06v.08l-.13.44.07.38-.26,1.27.06.2-.06.5.12.45-.12.13.06.25-.06.26v.12l.12.2-.18.44.32.71v.19l-.32,1a.29.29,0,0,1,.25.32l.07.08-.07.06h-.07v.12l-.06.46.06.06-.06.06h-.06l.06.06v.32l-.06.06.06.07v.06l-.06.26Zm8.32-18.74a.85.85,0,0,1-.35.18l.06.32q-.18,0-.18.51c0,.89.09,1.34.26,1.34a.54.54,0,0,1,.38.26.36.36,0,0,1,.32.19,1.12,1.12,0,0,0,.63-.62c-.09,0-.13-.06-.13-.2l.2-.37-.07-.07.13-.71L144,37l.06-.46H144l-1-.24Z"/><path d="M167.77,25.68a119,119,0,0,1,1.17-21.5c.05-.36-.68-.26-.73.06A119.87,119.87,0,0,0,167,25.74c0,.37.75.25.74-.06Z"/><path d="M171.41,25.57l8.5-24.41c.05-.15-.65-.07-.72.12L170.7,25.7c0,.14.64.06.71-.13Z"/><path d="M173.25,28.36c-.57.71-1.45-.51-1.51-1.05a4.39,4.39,0,0,1,.94-2.62q1.45-2.39,3.09-4.67A73.26,73.26,0,0,1,183,11.36c.15-.16-.53-.09-.66,0a74.56,74.56,0,0,0-8.79,10.86c-.64,1-1.27,1.94-1.86,2.94-.45.77-1,1.85-.6,2.76a1.71,1.71,0,0,0,2.78.36c.15-.19-.55-.1-.66,0Z"/><path d="M31,68.41a35.49,35.49,0,0,0-3.6,16.16c0,.15.73,0,.73-.2A35.35,35.35,0,0,1,31.73,68.3c.07-.14-.62-.08-.71.11Z"/><path d="M33.14,68.79V86c0,.19.72.07.72-.19V68.6c0-.19-.72-.07-.72.19Z"/></g></svg>