<svg xmlns="http://www.w3.org/2000/svg" viewBox="0 0 40 40"><defs><style>.cls-1{fill:#fff;}</style></defs><g id="Capa_4" data-name="Capa 4"><path class="cls-1" d="M11.12,19.17l27,2.28-29.32.94,14.81-1a88,88,0,0,0-18.77-1l25.79-1a166.68,166.68,0,0,1-20-.59A76.6,76.6,0,0,1,30,17.52a101.43,101.43,0,0,1-24.52,2"/><path d="M9.92,19.7l27,2.28L39,20.91l-29.33.94-1.6,1.06,14.81-1a3.69,3.69,0,0,0,1.74-.53c.2-.14.59-.44.11-.51a91.06,91.06,0,0,0-19-1,4,4,0,0,0-2,.55c-.37.27-.49.55.14.53l25.8-1a4.06,4.06,0,0,0,2.05-.55c.37-.28.48-.55-.15-.53a169,169,0,0,1-19.74-.58l-1.49,1a76,76,0,0,1,18.74-1.24l1.25-1A100.06,100.06,0,0,1,6.44,19a3.7,3.7,0,0,0-2.05.55c-.4.3-.45.51.15.53A105.39,105.39,0,0,0,29.72,18c.32-.06,2.64-.93,1.24-1a81.37,81.37,0,0,0-20.07,1.39c-.25.05-2.34.92-1.49,1A170.88,170.88,0,0,0,29.64,20l1.9-1.08-25.79,1L3.84,21a89.1,89.1,0,0,1,18.53,1l1.84-1.05-14.81,1a3.31,3.31,0,0,0-1.84.6c-.29.29-.32.48.24.46L37.13,22A4.36,4.36,0,0,0,39,21.51c.17-.09.84-.53.24-.58l-27-2.28a4.17,4.17,0,0,0-2,.39c-.17.09-1,.6-.38.66Z"/><path class="cls-1" d="M11.07,20.26l-2.17.89a73.16,73.16,0,0,0,25.26.68l-30-.27A118.21,118.21,0,0,1,32.42,20a112.21,112.21,0,0,1-30.5-1.6,301.13,301.13,0,0,0,30.58,2.7,165.13,165.13,0,0,1-24-.88,49.45,49.45,0,0,1,21.16-2.13L3.3,18.88q11.52-.42,23,0"/><path d="M10.41,19.36l-2.16.89a1,1,0,0,0,.16,2A75.31,75.31,0,0,0,34,22.94c.64-.1,1.53-.44,1.59-1.21s-.74-1-1.36-1l-30-.26.16,2.16a116.48,116.48,0,0,1,27.53-1.47l.61-2.21A112.31,112.31,0,0,1,2.41,17.35l-1,2.19A307,307,0,0,0,32,22.24L32.62,20a167.22,167.22,0,0,1-23.68-.87l-.21,2.15a48.27,48.27,0,0,1,20.39-2.08L29.73,17l-26.31.75L3.18,20q11.34-.4,22.67,0a1.85,1.85,0,0,0,1.88-.91,1,1,0,0,0-.9-1.29q-11.7-.45-23.41-.05c-1.69.06-2.21,2.28-.24,2.22l26.32-.75c1.31,0,2.4-2,.6-2.21A52.23,52.23,0,0,0,8.17,19.22c-1.07.34-1.83,2-.21,2.14a171.84,171.84,0,0,0,24.43.89c1.31,0,2.39-2.14.6-2.21q-15.34-.59-30.58-2.69c-1.47-.21-2.93,1.82-1,2.19a115,115,0,0,0,30.88,1.61,1.67,1.67,0,0,0,1.54-1.06,1,1,0,0,0-.94-1.15A122.57,122.57,0,0,0,3.84,20.52c-1.58.27-1.47,2.14.17,2.15l30,.27.23-2.23a72.71,72.71,0,0,1-24.88-.66l.17,2,2.16-.9c.58-.23,1.06-1,.67-1.55s-1.39-.5-2-.25Z"/><path class="cls-1" d="M11.12,19.17l27,2.28-29.32.94,14.81-1a88,88,0,0,0-18.77-1l25.79-1a166.68,166.68,0,0,1-20-.59A76.6,76.6,0,0,1,30,17.52a101.43,101.43,0,0,1-24.52,2"/><path class="cls-1" d="M11,19.23l13.48,1.14,6.87.57,3.18.27,1.72.15.73.06h.45c-9.1,0-18.24.58-27.34.88a3.66,3.66,0,0,0-.74,0c-.49.12.49.05.58,0l2-.13L15.6,22l7.9-.52s.27-.09.19-.1a90.32,90.32,0,0,0-18.8-1s-.32.12-.19.11l25.8-1c.05,0,.32-.11.19-.11-5.05.15-10.09.09-15.13-.22L13.15,19c-.27,0-1.8,0-1.94-.16-.32-.06-.21-.1.32-.13l1-.17c.79-.14,1.58-.26,2.37-.37a79.22,79.22,0,0,1,8-.68c1.21,0,2.43-.05,3.65,0,.65,0,1.3,0,1.95.05.35,0,1.73-.13.64.16a56,56,0,0,1-7.85,1.22,102.36,102.36,0,0,1-15.66.59s-.32.1-.19.11a103.55,103.55,0,0,0,24.59-2s.26-.09.12-.1a79,79,0,0,0-19.47,1.33s-.23.09-.15.1q7.31.64,14.65.67c1.22,0,2.44,0,3.66,0,.09,0,1.39.08,1.4-.13,0,0-2.13.08-2.23.09l-7.69.29-7.69.29-3.72.14-1.74.07c-.39,0-1.62-.14-1.94.17.22-.21,1.34-.06,1.69-.07l1.93,0c1.29,0,2.58,0,3.87.06q4,.17,7.91.67l1.91.26c1.32.19-.09.13-.59.16l-4.19.27-8.89.58c-.05,0-.29.11-.16.1L38,21.51s.29-.11.21-.11l-27-2.28c-.06,0-.3.1-.24.11Z"/><path class="cls-1" d="M11.07,20.26l-2.17.89a73.16,73.16,0,0,0,25.26.68l-30-.27A118.21,118.21,0,0,1,32.42,20a112.21,112.21,0,0,1-30.5-1.6,301.13,301.13,0,0,0,30.58,2.7,165.13,165.13,0,0,1-24-.88,49.45,49.45,0,0,1,21.16-2.13L3.3,18.88q11.52-.42,23,0"/><path class="cls-1" d="M11,20.17l-2.16.89c-.12.05-.1.18,0,.2a74.34,74.34,0,0,0,25.29.68c.17,0,.23-.22,0-.23l-20.68-.18-4.92,0-2.47,0a6.43,6.43,0,0,0-1,0c-1.25.15.18,0,.68-.07q5-.81,10-1.18c3.42-.25,6.85-.36,10.28-.31,1.77,0,3.58.24,5.35.19,1.36,0,.18.14.55-.12a4.66,4.66,0,0,1-1.46.11c-1,.06-1.94.12-2.91.16a112.5,112.5,0,0,1-20.34-1Q6,19,4.84,18.85a13.33,13.33,0,0,0-2.4-.42c-.34.38.44.26.65.29l1.23.17,2.95.37q5,.61,10.1,1c3.38.3,6.75.53,10.13.72.63,0,4.42.47,4.52,0-.05.23-4.89.09-5.4.09q-5.27,0-10.53-.33c-1.63-.11-3.27-.23-4.9-.38A13.15,13.15,0,0,1,9,20.21s1.89-.56,2.2-.64A49,49,0,0,1,21.23,18a48,48,0,0,1,5.09,0c.76,0,1.55.17,2.32.17,1.27,0,.2.17.49-.11-.21.21-1.67,0-2,.06l-11.42.32L10,18.58l-2.73.07a18.56,18.56,0,0,0-3,.09c-.67.14-.71.09,0,.22a8,8,0,0,0,1.47-.05l2.94-.07c1.8,0,3.6-.05,5.39-.05q6.12,0,12.22.24c.15,0,.3-.21.1-.22q-11.54-.45-23.08,0c-.17,0-.22.23,0,.22l26.31-.75c.13,0,.24-.2.06-.22A50.41,50.41,0,0,0,8.43,20.16c-.11,0-.19.19,0,.21a168.55,168.55,0,0,0,24.09.88c.13,0,.24-.21.06-.22A307,307,0,0,1,2,18.33c-.15,0-.3.19-.1.22a113.31,113.31,0,0,0,30.54,1.6c.13,0,.25-.2.06-.22A119.4,119.4,0,0,0,4.09,21.46c-.15,0-.14.21,0,.21l28.56.25c.16,0,1.55-.13.79-.1-.55,0-1.12.15-1.67.21-1.11.13-2.22.23-3.34.3a68.77,68.77,0,0,1-7.18.14c-2.38-.07-4.76-.26-7.12-.56-1.11-.15-2.22-.32-3.32-.51-.26,0-1.33-.11-1.43-.34,0,0,1.6-.65,1.73-.71s0-.24-.13-.18Z"/></g></svg>