<svg xmlns="http://www.w3.org/2000/svg" viewBox="0 0 40 40"><defs><style>.cls-1{fill:#fff;}</style></defs><g id="Capa_4" data-name="Capa 4"><path class="cls-1" d="M9.64,22.86l-3.06-1.4a96.59,96.59,0,0,1,26,1.51A89.94,89.94,0,0,1,1.22,21.1a231.11,231.11,0,0,1,28.59-.25A52.31,52.31,0,0,1,4.53,22.26a94.65,94.65,0,0,1,34.25,1.6L5.65,20.58a22.88,22.88,0,0,0,15.19,1.11"/><path d="M10.79,22.15,7.73,20.74,6.39,22.29a95.62,95.62,0,0,1,25.27,1.49l1.08-1.64A89,89,0,0,1,2.1,20.29L1,21.93a235.12,235.12,0,0,1,28.22-.24l.35-1.6A50.44,50.44,0,0,1,5.41,21.45L4.34,23.09A93.79,93.79,0,0,1,37.9,24.67L39.34,23,6.21,19.73c-.53-.05-3,1-1.7,1.57A25.24,25.24,0,0,0,21,22.44c.44-.11,1.41-.53,1.25-1.14s-1.24-.48-1.65-.37A21.18,21.18,0,0,1,6.8,19.87L5.1,21.43l33.13,3.28c.8.08,3.06-1.28,1.44-1.66A97.84,97.84,0,0,0,4.72,21.43c-.47.06-1.31.29-1.54.78a.56.56,0,0,0,.47.85A55,55,0,0,0,30,21.6c.91-.28,2-1.52.35-1.6a239,239,0,0,0-28.95.27c-.7.05-2.6,1.28-1.08,1.64a93.24,93.24,0,0,0,32,1.89c.47-.05,1.32-.3,1.55-.79a.56.56,0,0,0-.47-.85A101.44,101.44,0,0,0,6.77,20.62c-.49,0-2.48,1-1.34,1.55l3.06,1.41a2.3,2.3,0,0,0,2-.26c.38-.25.89-.88.25-1.17Z"/><path class="cls-1" d="M17.67,14.7l-.15,19.16A57.5,57.5,0,0,0,12.61,5.41l4.38,27A121.14,121.14,0,0,1,19.36,9c-3.18,8.81-6.4,17.74-7.21,27.06l2.2-31.65a216.81,216.81,0,0,1-1,26.73,194,194,0,0,0,4.37-27.2,159.07,159.07,0,0,0-5.15,31"/><path d="M16.22,15.09l-.15,19.16c0,.43,2.84,0,2.9-.78A58,58,0,0,0,14.06,5c-.27-.61-3,.13-2.9.77l4.38,27c.1.56,2.9-.07,2.9-.78A122.25,122.25,0,0,1,20.79,8.74c.12-.63-2.62-.12-2.86.52C14.74,18.1,11.56,27,10.7,36.45l2.9-.77L15.8,4l-2.89.78a223,223,0,0,1-1,26.73c0,.4,2.72,0,2.87-.65a198.92,198.92,0,0,0,4.4-27.33c0-.42-2.71,0-2.88.65a161.91,161.91,0,0,0-5.16,31.17c0,.36,2.84.06,2.89-.78A161.14,161.14,0,0,1,19.15,3.67l-2.88.65a196.93,196.93,0,0,1-4.35,27.09l2.87-.65A219,219,0,0,0,15.8,4c0-.46-2.84,0-2.89.78L10.7,36.45c0,.37,2.83,0,2.9-.77.85-9.33,4-18.19,7.19-26.94l-2.86.52a125,125,0,0,0-2.39,23.55l2.9-.78L14.06,5l-2.9.77a58,58,0,0,1,4.91,28.45l2.9-.78.15-19.15c0-.42-2.89,0-2.9.77Z"/><path class="cls-1" d="M9.64,22.86l-3.06-1.4a96.59,96.59,0,0,1,26,1.51A89.94,89.94,0,0,1,1.22,21.1a231.11,231.11,0,0,1,28.59-.25A52.31,52.31,0,0,1,4.53,22.26a94.65,94.65,0,0,1,34.25,1.6L5.65,20.58a22.88,22.88,0,0,0,15.19,1.11"/><path class="cls-1" d="M9.75,22.79l-2-.9c-1-.47-.73-.39.22-.45,1.59-.1,3.19-.16,4.79-.18q4.23,0,8.45.28,4.44.33,8.83,1.08A7.73,7.73,0,0,1,32,23a15.51,15.51,0,0,0-1.85.18q-2.37.21-4.74.3a89.06,89.06,0,0,1-17.11-1c-1.42-.22-2.83-.48-4.24-.77-.62-.12-1.24-.27-1.86-.4-1.35-.28.6-.17.93-.19q4.65-.29,9.32-.39,4.32-.09,8.63,0c1.4,0,2.8.05,4.19.1l2,.07a10.08,10.08,0,0,1,2.05.1c-.05-.09-3.44.91-3.82,1-1.58.35-3.17.62-4.77.82a52,52,0,0,1-8.55.34c-1.46-.06-2.92-.18-4.37-.37-.61-.08-1.23-.17-1.84-.27.07,0-.91-.14-.91-.16l.86-.1c3-.37,6-.58,9-.66a95.59,95.59,0,0,1,17.15,1.15q2.35.38,4.71.87c.33.08,2.25.44,1,.16a20.46,20.46,0,0,0-2.47-.25l-9.89-1L5.71,20.5s-.3.1-.17.15a23.38,23.38,0,0,0,15.32,1.11c.17,0,.13-.19,0-.15A22.88,22.88,0,0,1,9.2,21.7c-.37-.1-3-1-3-1s2.05.25,2.4.28l5.93.59,24.23,2.39c.08,0,.3-.12.14-.16A96,96,0,0,0,4.55,22.17c-.06,0-.27.14-.11.17a53.14,53.14,0,0,0,25.39-1.42c.09,0,.19-.15,0-.16A235.58,235.58,0,0,0,1.24,21c-.07,0-.26.13-.11.16a91.13,91.13,0,0,0,31.4,1.87c.06,0,.26-.13.1-.16a98.78,98.78,0,0,0-26-1.52s-.25.1-.13.16l3.05,1.4c.09,0,.36-.08.23-.14Z"/><path class="cls-1" d="M17.67,14.7l-.15,19.16A57.5,57.5,0,0,0,12.61,5.41l4.38,27A121.14,121.14,0,0,1,19.36,9c-3.18,8.81-6.4,17.74-7.21,27.06l2.2-31.65a216.81,216.81,0,0,1-1,26.73,194,194,0,0,0,4.37-27.2,159.07,159.07,0,0,0-5.15,31"/><path class="cls-1" d="M17.52,14.74,17.38,33.9s.28,0,.29-.08A58.07,58.07,0,0,0,12.75,5.37c0-.06-.3,0-.29.08l4.39,27s.29,0,.29-.08A123.59,123.59,0,0,1,19.5,9c0-.06-.26,0-.28.06C16,17.82,12.86,26.72,12,36.1L12.3,36,14.5,4.37l-.29.08a220.81,220.81,0,0,1-1,26.73s.27,0,.29-.06A198.84,198.84,0,0,0,17.87,3.9s-.27,0-.29.06A160.92,160.92,0,0,0,12.43,35s.28,0,.29-.08a161.37,161.37,0,0,1,5.14-31L17.58,4a196.79,196.79,0,0,1-4.38,27.2l.29-.06a221.05,221.05,0,0,0,1-26.74s-.28,0-.29.08L12,36.1s.28,0,.29-.07c.78-8.59,3.51-16.79,6.41-24.85a7,7,0,0,0,.48-1.33c.16-1.16-.19.27-.25.59-.15.79-.29,1.59-.42,2.38q-.56,3.33-.93,6.67a122.28,122.28,0,0,0-.74,13l.29-.08-4.39-27-.29.08A58.07,58.07,0,0,1,17.38,33.9l.29-.08.14-19.16s-.28,0-.29.08Z"/></g></svg>