<svg xmlns="http://www.w3.org/2000/svg" viewBox="0 0 40 40"><defs><style>.cls-1{fill:#fff;}</style></defs><g id="Capa_4" data-name="Capa 4"><path class="cls-1" d="M9.64,22.86l-3.06-1.4a96.59,96.59,0,0,1,26,1.51A89.94,89.94,0,0,1,1.22,21.1a231.11,231.11,0,0,1,28.59-.25A52.31,52.31,0,0,1,4.53,22.26a94.65,94.65,0,0,1,34.25,1.6L5.65,20.58a22.88,22.88,0,0,0,15.19,1.11"/><path class="cls-1" d="M9.75,22.79l-2-.9c-1-.47-.73-.39.22-.45,1.59-.1,3.19-.16,4.79-.18q4.23,0,8.45.28,4.44.33,8.83,1.08A7.73,7.73,0,0,1,32,23a15.51,15.51,0,0,0-1.85.18q-2.37.21-4.74.3a89.06,89.06,0,0,1-17.11-1c-1.42-.22-2.83-.48-4.24-.77-.62-.12-1.24-.27-1.86-.4-1.35-.28.6-.17.93-.19q4.65-.29,9.32-.39,4.32-.09,8.63,0c1.4,0,2.8.05,4.19.1l2,.07a10.08,10.08,0,0,1,2.05.1c-.05-.09-3.44.91-3.82,1-1.58.35-3.17.62-4.77.82a52,52,0,0,1-8.55.34c-1.46-.06-2.92-.18-4.37-.37-.61-.08-1.23-.17-1.84-.27.07,0-.91-.14-.91-.16l.86-.1c3-.37,6-.58,9-.66a95.59,95.59,0,0,1,17.15,1.15q2.35.38,4.71.87c.33.08,2.25.44,1,.16a20.46,20.46,0,0,0-2.47-.25l-9.89-1L5.71,20.5s-.3.1-.17.15a23.38,23.38,0,0,0,15.32,1.11c.17,0,.13-.19,0-.15A22.88,22.88,0,0,1,9.2,21.7c-.37-.1-3-1-3-1s2.05.25,2.4.28l5.93.59,24.23,2.39c.08,0,.3-.12.14-.16A96,96,0,0,0,4.55,22.17c-.06,0-.27.14-.11.17a53.14,53.14,0,0,0,25.39-1.42c.09,0,.19-.15,0-.16A235.58,235.58,0,0,0,1.24,21c-.07,0-.26.13-.11.16a91.13,91.13,0,0,0,31.4,1.87c.06,0,.26-.13.1-.16a98.78,98.78,0,0,0-26-1.52s-.25.1-.13.16l3.05,1.4c.09,0,.36-.08.23-.14Z"/><path class="cls-1" d="M17.67,14.7l-.15,19.16A57.5,57.5,0,0,0,12.61,5.41l4.38,27A121.14,121.14,0,0,1,19.36,9c-3.18,8.81-6.4,17.74-7.21,27.06l2.2-31.65a216.81,216.81,0,0,1-1,26.73,194,194,0,0,0,4.37-27.2,159.07,159.07,0,0,0-5.15,31"/><path class="cls-1" d="M17.52,14.74,17.38,33.9s.28,0,.29-.08A58.07,58.07,0,0,0,12.75,5.37c0-.06-.3,0-.29.08l4.39,27s.29,0,.29-.08A123.59,123.59,0,0,1,19.5,9c0-.06-.26,0-.28.06C16,17.82,12.86,26.72,12,36.1L12.3,36,14.5,4.37l-.29.08a220.81,220.81,0,0,1-1,26.73s.27,0,.29-.06A198.84,198.84,0,0,0,17.87,3.9s-.27,0-.29.06A160.92,160.92,0,0,0,12.43,35s.28,0,.29-.08a161.37,161.37,0,0,1,5.14-31L17.58,4a196.79,196.79,0,0,1-4.38,27.2l.29-.06a221.05,221.05,0,0,0,1-26.74s-.28,0-.29.08L12,36.1s.28,0,.29-.07c.78-8.59,3.51-16.79,6.41-24.85a7,7,0,0,0,.48-1.33c.16-1.16-.19.27-.25.59-.15.79-.29,1.59-.42,2.38q-.56,3.33-.93,6.67a122.28,122.28,0,0,0-.74,13l.29-.08-4.39-27-.29.08A58.07,58.07,0,0,1,17.38,33.9l.29-.08.14-19.16s-.28,0-.29.08Z"/></g></svg>