<svg xmlns="http://www.w3.org/2000/svg" viewBox="0 0 239 87"><defs><style>.cls-1{fill:#29abe2;}.cls-2{fill:#93278f;}</style></defs><g id="Capa_4" data-name="Capa 4"><path d="M18.39,20a87.71,87.71,0,0,0-3,37.11l.72-.19a42.88,42.88,0,0,1,1.38-34.14l-.69-.06c-1.86,3.88-2.18,8.18-2,12.43a110.27,110.27,0,0,0,1.42,13,126.69,126.69,0,0,0,7.45,26.62l.7-.25a52.43,52.43,0,0,1-13-25.19l-.73.19c1.82,8,3.71,16.4,8.47,23.28,3.95,5.71,9.93,10.26,17,10.95.33,0,.74-.44.26-.49-7.17-.71-13.17-5.53-17-11.4C15,65.08,13.16,57,11.4,49.29c-.07-.31-.79-.13-.73.19A52.7,52.7,0,0,0,23.76,74.79c.16.17.82,0,.7-.25a126.88,126.88,0,0,1-7.3-25.7,119.36,119.36,0,0,1-1.53-12.93c-.26-4.46-.05-9,1.91-13.12.17-.36-.56-.33-.69-.06a43.19,43.19,0,0,0-1.41,34.39c.12.3.77.13.72-.19a87.65,87.65,0,0,1,3-37c.09-.31-.65-.23-.73.07Z"/><rect class="cls-1" x="16.38" y="17.1" width="218.81" height="60.06" rx="14.79"/><path d="M21.81,69.77l-5.57-1.41c-.17,0-.81.17-.5.38,6.36,4.46,14.09,6.13,21.73,6.62,8.31.53,16.62-.27,24.9-.92Q92.78,72,123.31,71.92t60.83,1.89q7.53.5,15,1.11a114.47,114.47,0,0,0,12.69.62c7.29-.23,14.75-2.29,18.56-9a30.59,30.59,0,0,0,3.3-11.11,47.23,47.23,0,0,0,0-11.58,50.13,50.13,0,0,0-8.65-22.37,53,53,0,0,0-3.83-4.88c-.17-.2-.86.07-.67.29,10.5,12,15.62,28.93,11.21,44.52-1.13,4-3.15,7.79-6.62,10.21-3.31,2.31-7.38,3.17-11.35,3.45a81.07,81.07,0,0,1-12.17-.35q-7.27-.62-14.55-1.11-29.25-2-58.59-2.07-29-.06-57.94,1.91C61.89,74,53.18,75,44.45,75.1c-7.92.08-16.18-.59-23.45-4a31.79,31.79,0,0,1-4.69-2.72l-.51.38,5.57,1.41c.24.06.85-.3.44-.41Z"/><path d="M217.28,20.54c7.42.91,9.89,9.69,11.6,15.74a79.26,79.26,0,0,1,1.18,38.93c-.05.21.66.09.72-.11,2.48-9.12,5-18.42,4.86-27.95a38,38,0,0,0-6.22-20.74,31.77,31.77,0,0,0-9.21-8.94c-.11-.07-.8,0-.7.23a91.15,91.15,0,0,1,9.54,26.07c1.47,7.41,2.87,16.45-1.5,23.19-5,7.72-16,8.88-24.29,10A186.49,186.49,0,0,1,174,78.16c-19.4-.52-38.67-3-58-3.86a230.83,230.83,0,0,0-28.45.4c-9.94.79-19.88,2.07-29.87,1.74-8.68-.29-17.27-1.9-24.91-6.2-6-3.4-11.87-8.62-13.63-15.59a17,17,0,0,1-.5-4.76c0-.15-.72,0-.72.19-.24,7.13,4.11,13.18,9.55,17.38a46.06,46.06,0,0,0,22.11,8.7c9.94,1.31,20,.45,29.92-.45a264.19,264.19,0,0,1,30.16-1.27c20.26.47,40.37,3.17,60.61,4a205,205,0,0,0,28.9-.69A120.2,120.2,0,0,0,213,75.56,30.85,30.85,0,0,0,224,71.26c6.56-4.54,7.7-12.51,7-19.93a87,87,0,0,0-7.5-27.43c-1-2.17-2.06-4.3-3.21-6.4l-.7.23a32.85,32.85,0,0,1,13.26,17.1c2.75,8,2.5,16.51,1,24.72-.94,5.29-2.36,10.48-3.77,15.66l.72-.11a79.6,79.6,0,0,0-1.05-38.57,42,42,0,0,0-4-10.65c-1.8-3-4.42-5.24-7.94-5.67-.19,0-.84.29-.46.33Z"/><path d="M19.7,24.11l-4.44,7.5.69-.1c-.21-5.58,3.2-10.53,7.93-13.24l-.55-.08-6.5,10.26.7-.1c-.16-5.73,6.15-8.73,10.78-10.22a60.89,60.89,0,0,1,9.64-2q5.67-.81,11.38-1.24c15.12-1.14,30.31-.49,45.44.17s30.12,1.33,45.17.37c15.22-1,30.36-3.3,45.63-3.37,15.1-.07,31,2.08,44.1,10.1l.56-.32a544.47,544.47,0,0,0-89.67-5.42c-15,.33-29.92,1.53-44.9,1.36C82,17.62,68.48,15.49,54.84,14.63,41.66,13.79,27.76,14.29,16,21c-.28.16-.07.3.16.27Q57,16,98.18,13.35c27.3-1.73,54.68-2.63,82-2.5,14.33.06,29.06.68,42.56,6l.43-.35-57.14-2.37-16.4-.68c-.18,0-.76.33-.37.37l60.23,5.44a19.3,19.3,0,0,1,6.77,1.35c1.5.72,3.65,2.22,2.26,4-.18.24.54.16.67,0,2.06-2.7-2.52-4.59-4.49-5.12a41.06,41.06,0,0,0-6.74-.79l-8.18-.74-32-2.89-18.09-1.63-.37.36,57.14,2.37,16.4.68c.1,0,.73-.23.44-.34-11.71-4.58-24.4-5.67-36.87-5.94-13.68-.29-27.39,0-41.07.34Q104.09,12,62.9,15.75,39.55,17.9,16.29,20.92l.17.27c11-6.3,23.95-7,36.32-6.3,13.08.71,26,2.84,39.14,3.19,14.65.39,29.28-.73,43.92-1.18s29.5-.29,44.23.46Q205,18.64,229.78,22.2c.09,0,.77-.18.56-.31-11.6-7.11-25.4-9.62-38.83-10.11-15.69-.58-31.29,1.73-46.89,3-15.87,1.25-31.74.74-47.62,0s-31.61-1.45-47.38-.26c-4.18.32-8.36.77-12.5,1.4a53.27,53.27,0,0,0-10,2.27c-4.57,1.62-10.47,4.73-10.31,10.36,0,.22.62,0,.69-.1L24,18.18c.17-.28-.47-.13-.56-.08-4.88,2.8-8.43,7.83-8.21,13.6,0,.22.63,0,.69-.1l4.45-7.49c.15-.27-.56-.18-.67,0Z"/><path d="M230.4,64.7C204.69,74.36,177.17,78,149.94,80.2c-27,2.14-54.3,2.48-81.21-1a242.23,242.23,0,0,1-43.41-9.56l-.53.28,63.35,2.85c.15,0,.82-.28.47-.29L25.26,69.62c-.1,0-.77.21-.54.28,25.82,8.35,53,11.68,80.05,12.13,13.57.23,27.14-.26,40.67-1.24,13.8-1,27.6-2.39,41.25-4.63a230.59,230.59,0,0,0,44-11.31c.48-.18,0-.25-.25-.15Z"/><path class="cls-2" d="M58.7,33.54l.68,1.18-.13.35c.12,0,.21.26.27.76l-.06.08V36l.21.49-.07.62.07.21H59.6l.13.35-.06.07v.07l.06.42-.21.62.08.2-.14.35.27.7a3.17,3.17,0,0,0-.41,1.24l.35.56-.15.35.21.9h-.06l.14.42c0,.28-.1.41-.29.41l.08.08v.06l-.08,1.12.21.41-.06.28c0,.14.19.28.55.42l.14.41c0,.67-.53,1.11-1.6,1.32h-.13V33.54ZM58.76,58v.21h-.13V58Zm-.06.41c.3,0,.5.37.62,1.12v.2q.69,0,.69.42c.19,0,.29,0,.29.14v.27c-.25.48-.43.74-.57.78h-1l-.13-.15V58.39ZM73.55,30.81h1.91a1.17,1.17,0,0,0,.2-.12A2,2,0,0,1,77,31.6l.13.27v.35A2,2,0,0,1,76,33a3.35,3.35,0,0,1-.68,1.88l.06.08v.41l-.06.07.48.9.06.7c-.27.14-.41.25-.41.35l-.35-.08-.34.14c-.92-.22-1.42-.51-1.52-.88l0,.47c-.27.14-.41.25-.41.35l-.35-.08-.34.14c-1-.25-1.54-.59-1.54-1l-.45-.28h-.29l-.7.35c0,.53-.35.9-1,1.1-.08,0-.21.16-.41.49l.08.29-.21.54A1.2,1.2,0,0,0,68.49,40l.08.06q0,.21.27.21l.14.27.21-.06a2.5,2.5,0,0,1,1.11.34l.21-.06c.51,0,.76.12.76.21l.35-.08h.21a3.09,3.09,0,0,0,1,.35l.27-.07.76.42a1.8,1.8,0,0,0,.78.49.67.67,0,0,0,.27.48,1.7,1.7,0,0,0,.62,1.19c0,.45.07.68.21.68l-.07.29L76,46l-.14.49c.1,0,.24.21.43.62l-.14,1.53.06.41-.06.08.34.48-.14.55.08.08.06-.08h.15v.15l-.08.06.08.08v.14L76.2,51l.08.42-.35.84c.09,0,.16.2.21.62-.12,0-.22.21-.29.62l.08.21-.35,1.11.08.08v.19l-.22.28.06.07v.06c0,.2-.08.29-.19.29V56a.87.87,0,0,1-.22.56l.08.35c0,.23,0,.35-.15.35l.07.06v.14a3.69,3.69,0,0,0-.34,1.18c-.15,0-.33.4-.57,1.19l-1.38.69h-.48L72,60.41l-.34.13-.78-.06h-.14l-.48.06-.06-.06h-.37l-1,.2-.21-.06-.22.2v-.06l-.27.13L68,60.82l-.78.15a1.08,1.08,0,0,0-.68-.15v-.06l-.08.06H66.2l-.2-.09-.09.09v-.06l-.27.13-.27-.07-.78.15a1.08,1.08,0,0,0-.68-.15v-.06l-.08.06h-.21c-.46-.15-.68-.38-.68-.69-.07,0-.15-.09-.22-.28s.12-.22.35-.41L63,59.22l.29-.83-.08-.2.21-.15L63.35,58v-.14l.21-.29-.08-.19v-.09c0-.18.06-.26.14-.26l-.06-.22.14-.21-.08-.06v-.07l.15-.41-.07-.22h.07l-.07-.06v-.07A1.1,1.1,0,0,0,64,55a1.51,1.51,0,0,1-.55-.48c.31-.65.65-1,1-1l.34.06.43-.14c.41,0,.62.14.62.41a1.92,1.92,0,0,0,1,.7l.41-.06h.08l.21.13h.27a2.07,2.07,0,0,0,1.32-1V53a2.88,2.88,0,0,0,.35-1l-.07-.06V51.8l.07-.06v-.08l-.07-.06v-.07l.13-.28L69.39,51l.13-.41A4.44,4.44,0,0,1,69,49.31c-.29-.42-.47-.64-.56-.64S68,48.23,67,47.78a.65.65,0,0,1-.35-.56.94.94,0,0,1-.91-.49l-.07.08h-.07l-.08-.08H65.5l-.07.08-.49-.43-.06.08c0-.09-.12-.14-.35-.14,0-.16-.25-.32-.76-.48l-.07-.08c-.15,0-.22,0-.22-.14l-.35.08h-.06l-.21-.14-.14.14-.07-.08h-.06l-.14.14H62.3a1.14,1.14,0,0,0-.62-.2l-.76-1v-.07a1.21,1.21,0,0,0,.27-.69,6,6,0,0,0-1-2l.14-.68-.14-.35.14-.14a1.11,1.11,0,0,1-.22-.77L60,39.79H60a2.37,2.37,0,0,1,.48-1.1l-.07-.43a6.29,6.29,0,0,1,.35-1.52l-.07-.07v-.08a8.85,8.85,0,0,1,.76-1.46,1.39,1.39,0,0,1,.35-.75l-.07-.22a2.27,2.27,0,0,1,1-1.11l.22-.27-.08-.07v-.06c0-.15.14-.22.43-.22,0-.37-.22-.56-.64-.56h-.14l-.13.14-.28-.14L62,32V32a1.55,1.55,0,0,1-1.6-1A1,1,0,0,1,61,30v-.13l-.07-.49.07-.07h1.25l.14.13-.08.08q.15,0,.15.27a.56.56,0,0,0,.49-.35l.35-.13H64.8a1.06,1.06,0,0,0,.57.27v.21l.06.27c-.07.2-.14.29-.2.29l.06.2c0,.43-.1.64-.21.64L65,31.11v.21c.19,0,.4.19.62.55a2,2,0,0,0,1.11-.49l.07.08,1.25-.62q.21,0,.21-.15h.06l.08.07h.07c0-.2.49-.41,1.46-.62v.06l.76-.14c0,.1.07.14.21.14l.06.08v.07l.08-.07h.06c.1,0,.22.2.35.62l.29.08.13-.05.28-.09.07.06V31a1.75,1.75,0,0,0,.84-.29A1.09,1.09,0,0,1,73.55,30.81Zm-9,26.38-.32,1.62V59l.2.06.07-.06h.06a4.29,4.29,0,0,0,1.26.19l.21-.06.2.2h.14l.42-.06.35.14.14-.22.27.08a3.74,3.74,0,0,0,1.67-.56l.49.07v-.07c0-.18.13-.28.41-.28l1.12-2.56a1.09,1.09,0,0,1,.33-.84L71.54,55v-.13l.14-.56-.08-.08v-.06a.8.8,0,0,1,.35-.43l-.06-.06v-.07a7.55,7.55,0,0,0,.49-2.78h.06l-.06-.21.13-.63-.07-.48.15-.84-.15-.89h.07a2.45,2.45,0,0,0-.41-1l.07-.43-.49-2.08.08-.06a3.22,3.22,0,0,1-1-1.39,1,1,0,0,1-.63-.28.93.93,0,0,1-.55-.35l-.49-.07-.21.07-.06-.07h-.07l-.08.07a3.5,3.5,0,0,1-1.11-.35l-.06.08V42l-1-.35-.08.08H66.4l-.28-.08-.62.14c0-.1-.37-.24-1.11-.41a2.5,2.5,0,0,1-1-1l.07-.33v-.29l-.13-.49.13-.48-.07-.49.35-1.11L63.62,37l.12-.08h0l-.07-.48a1.77,1.77,0,0,1,.83-1.74c0-.13.09-.2.27-.2l.57-.83v-.08l-.08-.08V33.4l-1,.41v-.06c-.14,0-.28.21-.41.63-.19,0-.29.16-.29.48l-.41-.14c0,.07-.19.16-.56.28a2.85,2.85,0,0,0-.76,1.53l.14.14v.07l-.28.34.14.48-.08.35V38h.08a4.25,4.25,0,0,1,.76-1.4h.07l-.07.08.07.07v.34l-.07.07.07.08v.06c-.36.79-.64,1.18-.83,1.18h-.21l-.2-.13-.21.48a2.18,2.18,0,0,1,1,1.19v.06c-.19,0-.34.41-.43,1.24.09.58.21.88.35.91h.08c0-.14,0-.21.14-.21a1.5,1.5,0,0,1,.27,1c0,.31.37.61,1.12.91l.14.2v.15l-.29.41,3.07,1.25c0,.1.2.15.62.15q0,.11.48.33c0,.15.42.55,1.25,1.19.16,0,.55.49,1.18,1.39l.22.2h.06v.35l.21.29v.27l.13,1.11-.06.07.06.07v.07l-.21.55.08.42v.06a2.37,2.37,0,0,0-.49.78l.14,1.24H70.3l.06.08v.13a1.05,1.05,0,0,1-.62.69,4,4,0,0,1-1.46.27l-.08-.06v-.08l-.35.08-.27-.08-.62.08h-.08l-.54-.21-.28.07-.56-.15c-.41.1-.65.27-.7.5l.08.41-.35.84.06.06v.12Zm-3-14.62a1.26,1.26,0,0,0,.49.9v-.2h.21v.06l-.08.08v.06l.08.07h.14v-.07a3.54,3.54,0,0,0-.63-1Zm1.53-9.86-.07.21h.35v-.08l-.14-.13Zm.55,4.23.08-.06h0l-.12.08Zm1.79-1.23,0,.2V36l.13.14c.12,0,.38-.21.76-.63l.56-.35h.49l.54-.13h.08l.08.07.06-.07h.42l.06.07.08-.07h.14a1.28,1.28,0,0,0,.75.35l.08-.08h.06l.43.15v-.21h.06a1,1,0,0,0,.63.35l.28-.08v.08l.06-.08h.07l.14.14c.37,0,.6-.25.7-.76.09,0,.14-.16.14-.48l.13-.14-.06-.7v-.49l.2-.34c-.22-.21-.34-.37-.34-.49h-.56l-.16-.11,0,0-.14.14-.35-.14v.08l-.13.14-.08-.08-1.52.21v-.07a6.33,6.33,0,0,1-1.74.62c0,.08-.18.18-.55.29A1.94,1.94,0,0,1,66,34.51a1.45,1.45,0,0,0-.62,1l.06.08v.06Zm0-2.31v.06h.13c.07,0,.14-.09.22-.27h-.07C65.52,33.26,65.43,33.33,65.43,33.4Zm2,2.71h-.12l-.7.35a.88.88,0,0,1,0,.24Zm7.16-3.89a2,2,0,0,1-1.18.76,3.35,3.35,0,0,1-.68,1.88l.06.08v.35a.9.9,0,0,0,.57.27l.28-.08v.08l.06-.08h.07l.14.14c.37,0,.6-.25.7-.76.09,0,.14-.16.14-.48l.13-.14-.06-.7v-.49l.2-.34c-.22-.21-.33-.37-.33-.49Z"/><path class="cls-2" d="M82.71,60.39l0,0-.23.09L80,60.67l-.62,0-.06-.27-.15-.22.12-.06c-.26-.1-.41-.21-.44-.35.32,0,.47-.1.44-.28-.31,0-.5-.18-.56-.55v-.06H79V58.8l-.17-.17L79,58.4l-.38-.09.31-.45-.16,0,0-.3c0-.15-.16-.24-.41-.26l.22-.15c-.33,0-.53,0-.63-.14l.22-.29c0-.07-.18-.1-.5-.1l.31-.25-.13,0-.06-.54h-.32l1.11-7.31-.67-5.21.5-1.47.33.21v.08h.06v-.14H79v.14h.08l.09-.34v-.56c.25-.09.38-.48.38-1.15l.06-.9-.06-.41.15-.14-.09-.07.24-.06-.06-.08v-.06l.15-.83,0-.06.31-.9h.18l.07-.33v-.35c.35,0,.58-.59.7-1.78a.93.93,0,0,1,.78-.54l.24-.22v-.06h.07l.7.06.31-.06,1,.28.09-.08h.08l.21.14L85,33.5v.06l.06-.06h.09l3.72,1c0,.09.23.18.7.27.77.4,1.15.83,1.15,1.31.26.09.53.46.79,1.09l.77.63.08.06a1.51,1.51,0,0,1-.47.89l.09.08v.06l-.09.06.39,1.38h-.09l.09.06v.08l-.09.39a.47.47,0,0,1,.32.49v.15l-.15.47a.71.71,0,0,1,.45.33l-.22.28v.07l.45.56-.15.61v.14h-.08l-.22-.06a1.76,1.76,0,0,0-.55.66l.08.08v.33l-.08.28c0,.23.11.35.32.35,0,.14.21.28.62.41l.15.41-.69.83v.06c.21,0,.31.14.31.41l-.31.21.07.07V48l-.07.54.31.21v.35a3.2,3.2,0,0,0-.39,1.23l.08.22-.08.19.15.16-.07.25.22.63c0,.38-.31.7-.92,1v.08l.07.06v.06a9.46,9.46,0,0,0-.77,2.26,18.75,18.75,0,0,0-1.7,3.42A4.29,4.29,0,0,1,88,60.06a6.4,6.4,0,0,1-2.62,1.11h-.7c-1.3-.19-1.94-.44-1.94-.76Zm2-25.73a.65.65,0,0,1-.55.34l-.06-.06q0,.24-1.11.33c0,.08-.12.15-.36.2a1.46,1.46,0,0,1-.4.7.91.91,0,0,1-.24.54l.47.82a1.05,1.05,0,0,1-.7,1l-.07.07v.07l.07.07v.08a6.84,6.84,0,0,1-.69,1.76v.35l.79.76v.07a1.3,1.3,0,0,1-.34.75l.09,1h-.09l.09.08v.13l-.47.55.15.9-.15.6.08.76-.15.69.07.07v.06l-.07.28.07.06-.07.35v.21a4.24,4.24,0,0,0,.39,1.36v.75L81.3,51c.21.15.36.6.47,1.36v.55a.8.8,0,0,1,.32.56l-.09.2.55,1.17-.08.41.23.66-.06.41a5.29,5.29,0,0,0,1,2.19q0,.8,1.17,1.11H86a2.76,2.76,0,0,1,.93-.35c1.16-.89,1.81-1.6,1.94-2.13.16,0,.25-.13.25-.39a2.94,2.94,0,0,0,.68-1.5l.15-.22L89.85,55v-.06l.61-1.52-.08-.19c.08,0,.21-.42.38-1.25l-.08-.07v0c.11-.32.21-.48.32-.48l-.07-.47v-.23l.22-.34-.07-.19.07-.08L91.08,50l.07-.06h.08l-.08-.27c0-.23.06-.35.17-.35L91.15,49c.15,0,.25-.16.31-.49l-.09-.21c.14,0,.22-.2.24-.61l-.06-2.26h.06l-.06-.06V44.8a3.31,3.31,0,0,0-.47-1.71l.15-.27a6.78,6.78,0,0,0-.3-1.66l.07-1-.07-1,.07-.08v-.06a5.91,5.91,0,0,0-1.55-3c-.48,0-.76-.07-.85-.22l-.09.06h-.07a5.77,5.77,0,0,0-1.78-.53,5.57,5.57,0,0,0-1.56-.7L85,34.66l-.23.06Zm1.94,2.13a4.43,4.43,0,0,0,1.16.61,1.37,1.37,0,0,1,.69.69l-.07,0v.08l.07.41-.22.62.22.21-.07.33.24,1.1A4.51,4.51,0,0,1,88,42.6l.15.28-.09.33.18,1.17-.18.13.25,1L88,46.64l.18.49-.09.07v.06l.09.06v.08L88,48l.09.21-.15.27q.17,0,.24.75l-.09.07.09.08h.07l-.16.48.16.12L88,51.44l.06.19a.59.59,0,0,1-.3.49l-.08.27v.15a2.63,2.63,0,0,1,.63,1.08v.08a2.33,2.33,0,0,1-.47.83c0,.11-.23.27-.69.47l-.09.06h-.47l-.91.06a2.08,2.08,0,0,1-1.17-1.21v-.29l.08-.06a2.87,2.87,0,0,0-.93-1.23l-.39-.7v-.19c0-.23.06-.34.15-.34L83.34,51V51l.06-.33-.15-.41.09-.28-.18-.41.09-.62c-.1,0-.16-.06-.16-.2l.07-.07v-.08L83,48.08l.25-.95c-.07-.41-.16-.61-.25-.61l.09-.35v-.08l-.22-.25v-.08H83v.12l.09,0h.07l-.29-1.52.07-.69-.3-1.1.06-.2h-.15l.09-.27-.09-.76.15-.2V41a1,1,0,0,1-.23-.62c0-.69.26-1,.78-1l.09-.06.3-.14.14-.33V38.7h-.14v-.07l.14-.28.24.14A2.85,2.85,0,0,1,86.66,36.79Zm-.2,4.78,0,.35c-.06,0-.1.14-.13.41l0,.41-.21,1.5,0,.62a1.9,1.9,0,0,1-.15.82c.12,0,.21.51.27,1.52l0,.06v.06h0l0,.08v.14a3.1,3.1,0,0,0-.32,1.7l.15.56,0,.47,0,.48,0,.35.1,1.37.06-.08h0l0,.08h0a1.68,1.68,0,0,0,.18-.68v-.08l-.14-.08.09-.47,0-.06.12-.07-.08-.41c.05-.69.11-1,.17-1l0-.34a2.09,2.09,0,0,0,.14-.69l-.09-.67.09-.13v-1a2.28,2.28,0,0,0-.14-1v-.21l.14-.82,0-.28,0-.07h0l0-.47c0-.24,0-.35.07-.35a7.21,7.21,0,0,0-.21-1.64h0c0-.28-.07-.43-.21-.43v-.12h0C86.49,41.37,86.46,41.44,86.46,41.57Z"/><path class="cls-2" d="M93.6,30.17l.14.12v.06l-.41.91,0,.06,0,.06h-.16v-.25C93.35,30.49,93.49,30.17,93.6,30.17Zm-.27,4.63.69.74-.28.47.06.32-.57.52-.06-.06V34.91Zm0,4.81v.18h-.16v-.18Zm0,18.35.15.12-.06.07h-.09Zm1.7-28.64-.2,1.41.06.08v0l-.06.08V31c0,.48.17.71.49.71v.13c0,.15-.26.25-.77.31l-.35-.57.13-.5-.07-.22c.1,0,.21-.49.35-1.47l.07-.06ZM101.69,60l-.33.06V60l-.07.07h-.22l0-.07-.09.07-.39-.09-.23,0L100,60l-.36-.18-.07.07h-.07l-.29-.21h-.56l-1,.07-.06-.07q0,.23-.93.45h-.21l-.07-.06-.06.06-.37-.06-.35.16c-.85-.27-1.27-.59-1.27-1h.07l-.07-.07.5-1.55v-.32A4.37,4.37,0,0,0,94.65,56l.07-.24v-.4l-.13-.1.06-.34v-.5l-.06-.26.13-.32-.13-.13.06-.58-.14-.33.08-.06v-.05l-.22-.39.14-.13-.06-.07V52l.06-.26-.06-.27v-.12l.06-.06-.06-.08.06-.24-.06-.73c0-.49.07-.74.14-.74l-.08-.08v-.19l.08-.32-.08-.38a3.1,3.1,0,0,1,.21-1l-.07-.06v-.25a9.1,9.1,0,0,0,.28-1.93l-.06-.06v-.06l.14-.41-.08-.06.14-1.28-.06-.2.15-.37-.09-.19a2.89,2.89,0,0,0,.23-1.35v-.21l.06-.06-.06,0,.14-.63L95.36,40l.14-.25-.06-.06v-.06l.06-.19L95.36,39l.21-.64-.13-.13.06,0-.06-.2.06-1.3c.11,0,.23-.41.36-1.22l.06-.06v-.06l-.06-.06.06-.18-.06-1V34c0-.3.07-.47.21-.5L96,33.45l.07-.47-.15-.58.08-.18h-.08l-.14-.14V32c0-.21.06-.32.14-.32l-.06-.07v-.06c0-.22.65-.41,2-.58l.09-.08,0,.08h.09q0-.09.21-.21l.41-.18.21.07v-.12H99l.85-.06.06.06v.05l.08-.05.35.05h.07l-.07-.05v-.06l.13-.14-.06-.07v0a1.27,1.27,0,0,0,.28-.79l.07-.06h.5l-.22,1,.13.35.13,0,0-.11.28.05v0l.08,0v-.13h0v0c0-.45.14-.73.42-.85l-.09-.06v-.2h.23l.06.26a3,3,0,0,1-.23.88l.61-.05.06.06v.05l.06-.05.35.05h.08l-.08-.05v-.06l.15-.13-.07-.08v0a1.37,1.37,0,0,0,.27-.79l.09-.06h.49l-.21,1,.15.38h.06l.07-.19.28.05v.08a1.06,1.06,0,0,1-.41.45l-.15.2.21.62c0,.18-.18.38-.49.59l-.09.19.15.91c-.1,0-.15.06-.15.19a1.21,1.21,0,0,1,.29.56v.07c-.12.3-.28.45-.49.45v.06l.29.32c0,.14-.09.21-.29.21v.2c.33,0,.49.29.49.88l-.2.18.06.34a.74.74,0,0,0-.42.63l.13.47c-.07,0-.16.3-.27.88l.06.2-.06.2.14.12-.43,2,.14.13v.24l-.06.07L103,42v.07a.7.7,0,0,0-.2.44c.23,0,.35.08.35.2v.12c-.42.38-.64.66-.64.85v.12l.23.38-.44.26.08.06-.08.52.08.07v.06l-.14.32.14.24-.14.6.14.13v.25c0,.21,0,.32-.14.32l.14.77-.22.45.08.08v0c-.14.39-.26.59-.35.59a4.28,4.28,0,0,0,.62,1.08v.18l-.48.65.13.32h-.07a1.54,1.54,0,0,0,.29.71l-.08.08.08.06v.18l-.08.08.08,0v.06l-.08.26c.38,0,.56.15.56.29l.08-.08H103l.29.19.56-.25a.87.87,0,0,1,.42.32l.37-.13a3.57,3.57,0,0,0,1,.57v.32a2.2,2.2,0,0,1-.78.76L105,55l-.22.27.07.44v.12l.21.08.07-.08-.07-.06v-.39l.35.06v.06l-.2.21.06.06v.18l-.06.08.15.44-.09.4.29.69-.15.72.36.56-.07.07V59l.07.06v.07c0,.33-.37.62-1.12.88l-.43.08V60h0l0,.05h-.21l0-.05h-.06l0,.05-.2-.05ZM95.5,31.57h.13l-.13.13h-.14Zm2.77,1-.22.19-.43-.19a1.6,1.6,0,0,0-.48,1.16l.06.18h-.06l.06.06v.59l.07.31c-.15,0-.24.28-.27.83h0l-.13.59.09.05v.27l-.09.05v.09c.15,0,.23.34.23,1v.06L97,38l0,.2-.19.44.06.58-.14.13.08.07a1.24,1.24,0,0,1-.22.57l.22.7-.22.14.08.18c-.1,0-.15.18-.15.53h-.08l.08.05v.07l-.08.2.08,0c-.08.65-.15,1-.21,1l.07.07v.12l-.07.06.07.06v.14l-.13.12.06.06v.28l-.06.25.06.19-.43.71.08.32v.38l-.08.26L96,46V46l-.28.78v.44l.14.5-.08.39.08.22h-.08l.14.36-.14.26.43.91a1.27,1.27,0,0,1-.29.83.39.39,0,0,1-.29.38l.09.06v.06l-.15.66.21.63-.15.14v.05a3.69,3.69,0,0,0,.44,1.17l.06.25-.06.26.06.5-.06.06V55l.06.22-.13.1.07.18-.15.14V56L96,56v.06l-.14.12.06.06-.06.06h-.08l.14.59-.2-.12v.06l.06.26h-.06l.06,0v.08l-.06.06v.08l.35,1L96,58.4c.14,0,.21.05.21.14l.08-.08h.06l.42.14.37-.06.19.06v-.14h.14c0,.14,0,.2.15.2l.29-.06,0,.06.57-.06.65.06,0-.06h.08l.44.06h.35a1.06,1.06,0,0,0,.51-.15l.41-.23-.09-.2h.14l0-.06V58a2.49,2.49,0,0,0,.2-.83l-.08-.06V57l.15-1-.07-.08V55.9l.07-.26V55.5l-.07-.22.14-.28c-.1,0-.14-.1-.14-.32a1.06,1.06,0,0,1-.64-.24l-.36.06-.2-.19c-.37,0-.56.11-.56.19l-.23-.06-.2.06c-1.13-.09-1.7-.43-1.7-1l-.06-.08v-.06l.35-.59.2-.25H98l-.2-.25v-.13h.15v-.44h-.15l.06-.33V51H98l.09-.26-.23-.63c.12,0,.2-.09.23-.26.14,0,.21-.11.21-.32l-.15-.14c0-.09.07-.13.21-.13V49l.06-.06-.06-.06V48.8a9.51,9.51,0,0,0,.29-2.07v-.52L98.53,46l.14-.21-.06-.06v-.5l-.08-.26.08-.27c-.07,0-.17-.28-.29-.82l.15-.66L98.38,43l.15-1-.15-.26c.19,0,.43-.22.71-.65v-.32L99,40.33c.1,0,.15-.08.15-.22L99.09,40v0l.09-.07v-.06L99,39.22l.15-.12v-.64L99,38.25v-.19l.06-.06L99,37.94v-.07l.06-.2-.21-.18v-.14l.15-.12h.06v.12h.09c.07,0,.16-.19.28-.56-.12,0-.21-.26-.28-.78l.34-.89L99.46,35V35l.06-.26L99.18,34l.13-.18L99.18,33h0l0-.06V32.8l0-.08c-.14-.42-.35-.64-.62-.64v.06C98.6,32.27,98.49,32.42,98.27,32.61ZM99.79,53l.09-.24.12-.24h.1l-.13-.26v-.12h.1v-.44H100l0-.33V51h.1l0-.26-.14-.64c.08,0,.12-.09.14-.26.08,0,.12-.1.12-.32l-.09-.13a.13.13,0,0,1,.14-.14V49l0-.08,0-.06v-.06a15.89,15.89,0,0,0,.16-2.06V46.2l0-.24.09-.22,0-.06v-.5l0-.26,0-.25a2.49,2.49,0,0,1-.16-.84l.09-.65-.05-.24.08-1-.08-.25c.11,0,.25-.22.41-.66v-.31l0-.43q.09,0,.09-.21l0-.06V40l0-.08v-.06l-.09-.64.09-.12v-.64l-.09-.21v-.18l0-.06,0-.06v-.08l0-.2-.12-.18v-.14l.08-.12h0v.12h0s.1-.18.18-.56c-.08,0-.14-.25-.18-.77l.23-.9L101,35V35l.05-.26-.23-.77.09-.19-.09-.73h0l0-.06v-.18l0-.07c-.09-.43-.21-.64-.38-.64v.06a1.12,1.12,0,0,1-.19.47v-.38a3.1,3.1,0,0,1-.18.26l0,.18.08.91s-.08.07-.08.2a1.64,1.64,0,0,1,.17.56v.06c-.07.3-.18.46-.31.46v.06l.19.32a.17.17,0,0,1-.19.19v.22c.21,0,.31.29.31.88l-.12.18,0,.33a.84.84,0,0,0-.25.64l.08.47s-.11.29-.17.88l0,.2,0,.2.09.12-.26,2,.1.12v.24l0,.08,0,.06v.08a.78.78,0,0,0-.14.44c.14,0,.21.07.21.19v.13a1.77,1.77,0,0,0-.38.85v.12l.12.38-.25.25.06.06-.06.52.06.08v.06l-.09.32.09.24-.09.59.09.14v.24c0,.21,0,.32-.09.32l.09.77-.16.46.07.08v0c-.09.39-.16.58-.22.58a5.2,5.2,0,0,0,.38,1.09v.18l-.29.66.06.31h0a1.63,1.63,0,0,0,.17.72l-.06.07.06.05v.2l-.06.07.06.05v.06l-.06.26c.23,0,.34.14.34.28l0-.07h0Zm3.64,6.08,0-.56.37-.23-.06-.2h.14l-.08-.06V58a1.87,1.87,0,0,0,.23-.84l-.09-.06V57l.15-1-.06-.08v0l.06-.29v-.12l-.06-.23.13-.27c-.09,0-.13-.11-.13-.32a1.14,1.14,0,0,1-.66-.24l-.34.06-.22-.2-.36.06-.43.33.09.32-.21.28,0,.44v.12l.23.06.07-.06-.07-.06v-.4l.34.06v.06l-.21.22.06.06V56l-.06.08.15.44-.09.39.29.7-.14.71.35.56,0,.06.31.22Zm4.07-9.66h.15v6.27h-.06a.53.53,0,0,1-.5-.56l.08-.06V55c-.15,0-.23-.17-.23-.4l.23-.44-.08-.06.14-.59-.06-.06v-.08l.14-.56-.14-.44.06-.59-.06-.18.21-.06-.07-.08.19-1.35,0-.32Z"/><path class="cls-2" d="M114.56,31.49a1.18,1.18,0,0,1,.2-.17c0-.28.31-.44.92-.48v.06l.43-.14c.17,0,.43.19.77.56l.29-.15c0,.1.19.15.56.15v.08l.08-.08h.35l.5.29.06-.07h.08l.71.35.07-.08h.07A6.58,6.58,0,0,1,122,33.45l.08.08c0,.13.07.19.21.19a1.53,1.53,0,0,1,.56.87H123v.21a1.07,1.07,0,0,0,.27.71l-.08.05v.08c.2.29.37.44.49.44L124,37.2l.22.15-.07.06v.06l.27.64-.07.21.36.43h-.08l.72,1.35-.08.36.23.34V41l-.08.08.2.83-.06.37c.14,0,.21.12.21.35h-.07a2.44,2.44,0,0,1,.29.92l-.29,1.76a2.2,2.2,0,0,0,.21,1.05v.23l-.08.06.08.08v.07a4.78,4.78,0,0,1-.56,1.35l.07,0-.07.71.07.37-.07.27.07.36-.07.35.15.64-.52,1,.08.2a6.55,6.55,0,0,0-.84,2l.07.06c-.09.53-.18.79-.29.79L124,55v.34a4,4,0,0,1-.92,1,9.71,9.71,0,0,1-1.69,2.84v-.07a5.54,5.54,0,0,1-1.5.41v-.06l-.06.06h-.64c0,.21-.23.4-.7.57v.22l-.07-.08h-.14l-.15.15-.08-.07h-.27v.15h-.37l-.13-.15-.27.15a1.27,1.27,0,0,1-.58-.23l-.88,0-.46-.41V59.5l.46-.44-.46-.08h-.48a1,1,0,0,1,.94-.77l-.46-.08V58l.46-.26-.46-.09h-.48l.48-.08-.48-.59v-.09l.48-.09-.48-.09v-.08l-.46-2h.46l-.46-.09v-.43l-.47-.76.47-.34-.93-1v-.59l.46-.07-.46-.1V50.8l-.48-1.11a1,1,0,0,1,.94-.68l-.46-.44v-.94h-.94v-.25l.94-.51-.48-.26.48-.08v-.09l-.48-.35.48-.07-1.41-1.28h.47l-.47-.09v-.09l.47-.59-.47-.61h.47l-.47-.09v-.15c0-.68-.46-1.2-1.39-1.55l.47-.68-1.4-1.35.46-.09v-.1l-.46-.09v-.07l.93-.78-.93-.85c1.55,0,2.32-.59,2.32-1.79,0-1.36-1.24-2.05-3.72-2.05v-.07l.46-.09v-.1l-.93-.75a41,41,0,0,1,6.53-1.22Zm-2.47,25.79c.5,0,.76.21.76.64.09,0,.16.13.22.41a2.4,2.4,0,0,1-.92,1.14l-.14-.14V57.42l.08-.06Zm4.52-23.48.14.92h-.08l.08.08v.35l-.08.06.14.71-.06.08.06.35-.2,1.41.14.64-.08.07v.08l.08.06-.14,1.06.06.43-.06.06h-.08l.08.07v.16l-.08.21.08.35V41l-.08.78.14.21-.06.56.06.78-.06.07v.08l.14.85-.22.91.14,1.06h-.06l.06.06-.14.58c.33.27.49.46.51.58L117,48.86l.08,1.35-.08.07v.08l.15.48-.15.37.08,1.2-.08.21c.11,0,.25.3.42.91l.35.43v.77a1.63,1.63,0,0,1,.43,1l-.08.07.08.06v.23l-.43.41.08.08v.07l-.14.35a1.31,1.31,0,0,0,.85,1.28l.06-.08v-.07l.37.15.21-.22.42.14q0-.21.42-.21a1.7,1.7,0,0,0,1.13-1.14c.19,0,.33-.25.43-.76.15,0,.32-.12.5-.36l.85-1.19c0-.41.12-.67.35-.77l-.08-.08v-.29a2,2,0,0,0,.37-1l-.08-.21h.08c.16,0,.37-.52.63-1.49l-.07-.21.07-.22-.07-.56.14-.42-.07-.08v-.06a2,2,0,0,1,.35-1.35l-.15-.5.15-.93-.15-.12.21-.71-.06-.22h.06l-.06-.21.14-1V44a3.52,3.52,0,0,0-.42-1.27h.06l-.06-.06v-.08l.06-.06v-.07l-.13-.14.07-.37-.14-.5.07-.06V41.3a4.16,4.16,0,0,0-.79-2l-.21.07v-.21l.14-.21a21.05,21.05,0,0,1-.85-2.34c-.15,0-.27-.12-.35-.36l.08-.06v-.06c-.16,0-.32-.24-.49-.72l-.08-.07h-.07l.07-.22a4.14,4.14,0,0,0-.92-1.35,2.07,2.07,0,0,0-1.2-.7v-.13l-.29-.08-.06.08h-.08l-1.41-.44c-.29,0-.55.36-.79,1.08Q116.73,33.53,116.61,33.8Zm3,4.46.07.06.07-.06h.08l.27.21.08-.07h.06c.27,0,.56.54.86,1.62l.06.08.06-.08h.08l.15.14v.3l-.07.06.13.58-.06.2c.09,0,.16.25.21.77l-.15.58.35.92v.14l-.12.64.05.19-.13.45.08.27-.08.07h-.07a1.54,1.54,0,0,0,.27.72,3.73,3.73,0,0,1-.76,1.12V48c0,.1-.07.15-.23.15.21.46.42.69.64.69l.08,1c-.17.56-.36.85-.56.85l-.08-.06h-.08q0,.18-.69.27h-.23q-.12,0-.12-.21l-.08.06h-.5l-.14-.12a1.65,1.65,0,0,1-.5-.87v-.21l.08-.27-.08-.29c.09,0,.14-.14.14-.43l.23-.21-.08-.71v-.35h-.15v-.06h.15V47l-.15-.21v-.37l-.06-.68h.06l-.06-.08v-.07l.06-.49-.06-.44.06-.2-.2-.36.06-.08-.13-.35h.07l-.21-.42.14-.21v-.56c-.2,0-.34-.17-.43-.51l.21-.42-.07-.21.15-.43-.15-.41v-.23a1.7,1.7,0,0,0,.29-.85l-.08-.06.21-.07-.06-.06v-.08a1.37,1.37,0,0,1,.56-.79l.08.08.06-.08h.06l.08.08h.07Zm-.15,2.13.08.07v.2l-.08.08v.06h.37v-.06l-.08-.35.08-.08h-.15l-.07-.08Zm1.07,3.67-.14.42-.08-.06h-.07a.77.77,0,0,0-.41.64l.27.49-.21.35.14,1-.08.2.08.28h.15l.06-.42-.06-.21.06-.08h.07l-.07-.06v-.08l.42-1.62-.07-.29.07-.48-.07-.08Z"/><path class="cls-2" d="M140.46,60.35v0l-.24.11-2.66.13h-.65l-.06-.29-.17-.23.14-.06c-.29-.11-.44-.23-.47-.36.34,0,.5-.11.47-.3-.34,0-.54-.19-.61-.6v-.06h.26v-.06l-.17-.18.25-.24-.41-.09.31-.49-.15,0,0-.33c0-.16-.18-.25-.43-.27l.23-.15c-.34,0-.57,0-.67-.16l.23-.3c0-.08-.19-.12-.53-.11l.33-.25-.13,0-.08-.58-.33,0,1.18-7.79-.71-5.52.53-1.57.35.23v.08h.07v-.15h.17v.15h.09l.09-.37V39.9c.27-.09.41-.5.41-1.23l.06-.94-.06-.44.15-.15-.09-.08.26-.06-.08-.07v-.08l.17-.88,0-.06.32-1h.2l.07-.36v-.37c.37,0,.62-.62.75-1.88a1,1,0,0,1,.82-.59l.25-.21v-.08h.1l.74.08.32-.08,1.06.29.09-.08h.09l.23.16.43-.08v.08l.07-.08h.09l3.95,1c0,.1.25.2.74.3q1.23.63,1.23,1.38c.29.09.56.48.84,1.15l.82.67.09.06a1.59,1.59,0,0,1-.5,1l.09.08v.06l-.09.07.41,1.46h-.09l.09.08v.07l-.09.43a.49.49,0,0,1,.33.51v.15l-.15.51a.82.82,0,0,1,.48.36l-.24.29v.07l.49.6-.17.65v.14h-.08l-.24-.07a2,2,0,0,0-.58.72l.08.07v.37l-.08.29c0,.24.11.36.34.36,0,.15.21.3.65.44l.17.44-.75.88v.06c.23,0,.34.15.34.44l-.34.23.08.06v.08l-.08.57.34.23v.37a3.21,3.21,0,0,0-.41,1.3l.07.23-.07.21.15.15-.08.29.25.65q0,.63-1,1v.08l.08.07v.06a9.9,9.9,0,0,0-.82,2.42,20.62,20.62,0,0,0-1.81,3.62A4.56,4.56,0,0,1,146.12,60a6.93,6.93,0,0,1-2.79,1.17h-.75c-1.37-.2-2.06-.46-2.06-.81ZM142.58,33a.68.68,0,0,1-.58.37l-.07-.08c0,.18-.39.3-1.17.37q0,.12-.39.21a1.65,1.65,0,0,1-.41.73,1,1,0,0,1-.26.59l.5.86a1.12,1.12,0,0,1-.75,1l-.09.08v.07l.09.08v.08a6.88,6.88,0,0,1-.74,1.88v.36l.84.81v.07a1.38,1.38,0,0,1-.35.81l.09,1h-.09l.09.08v.14l-.5.59.16.94-.16.65.09.81-.17.73.08.07v.06l-.08.31.08.06-.08.36v.23a4.4,4.4,0,0,0,.43,1.46v.78l-.19.81c.22.16.38.65.5,1.46v.57a.87.87,0,0,1,.34.6l-.09.21.57,1.24-.07.44.24.72-.07.44a5.73,5.73,0,0,0,1.06,2.32c0,.56.41.94,1.24,1.17h1.23a2.75,2.75,0,0,1,1-.37c1.23-.95,1.92-1.7,2.06-2.26.17,0,.26-.14.26-.42a3,3,0,0,0,.73-1.6l.15-.23-.06-.07v-.06l.65-1.61-.09-.21c.09,0,.23-.44.41-1.32l-.07-.08v-.06c.1-.34.21-.52.33-.52l-.08-.5V50l.25-.37-.09-.21.09-.08-.09-.07.09-.08h.07l-.07-.29c0-.24,0-.36.16-.36l-.16-.37c.14,0,.24-.16.32-.5l-.1-.23c.15,0,.23-.21.26-.65l-.07-2.4h.07l-.07-.07v-.58a3.51,3.51,0,0,0-.5-1.82l.16-.29a6.6,6.6,0,0,0-.32-1.76l.08-1-.08-1,.08-.08v-.06c0-.71-.55-1.78-1.64-3.2-.52,0-.82-.08-.91-.23l-.09.08h-.09a5.28,5.28,0,0,0-1.88-.58,5.75,5.75,0,0,0-1.66-.73l-.07-.08-.25.08Zm2.07,2.27a5,5,0,0,0,1.23.65,1.46,1.46,0,0,1,.74.73l-.09.06v.07l.09.44-.24.66.24.22-.09.37.26,1.15a4.7,4.7,0,0,1-.75,1.82l.17.29-.09.37.18,1.24-.18.14.26,1.09-.26,1.17.18.52-.09.07v.06l.09.08v.07l-.18.66.09.21-.17.3c.12,0,.21.27.26.79l-.09.08.09.07h.08l-.17.52.17.14L146,50.83l.08.21a.65.65,0,0,1-.32.52l-.09.29V52a2.94,2.94,0,0,1,.67,1.15v.08a2.48,2.48,0,0,1-.5.88c0,.12-.25.29-.73.5l-.09.07h-.51l-1,.08a2.27,2.27,0,0,1-1.24-1.3v-.31l.07-.06a2.87,2.87,0,0,0-1-1.32L141,51v-.21c0-.24.06-.37.15-.37l-.06-.07v-.08l.06-.36-.15-.43.09-.3-.18-.42.09-.67c-.11,0-.17-.07-.17-.21l.08-.08v-.08l-.17-.5.26-1c-.08-.44-.17-.66-.26-.66l.09-.36v-.08l-.24-.29v-.07h.15v.13l.09-.06h.08l-.32-1.61.09-.72-.33-1.17.07-.21h-.17l.1-.29-.1-.81.17-.21v-.15a1.07,1.07,0,0,1-.24-.65c0-.73.27-1.1.82-1.1l.09-.07.32-.14.15-.36v-.08h-.15v-.08l.15-.28.26.13A3,3,0,0,1,144.65,35.26Zm-.22,5.08,0,.37c-.05,0-.09.14-.12.44l0,.44-.23,1.59.05.65a2.13,2.13,0,0,1-.16.88c.12,0,.22.54.29,1.61l0,.06v.08h0l0,.07v.16a3.26,3.26,0,0,0-.34,1.8l.16.59-.05.5.05.52-.05.36.12,1.46.06-.07h0l0,.07h0a1.79,1.79,0,0,0,.2-.73v-.07l-.15-.08.11-.5-.05-.08.12-.07-.07-.44c0-.73.11-1.09.18-1.09l-.06-.37a2,2,0,0,0,.15-.73l-.09-.71.09-.15V45.81a2.35,2.35,0,0,0-.15-1v-.23l.15-.86,0-.29,0-.08h0l0-.51c0-.25,0-.37.07-.37a7.49,7.49,0,0,0-.22-1.74h.06c0-.3-.08-.45-.23-.45v-.13h-.06S144.43,40.2,144.43,40.34Z"/><path class="cls-2" d="M159,59.19a5.48,5.48,0,0,1-1.2.4l-.58-.06-.28.13a2.62,2.62,0,0,0-1-.33,1.44,1.44,0,0,1-.59-.61,1.23,1.23,0,0,1-.33-.86,1.4,1.4,0,0,0-.37-.5l.08,0a4.5,4.5,0,0,0-.44-.41l-.06.08-.06-.08v-.07l.06-.07v-.06l-.06-.21.06,0c-.08,0-.14-.14-.17-.41L153.8,56,151.57,34l1.42-.12,1.61,0c.09,0,.19.18.29.53a2.08,2.08,0,0,1,.93.48l.68.13.23-.07a1.35,1.35,0,0,1,.92.8,1,1,0,0,1,.17.59c-.12,0-.29.51-.52,1.54-.26,0-.49,1.46-.68,4.38l0,.61-.17,1.64.06.88-.06.73.06.26-.17,1.26.11,1.8-.06.2a5.82,5.82,0,0,0,.7,2.18l0,.28v.59a4.24,4.24,0,0,1,.58,1.67l.06.06H158l.18-.12h.23l.16.12h.23l.35-.06.06.06h.06a1.18,1.18,0,0,0,1.2-.85,4.3,4.3,0,0,0,.62-1.21c.13,0,.19-.09.19-.26a1.09,1.09,0,0,0,.45-.81c.22,0,.47-.68.75-2.06l.18-.93-.06-.92.1-.67,0-.26v-.07h.1l-.06-.34h.06l-.06-.06.06-.33-.06-.2h.06l-.06-.06.06-.35-.1-.26.27-1.53,0-.06.22-1.66-.06-.72.12-.28-.06-.53a10.75,10.75,0,0,0,.29-2.09v-.17a3.83,3.83,0,0,0-.57-1.79l-.07-.4.07-.07.1-.26c.16,0,.24-.07.24-.2l-.06-.27.17-.14h.17l1-.12.12.08.21-.14h.2l.73-.08v-.06h0l.06.05a.25.25,0,0,0,.23-.26c.19,0,.29.06.29.14l.06-.06h.51a8.43,8.43,0,0,0,.87-.06h0l.08.06c.19,0,.29-.13.29-.26.23,0,.35.05.35.14l.07-.06h.61a.58.58,0,0,1,.56.45v.33a1.23,1.23,0,0,1-.56,1l-.2.59-.21.13.06.07L168.7,38c.09,0,.15.11.2.33l-.06.08.06.32v1.06c-.26,0-.49.86-.68,2.6l.14.33-.22.39.08.34h-.08l.22.79c0,.62-.05.94-.14.94l.2.32v.35c-.41.25-.61.51-.61.79l0,.07h.08l-.12.46,0,.33,0,.27,0,.26c-.06.27-.12.4-.19.4l.07.07v.2l-.07.06.15.27-.08.2.08.61-.64.65.15,1.2c-.13,0-.2.09-.22.26l.15.41-.08.45.08.08-.49.33.06.32v.08a1.27,1.27,0,0,1-.7,1.26c-.21.68-.49,1-.83,1l-.56.59a3.25,3.25,0,0,0-1,1,2.36,2.36,0,0,1-1.73.73l-.08.06h-.06l-.12,0-.1.06a1.31,1.31,0,0,1-.54.19v-.08h-.15l0,.07h-.05l0,0-.19.05a.48.48,0,0,1-.27.12l0,0h-.11v-.06h-.1C160.05,58.84,159.7,59,159,59.19Zm5.13-21.32v.66c-.16,0-.23.18-.23.46l0,.21,0,.06v.08l0,.38V40l0,.08.17,1.26-.13.13.06.26c-.19.1-.28.52-.28,1.26l.18.47c-.07,0-.17.27-.29.79l.29.35-.06.2.06.26-.06.07v.06l.06.2c-.12,0-.18.24-.18.73l0,.07h-.06c0,.18.11.26.17.26l-.06.47.12.93L163.56,49l.06.28-.7,1.71c-.3,1-.59,1.51-.85,1.61-.5,1.55-.92,2.32-1.26,2.32a1.21,1.21,0,0,1-1.09.52c0,.09-.15.14-.46.14,0,.14-.25.27-.76.39l0,.08c-1.11-.26-1.67-.52-1.67-.79a8.42,8.42,0,0,1-1.49-3.13c-.11,0-.19-.22-.23-.65v-.61l-.63-14.59-.87.4v-.06h-.11c0,.17,0,.25-.12.25l.06.2.06,1.06c0,.32-.07.47-.12.47l.12.26-.06.08V39l.06.21q-.28,0,.63,13.07l-.05,0s.12.2.23.6l0,.06,0,.07.29.53,0,0v0l0,.07v.06l0,.08v.12c.12,0,.19.12.19.35.3,0,.58.33.85,1a2.3,2.3,0,0,0,.51.71,5.33,5.33,0,0,0,.14,1.34.94.94,0,0,0,.38.65c0,.13.08.2.24.2l.11.15.06-.08.39.08a2.23,2.23,0,0,0,.93-.2l.29,0c0-.14.22-.2.68-.2,0-.12.31-.25.92-.38v0a7,7,0,0,0,1.78-1.32,5.3,5.3,0,0,1,1.26-1.32,1.2,1.2,0,0,0,.23-.71h.06l-.06-.08V54a1.74,1.74,0,0,0,.52-1.08v-.06l-.07-.07v-.06l.58-2.07-.06-.06v-.06l.06-.27-.12-.2.06-.41-.06-.26a2.59,2.59,0,0,0,.41-.92l-.06-.28.12-.71-.06-.48c.07,0,.13-.22.17-.66l-.11-.8c.08,0,.16-.25.23-.73l-.06-.06v-.08c0-.21,0-.32.12-.32l-.06-.07.1-.46,0-.07v-.08l.1-.26-.06-.2.06-.33-.06-.39c.11,0,.23-.53.35-1.6l.06-.41-.12-.32.06-.48v-1l.23-1.27h-.11v0c.16,0,.23-.07.23-.21l-.06-.59.06-.08v-.06c0-.26-.15-.4-.45-.4l-.19-.19c-.18,0-.33.22-.45.65-.11,0-.17.07-.17.2l-.35.47-.06-.06Z"/><path class="cls-2" d="M170,57.74l.24.06.06-.06h.06c.36,0,.55.17.55.39l.06-.08h.12l.06.22.06-.08h.24l.12.12.31,0h.06c.3,0,.6.32.91,1-.07,0-.13.14-.18.41-.11,0-.25.14-.43.41-.48.12-.73.25-.73.38l.06.21-.36.46v.56h-1v-.23l.3-.59-.06-.08v0l.24-.67c-.07-.2-.15-.32-.24-.34l-.36.13H170l-.19-.2V57.74Zm19-26.42c.18.1.26.19.26.29a.83.83,0,0,1,0,.15l.33.66v.18c-.17,0-.26.08-.26.24a2.41,2.41,0,0,1-.82.55l.05.3c-.11,0-.17.19-.17.49,0,.85.09,1.27.26,1.27s.23.08.36.25a.4.4,0,0,1,.38.3v.49l-.57.42-.26-.06-.49.24-.76-.12,0,.08c0-.09-.34-.17-1-.23l-.09.08-.24-.07-.49.26L184.7,37l-.06.07s-.07-.08-.22-.12h0l-.44.24-.06-.06-.44.18.07.08-.07.3v.06l.13.17-.06.08h-.07a3.09,3.09,0,0,1,.57,1l-.07.07v.06l.14.54c-.08,0-.23.29-.46.85l.08.06v.06l-.08.25.14.36v.14l-.06.54.06.37c-.11,0-.18.26-.19.77l.05.55-.11.56.11.36-.05.31.05.61-.11.54.06.43-.06.06.06.3v.91c.13,0,.19,0,.19.12l-.06.19c.07,0,.13.18.18.56l-.18.22.06.31a3.24,3.24,0,0,0-.32,1.09l.07.37-.13.48a2.37,2.37,0,0,1,.19,1c-.13,0-.19.17-.19.37l.06.24-.37,1.34.06.07v.06l-.06.25.13.1-.13.79c.06.4.13.59.19.59l-.06.31.06.25-.13.41.07.08-.07.43V58l-.06.07.13.43-.13.11v.3c0,.23.21.4.63.5a.92.92,0,0,1,.31.73,1.89,1.89,0,0,1-.94,1V61l-.57.12v-.06l-.06.06L181.8,61l-.68.15a.42.42,0,0,0-.55-.1V61l-.54.13v-.06l-.06.06-.61-.13-.67.16-.62.16L177.3,61c-.41-.12-.61-.46-.61-1a2.62,2.62,0,0,1,.47-.73l.24-.68-.1-.3.06-.05-.12-.12.06-.06-.14-.38v0l.08-.36-.08-.2h.08l-.08,0c.05-.55.12-.85.2-.91V56h-.12l.06-.57-.06-.16.12-.12v-.07l-.06-.22.06-.25-.06-.3.06-.2-.06-.06.06-.3v-.11l-.57-1.29v-.06l.45-1.32-.08-.06v-.07l.08-.23-.08-.26.08,0v-.07L177.1,50l.06-.3-.23-.57.06,0v-.08l-.06-.18c.11,0,.17-.22.17-.65h.06l-.17-.38v-.06l.06-.24-.06-.25c.1,0,.18-.16.25-.48l-.08-.25.08-.54-.14-.31h.06l-.06-.06.14-.66-.08-.55v-.2l.08,0-.08-.06v-.06l.08-.31-.08-.3h.14l-.06-.06v-.08l.06-.17-.14-.24.08-.06V42.8l-.08-.49.2-.12-.06-.07v-.06l.1-.17-.1-.14v-.41l.1-.19v0l0-.26,0-.24v-.06l0-.25,0-.06v0l0-.3h0l0-.06v-.07l0-.07v-.06l-.1-.11h.06l-.12-.5.16-.61v-.24a.7.7,0,0,0-.61-.42l-.3.06-.24-.06-.06.06-.11-.11a2,2,0,0,1-.8.17c0,.15-.33.25-1,.3l-.13.14h-.12l-.36-.14-.73.18v0l-.06,0a2.35,2.35,0,0,1-1-.3l-.06.06h-.06l-.37-.67-.06,0c0-.14,0-.2-.12-.2a2.27,2.27,0,0,1,.42-1,1.19,1.19,0,0,0-.18-.67v-.06l.06-.06-.06-.06V35.2l.06-.07-.06-.06V35l.06-.36-.06-.24h.06a1.32,1.32,0,0,0-.42-.73l-.06-.25.12-.3-.31-.36v-.31c0-.13.25-.25.61-.36h.18l.06.06.07-.06h.3l.07.06h.05l.12-.12h.06l.18.13h.2l2.28-.37q3.81,0,3.81-.45c1.83-.14,2.75-.29,2.75-.44l.85.08,2.23-.16.45,0,0,0v0h.28v0h.12l0,0c.72,0,1.34.07,1.86.13l.33-.14.17.11.13-.11h.12l.06.06.76.35Zm-6.16,2.07-.55.17-.62-.06-.35.12h-.06l-.19-.12-.31.06v-.13l-.3.07c0-.09-.16-.15-.47-.19l-.37.06-.07-.06h-.05l-.18.06v-.06l-.49.12-.06-.06h-.06l-.18.06-.3-.06v.13h-.06l-.06-.07-.08.07-.3-.07h-.23l-.14.13-.54-.13-.17.07-.14-.13h-.77l-.06-.06-.08.06q-.42,0-.42-.12l-.05.06-.61-.06-.25.06-.19-.06-.16.06v-.06c-.13,0-.2.08-.2.25l-.18.06.07.06v.12a3,3,0,0,0-.5,1.52q-.09,0-.24.42l.06.06v.06c-.1.33-.18.49-.23.49,0,.22.31.44.91.67h.23l.55-.13.06.07c0-.16.16-.26.48-.31v-.1H175l.19,0q0-.18.72-.24v.06a1.77,1.77,0,0,1,.75-.31l.06.08h0l.26-.08.49.13.36-.05c.81.21,1.22.52,1.22.91l.06.3c0,.1-.17.25-.5.48a2.15,2.15,0,0,0-.47.8c.09,0,.19.2.3.61-.07.47-.15.71-.24.71l.1.56-.1.35c.13,0,.23.33.3,1l-.12.25.06.06v.19l-.06,0,.06.06v.08l-.14.42.08.37-.24,1.21.06.18-.06.47.1.44-.1.12.06.25-.06.24v.12l.1.18-.16.43.3.68v.17l-.3,1a.26.26,0,0,1,.22.3l.08.08-.08,0h-.06v.13l0,.44,0,0,0,.06h-.06l.06.06v.31l-.06.06.06.07v0l-.06.26a6.72,6.72,0,0,0,.41,1.82v.23a.55.55,0,0,1-.31.48l.06.06v.14h-.16v.17l-.06.36.16.44,0,.06v.05a15.79,15.79,0,0,0,.54,2.49v.18a6.17,6.17,0,0,0-.54,1.82c.07,0,.1.06.1.18l-.06.31.38.19.06,0c.61,0,.91-.24.91-.73l-.12-.49.05-.24V58.1l-.11-.18q.14,0,.18-.87h-.18c.05-.31.11-.47.18-.47l-.07-.3.07-.18-.07-.31v-.25l.07-.23-.07-.06v-.06l.07-.07v-.06l-.07,0V55l.07-.31-.07-.06v-.07l.07-.06v-.05l-.12-.56c.12,0,.18-.06.18-.17l-.06-.24.13-.2-.07-.06v0l.07-.06V53l-.07-.17.07-.06V52.7l-.07-.06a10.71,10.71,0,0,1,.37-1.89l-.06-.18.12-.18-.06-.18.06-.06v-.06l-.06-.05V50l.11-.66-.11-.78h.06l-.12-.38.12-.53-.12-.86h.06l-.06-.06v-.07l.06-.36L180,46l.06-.26-.06-.3.06-.23-.2-1.4.08-.06-.08-.06.08-.08H180l-.14-.34.08-.07v-.06l-.08-.06.08-.38-.25-1.13.13-1.3-.43-1.21c0-.45.11-.73.24-.83l-.07-.55.2-.26-.31-1c.09,0,.19-.28.31-.86l.24-.12.85.06.36-.12c0,.07.14.13.43.18l.18.18c.11,0,.17,0,.17.12l.07-.06.31.06.3-.06.12.12h.24l.31-.06v.06l.06-.06h.18l.06.06a1,1,0,0,0,1-.66c-.08,0-.12-.06-.12-.19l.18-.36-.06-.06.12-.67-.06-.18.06-.43h-.06l-1-.24Zm3.31-.2a.76.76,0,0,1-.33.18l.06.31q-.18,0-.18.48c0,.85.08,1.28.25,1.28a.49.49,0,0,1,.35.24.37.37,0,0,1,.32.18,1.13,1.13,0,0,0,.61-.59c-.09,0-.14-.06-.14-.18l.18-.37,0-.06.11-.66-.07-.19.07-.42h-.07l-1-.24Z"/><path d="M200.2,24.18a101.33,101.33,0,0,1,1.38-21.51c.06-.35-.68-.25-.73.06a102,102,0,0,0-1.39,21.51c0,.37.75.25.74-.06Z"/><path d="M204.48,24.07l10-24.41c.05-.14-.64-.07-.72.12l-10,24.42c-.05.13.64.06.71-.13Z"/><path d="M206.77,26.86c-.21.23-.76.17-1,.05a1.46,1.46,0,0,1-.46-.28,1.35,1.35,0,0,1-.44-1,4.67,4.67,0,0,1,1.28-2.7q1.79-2.47,3.76-4.79a78.27,78.27,0,0,1,8.27-8.32c.16-.14-.52-.08-.66,0a78.79,78.79,0,0,0-10.45,11c-.68.88-1.35,1.76-2,2.67s-1.38,2-.73,3a2.1,2.1,0,0,0,3.08.23c.15-.17-.54-.09-.66,0Z"/><path d="M35.73,66.91a35.46,35.46,0,0,0-3.6,16.16c0,.15.73,0,.73-.2A35.35,35.35,0,0,1,36.44,66.8c.07-.14-.62-.09-.71.11Z"/><path d="M37.85,67.29V84.5c0,.19.72.07.72-.19V67.1c0-.19-.72-.07-.72.19Z"/></g></svg>