<svg xmlns="http://www.w3.org/2000/svg" viewBox="0 0 210 91"><defs><style>.cls-1{fill:#93278f;}.cls-2{fill:#29abe2;}</style></defs><g id="Capa_4" data-name="Capa 4"><path d="M13.1,23.51a87.71,87.71,0,0,0-2.95,37.11l.72-.19a42.88,42.88,0,0,1,1.38-34.14l-.69-.06c-1.86,3.88-2.18,8.18-2,12.43a110.27,110.27,0,0,0,1.42,13,126.69,126.69,0,0,0,7.45,26.62l.7-.25a52.43,52.43,0,0,1-13-25.19L5.38,53c1.82,8,3.71,16.4,8.47,23.28,4,5.71,9.93,10.26,17,10.95.33,0,.74-.44.26-.49-7.17-.71-13.17-5.53-17-11.4-4.42-6.74-6.22-14.79-8-22.53-.07-.31-.79-.13-.73.19A52.79,52.79,0,0,0,18.47,78.29c.16.17.82,0,.7-.25a127.53,127.53,0,0,1-7.3-25.7,119.36,119.36,0,0,1-1.53-12.93c-.26-4.46-.05-9,1.91-13.12.17-.36-.56-.33-.69-.06a43.23,43.23,0,0,0-1.41,34.39c.12.3.77.13.72-.19a87.64,87.64,0,0,1,3-37c.09-.31-.65-.23-.73.07Z"/><rect class="cls-1" x="10.97" y="20.6" width="186" height="60.06" rx="14.79"/><path d="M15.62,73.27l-4.73-1.41c-.13,0-.79.16-.56.35,11,9.09,26.63,7,39.82,5.72,18-1.69,36.17-2.5,54.29-2.51q26.87,0,53.67,2.26c4.26.35,8.51.82,12.76,1.16a41,41,0,0,0,10-.16A17,17,0,0,0,189,75.19a17.45,17.45,0,0,0,5.17-8.36,49.91,49.91,0,0,0,1.33-21.64,55.45,55.45,0,0,0-7.27-20.55,52.34,52.34,0,0,0-3.08-4.58c-.15-.21-.85,0-.67.28a55,55,0,0,1,10.23,40.89,27.89,27.89,0,0,1-3.32,10.34,14,14,0,0,1-8.55,6.28,32,32,0,0,1-10.38.66c-3.89-.24-7.76-.71-11.64-1.05Q135.2,75.22,109.42,75T58.13,76.83c-7.58.6-15.17,1.63-22.78,1.76-6.8.12-13.88-.54-20-3.76A26.48,26.48,0,0,1,11,71.92l-.55.35,4.73,1.41c.23.07.85-.29.44-.41Z"/><path d="M181.71,24c3.28.48,5.39,3.2,6.74,6a49.5,49.5,0,0,1,3.24,10.3,93.08,93.08,0,0,1,.86,38.35c0,.21.67.09.72-.11,3.68-15.87,7.51-33.7-1.16-48.7A29.53,29.53,0,0,0,184.28,21c-.11-.09-.79,0-.7.22A102.29,102.29,0,0,1,191.3,45c1.36,7.14,2.69,15.28.42,22.37a15.39,15.39,0,0,1-6.84,8.69c-3.39,2-7.31,2.91-11.14,3.65a125.93,125.93,0,0,1-25.57,2C131,81.48,114.05,78.82,97,77.87a170.39,170.39,0,0,0-25.26.31C62.82,79,53.93,80.39,45,79.89c-7.42-.42-14.55-2.31-20.7-6.58-5.24-3.64-9.65-8.91-11-15.28a19.54,19.54,0,0,1-.39-4.64c0-.16-.72,0-.73.19-.37,13.8,13.07,23.5,25.43,25.82,8.71,1.64,17.61.8,26.34-.13A197.46,197.46,0,0,1,91.8,78c17.7.62,35.25,3.46,53,4a134.88,134.88,0,0,0,25.64-1.37c6.71-1.07,14.73-2.45,19.26-8.07s4.27-13.45,3.51-20.19a101.11,101.11,0,0,0-6.32-25.44c-.78-2-1.64-4-2.54-5.93l-.7.23c13.06,9.83,14.4,27.64,12,42.53-.79,5-1.94,10-3.09,14.95l.72-.11a93.41,93.41,0,0,0-.75-38,50,50,0,0,0-3.42-10.9c-1.42-2.88-3.59-5.52-6.94-6-.18,0-.83.28-.45.33Z"/><path d="M13.71,27.66l-3.77,7.5.72-.15a15.55,15.55,0,0,1,6.79-13.29H16.8L11.28,32l.72-.15c-.11-5.12,4.4-8.32,8.7-10,5.38-2.15,11.5-2.75,17.23-3.31,13-1.27,26.1-.62,39.11.05s26,1.36,39,.38,26.14-3.37,39.32-3.36c12.89,0,26.24,2.43,36.89,10.1l.56-.32a394.83,394.83,0,0,0-77-5.4c-13.06.36-26.09,1.62-39.16,1.3C65.19,21,54,18.8,42.57,18.05c-11.08-.73-22.55.14-32,6.51-.24.16.1.24.23.22q35-5.34,70.22-8c23.23-1.72,46.56-2.63,69.85-2.46,12,.09,24.4.86,35.5,6l.44-.35-62.52-3.05c-.17,0-.76.33-.37.37l51.29,5.44a14.29,14.29,0,0,1,5.65,1.35c1.45.8,3,2.32,1.92,4-.16.26.55.17.67,0,1.58-2.46-1.56-4.35-3.57-5a25.65,25.65,0,0,0-5.45-.83l-6.69-.71L140,18.58l-15.61-1.66-.37.36,62.52,3c.1,0,.72-.21.43-.35-9.59-4.4-20.19-5.61-30.64-5.91-11.61-.34-23.25-.05-34.85.3q-35.42,1-70.69,4.85-20,2.16-39.86,5.2l.23.22c9.14-6.15,20.29-6.94,31-6.23s21.44,2.74,32.25,3.14C87,22,99.65,20.87,112.3,20.41q18.74-.69,37.5.43a394.53,394.53,0,0,1,42.53,4.86c.09,0,.77-.16.57-.31-21.21-15.27-48.74-9.41-72.77-7.16-13.78,1.29-27.56.72-41.35,0-13.4-.69-26.87-1.41-40.27-.15-3.79.36-7.58.87-11.32,1.59A34.87,34.87,0,0,0,19.48,22c-4.17,1.87-8.31,5.11-8.2,10.1,0,.25.65,0,.72-.15l5.52-10.27c.13-.23-.59,0-.64,0A15.83,15.83,0,0,0,9.94,35.2c0,.25.65,0,.72-.15l3.78-7.49c.08-.18-.62-.11-.73.1Z"/><path d="M192.79,68.24c-21.44,9.46-44.84,13.25-68,15.43-22.85,2.15-46,2.5-68.79-.91a180.59,180.59,0,0,1-37.31-9.62l-.58.27,53.85,2.84c.15,0,.82-.26.47-.28L18.55,73.12c-.09,0-.69.22-.58.27C39.79,81.68,63.11,85.1,86.36,85.54a332.91,332.91,0,0,0,34.89-1.3A333.41,333.41,0,0,0,156,79.6a174.21,174.21,0,0,0,37.18-11.28c.43-.19-.25-.16-.42-.08Z"/><path d="M167.77,25.68a119,119,0,0,1,1.17-21.5c.05-.36-.68-.26-.73.06A119.87,119.87,0,0,0,167,25.74c0,.37.75.25.74-.06Z"/><path d="M171.41,25.57l8.5-24.41c.05-.15-.65-.07-.72.12L170.7,25.7c0,.14.64.06.71-.13Z"/><path d="M173.25,28.36c-.57.71-1.45-.51-1.51-1.05a4.39,4.39,0,0,1,.94-2.62q1.45-2.39,3.09-4.67A73.26,73.26,0,0,1,183,11.36c.15-.16-.53-.09-.66,0a74.56,74.56,0,0,0-8.79,10.86c-.64,1-1.27,1.94-1.86,2.94-.45.77-1,1.85-.6,2.76a1.71,1.71,0,0,0,2.78.36c.15-.19-.55-.1-.66,0Z"/><path d="M31,68.41a35.49,35.49,0,0,0-3.6,16.16c0,.15.73,0,.73-.2A35.35,35.35,0,0,1,31.73,68.3c.07-.14-.62-.08-.71.11Z"/><path d="M33.14,68.79V86c0,.19.72.07.72-.19V68.6c0-.19-.72-.07-.72.19Z"/><path class="cls-2" d="M59,35.79l.78,1.35-.16.4c.14,0,.25.28.32.86l-.07.09v.07l.24.55-.09.71.09.24H60l.16.4-.07.08v.07l.07.49-.24.7L60,42l-.15.4.31.79a3.63,3.63,0,0,0-.47,1.42l.4.64-.17.39.24,1h-.07l.15.49c0,.31-.11.47-.32.47l.08.08v.07L60,49.08l.24.47-.07.31c0,.16.21.32.62.48l.16.47c0,.76-.61,1.26-1.82,1.5h-.15V35.79Zm.07,27.82v.24h-.15v-.24Zm-.07.47c.34,0,.57.42.71,1.28v.22c.52,0,.78.16.78.49q.33,0,.33.15v.31c-.28.54-.49.84-.64.88H59.08l-.15-.17V64.08Zm16.9-31.4h2.18a1,1,0,0,0,.22-.14c.48,0,1,.35,1.58,1l.15.31v.4a2.28,2.28,0,0,1-1.35.86,3.75,3.75,0,0,1-.77,2.14l.07.09v.47l-.07.08.55,1,.07.8c-.31.16-.47.29-.47.4l-.4-.09-.39.15c-1-.24-1.61-.57-1.73-1l0,.54c-.31.16-.47.29-.47.4l-.39-.09-.4.15c-1.16-.27-1.75-.66-1.75-1.17l-.51-.33h-.33l-.8.4c0,.61-.39,1-1.19,1.26-.09,0-.25.18-.47.55l.09.33-.24.62a1.34,1.34,0,0,0,1,1.28l.08.07c0,.16.11.24.32.24l.15.31.24-.06a2.88,2.88,0,0,1,1.26.37l.25-.06c.57,0,.86.13.86.24l.4-.09H74a3.51,3.51,0,0,0,1.19.4l.31-.09.87.49a2.11,2.11,0,0,0,.88.55.75.75,0,0,0,.31.55,1.92,1.92,0,0,0,.71,1.35q0,.78.24.78l-.09.33.31,1.41-.15.56c.1,0,.26.23.48.71L78.87,53l.07.47-.07.08.38.56-.16.62.09.08.07-.08h.17v.17l-.09.07.09.09v.15l-.48.47.08.48-.39,1c.1,0,.18.24.24.71-.14,0-.25.24-.33.71l.09.24L78.23,60l.08.09v.22l-.24.32.07.08v.07c0,.22-.1.33-.22.33v.22a1,1,0,0,1-.25.64l.09.4c0,.27-.06.4-.17.4l.08.07V63a4.36,4.36,0,0,0-.39,1.35c-.16,0-.38.45-.64,1.35l-1.57.79h-.56l-.31-.08-.4.15-.88-.07h-.15l-.56.07-.06-.07h-.42l-1.09.23-.24-.07-.24.22v-.07l-.31.16-.31-.09-.89.18a1.15,1.15,0,0,0-.77-.18v-.07l-.09.07h-.24l-.23-.1-.1.1v-.07l-.31.16-.31-.09-.88.18a1.2,1.2,0,0,0-.78-.18v-.07l-.09.07h-.24c-.52-.17-.78-.43-.78-.77q-.12,0-.24-.33c0-.09.13-.25.4-.47L63.9,65l.33-1-.09-.23.25-.17-.09-.07v-.15l.24-.33-.08-.23v-.1c0-.2.06-.29.15-.29l-.07-.25L64.7,62,64.61,62v-.08l.17-.47-.08-.24h.08l-.08-.07V61a1.2,1.2,0,0,0,.31-.77,1.62,1.62,0,0,1-.62-.56c.34-.73.73-1.1,1.17-1.1l.4.07.48-.16c.48,0,.71.16.71.47a2.16,2.16,0,0,0,1.11.79l.46-.07h.09l.24.16h.31a2.45,2.45,0,0,0,1.51-1.11v-.79a3.76,3.76,0,0,0,.39-1.2l-.08-.06v-.09l.08-.07v-.09l-.08-.07v-.08l.15-.31-.15-.33.15-.47a5.06,5.06,0,0,1-.62-1.41c-.32-.49-.53-.73-.64-.73,0-.16-.52-.5-1.57-1a.75.75,0,0,1-.4-.64,1.08,1.08,0,0,1-1-.55l-.06.08h-.09l-.09-.08h-.07l-.08.08-.56-.48L66,50.5c0-.11-.13-.16-.39-.16,0-.18-.29-.37-.87-.55l-.08-.09q-.24,0-.24-.15l-.4.08H64l-.24-.15-.16.15-.09-.08h-.06l-.16.15h-.17a1.33,1.33,0,0,0-.71-.22l-.86-1.13v-.07a1.42,1.42,0,0,0,.31-.79,6.8,6.8,0,0,0-1.18-2.3l.16-.78L60.67,44l.16-.16a1.32,1.32,0,0,1-.25-.88l-.08-.07h-.07A2.66,2.66,0,0,1,61,41.65l-.08-.48a7.61,7.61,0,0,1,.39-1.73l-.07-.09v-.09a8.73,8.73,0,0,1,.87-1.65,1.57,1.57,0,0,1,.4-.87l-.09-.24a2.54,2.54,0,0,1,1.19-1.26l.24-.31-.08-.09v-.07q0-.24.48-.24c0-.43-.24-.64-.73-.64h-.15l-.16.16-.31-.16L62.8,34v.07A1.76,1.76,0,0,1,61,32.87a1.12,1.12,0,0,1,.64-1.11v-.15l-.08-.55.08-.09H63l.15.15-.08.09c.11,0,.17.11.17.31a.6.6,0,0,0,.55-.4l.4-.15H66a1.15,1.15,0,0,0,.64.31v.24l.07.31c-.08.22-.16.33-.23.33l.07.23q0,.72-.24.72L66.2,33v.24c.22,0,.46.21.71.62a2.39,2.39,0,0,0,1.26-.55l.09.08,1.41-.71c.17,0,.25-.05.25-.17H70l.08.09h.09c0-.23.55-.47,1.66-.71V32l.86-.16c0,.11.08.16.24.16l.07.09v.08l.09-.08h.07c.11,0,.25.23.39.7l.33.09.16,0,.31-.11.09.07v.09a2,2,0,0,0,.95-.33A1.2,1.2,0,0,1,75.91,32.68Zm-10.21,30-.36,1.85v.24l.22.07.09-.07h.07a4.66,4.66,0,0,0,1.43.23l.24-.07.23.22h.15l.49-.06.39.15.16-.24.31.09a4.39,4.39,0,0,0,1.9-.64l.56.08v-.08c0-.21.15-.31.46-.31l1.28-2.92a1.24,1.24,0,0,1,.38-1l-.07-.06v-.16l.16-.64-.09-.09v-.06a.86.86,0,0,1,.4-.49L74,58.72v-.08a8.76,8.76,0,0,0,.55-3.17h.07l-.07-.24.16-.71L74.65,54l.17-.95-.17-1h.09a3.07,3.07,0,0,0-.47-1.11l.07-.48L73.79,48l.08-.07a3.67,3.67,0,0,1-1.1-1.59,1.06,1.06,0,0,1-.73-.31c-.15,0-.36-.13-.62-.4l-.55-.08-.25.08-.06-.08h-.09l-.09.08a4.18,4.18,0,0,1-1.26-.39l-.07.08v.07L68,45l-.09.08h-.09L67.46,45l-.71.15c0-.11-.42-.27-1.26-.47a2.84,2.84,0,0,1-1.19-1.19l.09-.38v-.33l-.16-.55.16-.55-.09-.55.4-1.27-.09-.22.14-.09h0L64.7,39a2,2,0,0,1,1-2c0-.15.1-.22.31-.22l.64-.95v-.09l-.09-.09v-.07l-1.1.47V36c-.17,0-.32.24-.47.71-.22,0-.33.19-.33.55l-.47-.15c0,.07-.21.17-.64.31a3.41,3.41,0,0,0-.86,1.75l.16.15v.09l-.31.38.15.55-.09.4v.08h.09a5.13,5.13,0,0,1,.86-1.59h.09l-.09.09.09.09v.38l-.09.08.09.09v.07c-.41.9-.73,1.35-1,1.35H62.4l-.23-.16-.24.55A2.52,2.52,0,0,1,63,43.15v.07c-.22,0-.38.47-.49,1.42.11.65.24,1,.4,1H63q0-.24.15-.24c.18.15.28.52.31,1.11,0,.34.43.69,1.28,1l.16.22V48l-.33.47,3.49,1.42c0,.11.24.17.71.17,0,.08.18.21.55.38,0,.17.48.62,1.42,1.35q.27,0,1.35,1.59l.24.22h.07V54l.24.33v.31l.16,1.26-.07.09.07.07v.08l-.25.62.09.49v.07a2.6,2.6,0,0,0-.55.88l.15,1.42h-.07l.07.08v.16a1.19,1.19,0,0,1-.7.78,4.8,4.8,0,0,1-1.66.31l-.09-.07v-.09l-.4.09-.31-.09-.71.09h-.08l-.63-.24-.31.08-.64-.17c-.47.11-.73.3-.79.57l.08.47-.39.95.07.07v.08ZM62.24,46.07a1.47,1.47,0,0,0,.56,1v-.22H63v.07L63,47v.07l.09.09h.15v-.09a4,4,0,0,0-.7-1.1ZM64,34.84l-.09.24h.4V35l-.16-.16Zm.62,4.82.09-.07h0l-.14.09Zm2-1.4-.05.23v.07l.15.15c.14,0,.43-.23.87-.71l.64-.39h.55l.62-.16h.09l.09.09.06-.09h.49l.07.09.08-.09h.16a1.49,1.49,0,0,0,.86.4l.09-.09h.07l.48.17v-.24H72a1.11,1.11,0,0,0,.73.4l.31-.09v.09l.07-.09h.08l.16.16c.41,0,.68-.29.79-.87.11,0,.16-.18.16-.55l.16-.15-.07-.8v-.55l.22-.4c-.25-.23-.38-.41-.38-.55h-.64l-.19-.12,0,0-.16.16-.39-.16v.09l-.16.15-.09-.08-1.72.24v-.09a6.85,6.85,0,0,1-2,.71c0,.09-.21.2-.62.33a2.24,2.24,0,0,1-1,1.42A1.62,1.62,0,0,0,66.6,38l.07.09v.07Zm0-2.63v.07h.15c.08,0,.16-.1.24-.31H67Q66.67,35.51,66.67,35.63ZM69,38.71h-.14l-.79.4a1.1,1.1,0,0,1,0,.27Zm8.15-4.42a2.28,2.28,0,0,1-1.34.86A3.81,3.81,0,0,1,75,37.29l.07.09v.4a1.08,1.08,0,0,0,.66.31L76,38v.09l.06-.09h.09l.16.16c.41,0,.68-.29.79-.87.11,0,.16-.18.16-.55l.15-.15-.07-.8v-.55l.23-.4c-.26-.23-.38-.41-.38-.55Z"/><path class="cls-2" d="M86.73,66.31l0,0-.28.12-3,.16-.75,0-.07-.33L82.45,66,82.6,66c-.32-.12-.5-.26-.54-.41.4,0,.57-.13.54-.35-.38,0-.61-.21-.69-.67v-.07h.29v-.07L82,64.18l.28-.27-.47-.11.37-.55-.18,0L82,62.82c0-.19-.2-.29-.48-.31l.26-.18c-.4,0-.65,0-.76-.17l.26-.34c0-.1-.22-.14-.61-.13L81,61.4l-.15,0-.09-.66-.38,0,1.35-8.87-.82-6.29.61-1.78.4.26v.09H82V44h.19v.17h.11l.1-.41V43c.31-.1.47-.57.47-1.4L83,40.56l-.07-.5.17-.17L83,39.8l.29-.07-.09-.09v-.08l.19-1,0-.07.36-1.09h.23L84,37v-.41c.42,0,.7-.72.85-2.14.28-.45.59-.68.93-.68l.3-.24v-.09h.1l.85.09.36-.09,1.21.33.1-.08h.11l.26.17.48-.09v.09l.09-.09h.1l4.49,1.16c0,.11.29.23.85.34.93.48,1.4,1,1.4,1.58.32.1.64.54,1,1.31l.93.76.11.07a1.82,1.82,0,0,1-.57,1.09l.1.09v.06l-.1.09L98.34,42h-.1l.1.09v.08l-.1.49a.55.55,0,0,1,.38.58v.18l-.17.57a1,1,0,0,1,.55.41l-.28.33v.09l.56.67-.19.74v.16H99l-.28-.07a2,2,0,0,0-.65.81l.08.09v.41l-.08.33c0,.28.12.42.38.42,0,.17.24.34.74.5l.19.5-.85,1v.07c.26,0,.38.17.38.5l-.38.26.09.07v.09l-.09.65.38.26v.42a3.78,3.78,0,0,0-.46,1.48l.08.26-.08.24.17.18-.09.32.28.75c0,.47-.37.86-1.12,1.16v.08l.08.09v.07A11.82,11.82,0,0,0,96.84,60a23,23,0,0,0-2.06,4.13,5,5,0,0,1-1.6,1.74A7.81,7.81,0,0,1,90,67.24h-.85c-1.57-.22-2.35-.52-2.35-.91Zm2.42-31.14a.77.77,0,0,1-.66.41l-.08-.08c0,.19-.45.33-1.33.41q0,.14-.45.24a1.78,1.78,0,0,1-.47.83,1.14,1.14,0,0,1-.29.68l.57,1a1.29,1.29,0,0,1-.85,1.16l-.1.09V40l.1.09v.09a8.09,8.09,0,0,1-.85,2.14v.41l1,.92v.09a1.54,1.54,0,0,1-.39.91l.1,1.16h-.1l.1.09V46l-.57.67L85,47.77l-.19.74.1.91-.19.83.09.09v.07l-.09.35.09.07-.09.41v.26a5,5,0,0,0,.49,1.66v.9L85,55a2.92,2.92,0,0,1,.57,1.66v.66A1,1,0,0,1,86,58l-.1.24.65,1.42-.08.5.27.81-.08.5a6.5,6.5,0,0,0,1.21,2.65c0,.63.47,1.08,1.41,1.33h1.4A3.09,3.09,0,0,1,91.78,65a6.47,6.47,0,0,0,2.35-2.58c.19,0,.29-.16.29-.48a3.53,3.53,0,0,0,.83-1.82l.17-.26-.07-.08v-.07l.75-1.84L96,57.63c.11,0,.26-.5.47-1.5L96.37,56V56c.12-.39.25-.58.38-.58l-.08-.57v-.26l.27-.42-.1-.24.1-.09-.1-.08.1-.09H97l-.09-.33c0-.27.07-.41.19-.41l-.19-.42c.16,0,.29-.19.37-.57l-.11-.26c.16,0,.26-.24.3-.74l-.09-2.73h.09l-.09-.09v-.65a4,4,0,0,0-.57-2.08L97,45a8.26,8.26,0,0,0-.36-2l.08-1.16-.08-1.15.08-.09v-.07c0-.81-.62-2-1.86-3.65-.59,0-.94-.08-1-.25l-.1.08h-.11a6.44,6.44,0,0,0-2.14-.66,6.5,6.5,0,0,0-1.88-.83l-.09-.08-.28.08Zm2.35,2.57a5.43,5.43,0,0,0,1.4.75,1.72,1.72,0,0,1,.85.83l-.11.06v.09l.11.5-.28.75.28.25-.11.42.3,1.31a5.44,5.44,0,0,1-.85,2.08l.19.32-.1.42.2,1.42-.2.15.29,1.25-.29,1.33.2.58-.1.09v.07l.1.09v.08l-.2.75.1.24-.19.34c.14,0,.24.3.29.9l-.1.09.1.09h.09l-.19.58.19.16-.38,1.74.09.24a.72.72,0,0,1-.37.59l-.1.33v.17a3.19,3.19,0,0,1,.76,1.32v.08a2.72,2.72,0,0,1-.57,1c0,.13-.28.32-.83.57l-.1.08H91.4L90.29,60a2.6,2.6,0,0,1-1.42-1.49v-.34l.09-.07a3.39,3.39,0,0,0-1.12-1.51l-.47-.83v-.24c0-.27.07-.41.17-.41L87.47,55v-.08l.07-.42L87.37,54l.1-.35-.2-.48.1-.76c-.13,0-.19-.08-.19-.24l.09-.09V52l-.19-.57.29-1.16c-.09-.49-.19-.74-.29-.74l.1-.41V49l-.28-.33V48.6h.18v.15l.1-.07h.09l-.37-1.83L87,46l-.38-1.33.08-.24h-.19l.11-.33-.11-.92.19-.24v-.17a1.23,1.23,0,0,1-.27-.74c0-.83.31-1.25.93-1.25l.1-.08.37-.16.17-.41v-.09h-.17V40l.17-.33.29.16A3.46,3.46,0,0,1,91.5,37.74Zm-.24,5.79,0,.42c-.06,0-.1.16-.14.5l.06.5L91,46.76l0,.75a2.47,2.47,0,0,1-.17,1c.13,0,.24.61.32,1.83l.06.07v.09h-.06l.06.08v.18a3.66,3.66,0,0,0-.38,2.05l.17.68,0,.57,0,.58,0,.42.13,1.66.07-.09h.06l.05.09h0a2,2,0,0,0,.23-.83V55.8l-.18-.09.13-.57-.06-.08.14-.09-.08-.5c0-.83.12-1.24.2-1.24l-.07-.42a2.33,2.33,0,0,0,.18-.83l-.11-.81.11-.17V49.75a2.51,2.51,0,0,0-.18-1.15v-.26l.18-1L91.72,47l.06-.08h0l0-.59c0-.28,0-.42.08-.42a8.11,8.11,0,0,0-.26-2h.07c0-.34-.08-.5-.26-.5v-.16h-.07S91.26,43.37,91.26,43.53Z"/><path class="cls-2" d="M106.07,66.31v0l-.27.12-3,.16-.74,0-.07-.33-.19-.26.16-.07c-.33-.12-.5-.26-.54-.41.39,0,.57-.13.54-.35-.38,0-.61-.21-.69-.67v-.07h.29v-.07l-.19-.21.28-.27-.47-.11.36-.55-.17,0,0-.38c0-.19-.2-.29-.49-.31l.26-.18c-.39,0-.64,0-.76-.17l.26-.34c0-.1-.21-.14-.6-.13l.38-.29-.16,0-.08-.66-.38,0,1.34-8.87-.81-6.29.61-1.78.39.26v.09h.09V44h.19v.17h.1l.11-.41V43c.31-.1.46-.57.46-1.4l.07-1.07-.07-.5.18-.17-.11-.09.3-.07-.09-.09v-.08l.19-1,0-.07L103,37.4h.22l.09-.42v-.41c.41,0,.7-.72.85-2.14a1.14,1.14,0,0,1,.93-.68l.29-.24v-.09h.11l.84.09.37-.09,1.21.33.1-.08h.1l.26.17.49-.09v.09l.08-.09h.11l4.49,1.16c0,.11.28.23.85.34.93.48,1.4,1,1.4,1.58.32.1.64.54,1,1.31l.93.76.1.07a1.82,1.82,0,0,1-.57,1.09l.11.09v.06l-.11.09.47,1.66h-.1l.1.09v.08l-.1.49a.55.55,0,0,1,.38.58v.18l-.18.57a1,1,0,0,1,.56.41l-.28.33v.09l.55.67-.19.74v.16h-.08l-.28-.07a2.12,2.12,0,0,0-.66.81l.09.09v.41l-.09.33c0,.28.13.42.38.42,0,.17.25.34.75.5l.19.5-.85,1v.07c.25,0,.38.17.38.5l-.38.26.09.07v.09l-.09.65.38.26v.42a3.84,3.84,0,0,0-.47,1.48l.09.26-.09.24.18.18-.09.32.28.75c0,.47-.38.86-1.13,1.16v.08l.09.09v.07a11.82,11.82,0,0,0-.93,2.75,23,23,0,0,0-2.06,4.13,4.91,4.91,0,0,1-1.61,1.74,7.7,7.7,0,0,1-3.18,1.33h-.84c-1.57-.22-2.35-.52-2.35-.91Zm2.42-31.14a.79.79,0,0,1-.66.41l-.09-.08c0,.19-.44.33-1.33.41q0,.14-.45.24a1.73,1.73,0,0,1-.46.83,1.1,1.1,0,0,1-.3.68l.57,1a1.28,1.28,0,0,1-.84,1.16l-.11.09V40l.11.09v.09a8.5,8.5,0,0,1-.85,2.14v.41l1,.92v.09a1.5,1.5,0,0,1-.4.91l.11,1.16h-.11l.11.09V46l-.57.67.19,1.08-.19.74.1.91-.19.83.09.09v.07l-.09.35.09.07-.09.41v.26a5.15,5.15,0,0,0,.48,1.66v.9l-.2.91a2.92,2.92,0,0,1,.57,1.66v.66a1,1,0,0,1,.38.67l-.11.24.66,1.42-.09.5.28.81-.09.5a6.65,6.65,0,0,0,1.21,2.65c0,.63.48,1.08,1.42,1.33H110a3.1,3.1,0,0,1,1.12-.41c1.41-1.09,2.19-2,2.35-2.58q.3,0,.3-.48a3.53,3.53,0,0,0,.83-1.82l.17-.26-.07-.08v-.07l.74-1.84-.1-.24c.1,0,.26-.5.47-1.5l-.09-.09V56c.12-.39.24-.58.38-.58l-.09-.57v-.26l.28-.42-.1-.24.1-.09-.1-.08.1-.09h.09l-.09-.33c0-.27.06-.41.19-.41l-.19-.42q.24,0,.36-.57l-.1-.26c.16,0,.26-.24.29-.74l-.08-2.73h.08l-.08-.09v-.65a4,4,0,0,0-.57-2.08l.19-.32a7.77,7.77,0,0,0-.37-2l.09-1.16L116,40.72l.09-.09v-.07c0-.81-.62-2-1.87-3.65-.58,0-.93-.08-1-.25l-.11.08H113a6.44,6.44,0,0,0-2.14-.66,6.48,6.48,0,0,0-1.89-.83l-.08-.08-.28.08Zm2.35,2.57a5.2,5.2,0,0,0,1.4.75,1.66,1.66,0,0,1,.84.83l-.1.06v.09l.1.5-.27.75.27.25-.1.42.29,1.31a5.43,5.43,0,0,1-.84,2.08l.19.32-.11.42.21,1.42-.21.15.3,1.25-.3,1.33.21.58-.1.09v.07l.1.09v.08l-.21.75.11.24-.19.34c.13,0,.23.3.29.9l-.1.09.1.09h.09l-.19.58.19.16-.38,1.74.08.24a.73.73,0,0,1-.36.59l-.1.33v.17a3.32,3.32,0,0,1,.76,1.32v.08a2.72,2.72,0,0,1-.57,1c0,.13-.28.32-.83.57l-.11.08h-.57l-1.1.09a2.6,2.6,0,0,1-1.42-1.49v-.34l.09-.07a3.34,3.34,0,0,0-1.13-1.51l-.46-.83v-.24c0-.27.07-.41.17-.41l-.07-.09v-.08l.07-.42-.17-.48.1-.35-.21-.48.11-.76c-.13,0-.19-.08-.19-.24l.08-.09V52l-.19-.57.3-1.16c-.1-.49-.19-.74-.3-.74l.11-.41V49l-.28-.33V48.6h.17v.15l.11-.07h.08l-.36-1.83.1-.83L106,44.69l.09-.24h-.19l.1-.33-.1-.92.19-.24v-.17a1.24,1.24,0,0,1-.28-.74c0-.83.31-1.25.94-1.25l.1-.08.36-.16.18-.41v-.09h-.18V40l.18-.33.29.16A3.46,3.46,0,0,1,110.84,37.74Zm-.25,5.79,0,.42c-.06,0-.1.16-.14.5l.05.5-.26,1.81.06.75a2.6,2.6,0,0,1-.18,1q.21,0,.33,1.83l.05.07v.09h-.05l.05.08v.18a3.75,3.75,0,0,0-.38,2.05l.18.68-.06.57.06.58-.06.42.14,1.66.07-.09h.05l0,.09h0a2,2,0,0,0,.22-.83V55.8l-.17-.09.12-.57,0-.08.14-.09-.09-.5c.06-.83.13-1.24.21-1.24l-.07-.42a2.17,2.17,0,0,0,.17-.83l-.1-.81.1-.17V49.75a2.54,2.54,0,0,0-.17-1.15v-.26l.17-1,0-.33,0-.08h0l0-.59q0-.42.09-.42a8.11,8.11,0,0,0-.26-2H111c0-.34-.09-.5-.26-.5v-.16h-.07Q110.59,43.29,110.59,43.53Z"/><path class="cls-2" d="M118.87,37.88l.07.07V38l-.07.07h-.08l-.07-.07V38l.07-.07Zm23.07-3.37.14-.12-.05-.17,1.85.14,0,0,.14.07v.07l-.43.45.69,1.21-.11.81.11.09-.11.07H144l-.43-.16h-.3v.16l.14.36h-.14l.43.38-.29.15.16.54-.16.07.16.07h.13l-.13.22.13.68-.13.38.13.29h-.13l.29.36-.16.23a6.51,6.51,0,0,0,.85,2.24c-.06.35-.15.52-.29.52l.15.09v.07l-.15.4.29.51-.14.07.14.23a6.52,6.52,0,0,1-1,2.4l.29.45-.16.07V48l.16.07v.08c-.08.35-.18.52-.29.52l.13.36v1l-.29.16.45.36-.16.08.16.23-.16.07V51a3.44,3.44,0,0,1,1,2c.19,0,.29.17.29.51a2.88,2.88,0,0,0-.59,1.56l.3.16-.3.24v.22c0,.68-.14,1.1-.41,1.26v.44l.15.31-.15.07v.06l.15.32H144l.15.07v.06l-.45.3.16.09v.65l-.16.47.45,1L144,61l.15.21-.15.08.26.14-.11.68c.18,0,.26.07.26.22l.14.07h.16l-.16.09v.15a.83.83,0,0,1,.17.11l-2.95,1.67a.7.7,0,0,1-.38-.36,1.37,1.37,0,0,1-.36,0v.09a5.13,5.13,0,0,1-1.11,1h-.09l-.29-.07-.07.07h-.07l-.31-.16V65h.12l-1.33.43,0-.12h-.11l-.17-.31a1.81,1.81,0,0,1-.67.09,1.56,1.56,0,0,1-1.51,1l-.36-.16-.52.16c-.6-.43-.9-.85-.9-1.27h-.06l.22-.82-.16-.14.07-.09-.07-.07v-.07l.23-.45h-.07c-.15,0-.22-.09-.22-.29a1.25,1.25,0,0,1-.52-.9L133,61.9l.09-.22-.31-.3V60.8c-.11,0-.3-.28-.59-.83-.17,0-.3-.22-.36-.66-.11,0-.16-.15-.16-.45h-.16v-.09h.16v-.06a.55.55,0,0,0-.38-.52l-.52-1.2h.09l-.59-1.91-.24-.44h-.12l0-.24-.43-.28,0-.12-.05,0-.38-.22,0-.12.07-.06h-.11l-.08-.1,0-.12-.31-.1-.06-.24-.39-.21-.06-.24h-.12l-.05-.07-.1-.28,0,0h-.12l0-.07.07,0-.35-.18.05-.05h-.08l-.09-.21-.35-.35-1.19-1.88-.31.81c0,.3,0,.45-.16.45l.45,1.49-.29.38.14.22v.21l-.07.09v.06l.22.16-.06.07v.07l.06.22-.15.68.15.51-.06.23.43.81h-.07l.29,1.12-.14.82a9.23,9.23,0,0,1-.31,2.28l.09.07v.08l-.09.07v.07l.09.09v.07l-.09.36.09.31h-.09l.45,2.52c.27,0,.49.45.68,1.35a.82.82,0,0,1-.59.36q-.94.9-1.35.9v-.08c-.3.06-.45.18-.45.38-.34,0-.52-.09-.52-.16l-.67.31-.14-.15h-.6a1.22,1.22,0,0,1-.75-.3c-.2,0-.35-.35-.43-1,.12-.35.21-.52.29-.52l-.08-.07v-.29l.08-.3-.08-.31c.15,0,.22-.24.22-.74l-.14-.66.07-.31-.07-.29.07-.07v-.07l-.07-.67.07-.09c-.1,0-.2-.69-.29-2.06l.07-.06-.07-.07v-.52l.07-.09V58l-.14-.14v-.6l-.09-.3.09-.06v-.09l-.15-1.56h.06l-.13-1,.07-.31c-.15,0-.23-.33-.23-1l.07-.07-.14-.14V52.6h.14l-.07-.06v-.07l.07-.45-.23-.45.09-.07h.07l-.07-.09v-.07l.07-.07v-.08l-.16-.36.16-.23-.07-.07v-1l-.15-.29.06-.09v-.07l-.06-.29H121l-.06-.09.06-.58-.06-.3.06-.08V47.7l-.13-.52.13-.81-.06-.09.22-2.14-.07-.23.07-1.71h.07l-.07-.08V40.63l-.16-.45.09-.21-.09-.08v-.07l.23-.61-.07-.07v-.36l.07-.09-.36-2.14c0-.09.17-.24.52-.45l.06-.22-.29-.38v-.37c0-.3.13-.45.38-.45l-.15-.15h-.07l-.09.09c-.65-.35-1-.72-1-1.13a2.44,2.44,0,0,1,.68-1.1l.22.07.29-.45h2.25l.17-.12v.05H124l0,0v0a1,1,0,0,1,.55.57l.07.09h.09l.07-.09h.07l.22.09.38-.16.14.16.52-.67H128v.07l-1.12,1.64a1.18,1.18,0,0,1-.88.52l-.09.22-.07-.07h-.22a.83.83,0,0,1-.16.09l.07.05-.07.07.42.1,0,.24.38.35v.12h.1l.07,0,.07.22.45.47.15.35.25.15-.07.07.36.17.05.23a8.31,8.31,0,0,0,1.73,1.4c.17.29.23.46.17.52h.11l0,.05.17.36.43.28v.12l.2.12a9.36,9.36,0,0,1,1,2.25l.39.22v.12l0,0H132l0,.05c.17.3.23.48.17.54l.29.23.57.75,0,.23.41.12v.11l.19.12,0,.12,0,0A3.82,3.82,0,0,1,135.27,46c.08-.07.23,0,.43.29a4.47,4.47,0,0,0,.66,1.43h.22V48l.14.17a5.07,5.07,0,0,1,.38.55v-.22l.07-1.13-.07-.9.07-.65-.07-.09v-.07l.07-.07v-.08l-.3-1.63H137l-.09-.08v-.14l.09-.09v-.07l-.16-.14.16-.76-.09-.65.23-1.58-.07-.06v-.07l.14-.3-.07-.08.07-.52v-.81l.31-1.72-.09-.08v-.07l.09-.45-.09-.07V36.1l.09-.29-1.2-.23v-.31l-.08-.74L137,34l.14.16a.65.65,0,0,0,.38-.52h.13a1.89,1.89,0,0,0,1,.45l.07.07a2.27,2.27,0,0,1,1-.38v-.07l.38.07.52-.14.67.29.23-.07a.67.67,0,0,1,.51.3H142l-.07.22Zm-19,2.63c0,.28-.2.55-.59.81a.68.68,0,0,1-.22.45l.07.6h-.07l.15.44v.22l-.08.09.22.36-.22.61.08.51-.08-.08h-.07v.08l.22.3-.22,1,.15,1.49a3.08,3.08,0,0,0-.22,1.05c.13.7.22,1,.29,1l-.07.36v.38c0,1-.11,1.49-.22,1.49l.22.74-.08.59.08.61h-.08l.22.74-.29.22.07.07v.23l-.07.07v.08l.22.21-.07.09.3.52-.07.74.07.07v.08l-.16.37.23.22v.59l.29,1.57c-.21,0-.17.63.1,1.88a4.45,4.45,0,0,1,0,2.77,5.82,5.82,0,0,1,.29,1.42v.29l-.07.09a3.08,3.08,0,0,1,.36,1h-.06l.22.59.45-.21.66.07h.22l.07-.07h.09l-.09-.08v-.14l.09-.09v-.07c-.1,0-.17-.22-.23-.67l.07-.07H125v-.15l.07-.07-.07-.07v-.16l.07-.07-.15-.6.08-.37-.22-.44.07-.07-.07-.09v-.07l-.31-1.83.08-.07v-.09l-.15-.58.07-.07h.08l-.15-.23c0-.64.12-1,.22-1l-.07-.06V56.7l.07-.07v-.09l-.15-.13.08-.38-.15-.14.07-.09-.14-.45h-.07c0-.34.06-.52.14-.52l-.14-.65.14-.16V54l-.07-.31.07-.29v-.14l-.14-.22v-.16l.07-.29-.16-.38.09-.3c-.08-.19-.16-.29-.23-.29l.07-.74v-.68l.07-.07-.14-.67c0-.24,0-.37.14-.37a7.58,7.58,0,0,0-.45-2.16l.09-.29v-.15l-.31-1.13.31-1-.09-.07v-.07l.16-.38-.16-.16v-.36c0-.11.08-.16.23-.16l-.14-.22.07-.3-.16-.36h.09l-.09-.08v-.23l.09-.29-.16-.45v-.59l.07-.07-.07-.09v-.06l.16-.45h.07L124,41.3h-.15v.16a3.8,3.8,0,0,1,1.71-.67l.16.13h.06l.14-.13L123.62,38l-.29-.16.07-.07v-.08c-.09,0-.21-.2-.36-.59Zm1.45-2.56q-.48.14-.48.33l-.07-.07h-.07l-.16.14v.07l.07-.07h.09l.14.15v.07l-.23.23-.22-.07v.45l-.21.29q.21,0,.3.66a2.9,2.9,0,0,1,.67,1c.14,0,.21.12.21.38q.15,0,1,1l.09.23a.41.41,0,0,1,.43.45l-.07.07c.28,0,.75.59,1.42,1.78.12,0,.31.39.59,1,.21,0,.31.13.31.38.13,0,.25.13.36.38A4.91,4.91,0,0,1,130,45.47a4.37,4.37,0,0,0,1,1.64,17.6,17.6,0,0,1,2.45,2.9c.46.39.76.59.9.59l.74.67.07-.08.3.45-.07.38.29.45-.07.07v.06c.66,1.2,1.15,1.8,1.49,1.8l.07.07V54.4L137,54l.22-1-.08-.09.15-.88-.07-.23.07-.07-.45-.58,0-.13h-.12l-1.16-1.95-.33-.29.05-.07-.19-.1-.07-.25-.33-.27,0-.35-.85-.52a1.61,1.61,0,0,0-.34-.76l-.14.12-.18-.22,0-.12h-.1l0,0-.28-.52-.21,0v-.28l-.3-.12-.12-.27,0,.05V44.9l0,0-.36-.19c.08-.07.08-.17,0-.28l-.1,0-.28-.62h-.1l0-.05-.44-.87-.24-.17,0,0-.43-.71h-.12l-.23-.47-.48-.62-.38-.64h-.11l0-.24-.45-.29,0-.11-.05-.07-.4-.22,0-.12.07,0h-.1l-.09-.11,0-.12-.31-.12-.06-.22-.39-.23L127,38l-.12,0L126.8,38l-.1-.28,0-.06h-.11l0-.06,0,0-.33-.19.06-.05h-.11l-.07-.22-.36-.35Zm.62,12,.14-.09,0,0h.1l0,.05.07.52.55.35c-.09-.29-.2-.66-.31-1.09l-.14-.45-.52-2h-.15l-.07.23.07.07v.07l-.16.29.16.15V45l-.07.45.29.81-.07.07A2.19,2.19,0,0,1,125,46.59ZM131.3,54l.15.1v.11l.18.12a8.8,8.8,0,0,1,.94,2.21l.4.23,0,.12L133,57h.11l0,0c.16.3.22.47.17.52l.28.22.57.75-.05.22.41.12,0,.11.2.12,0,.1,0,.07a3.85,3.85,0,0,1,1.61,1.14c.09-.08.23,0,.43.28a4.39,4.39,0,0,0,.64,1.41h.22v.3l.14.17a2.17,2.17,0,0,1,.54,1l.15.26c.4,0,.59-.23.59-.68l-.07-.81c.09,0,.14-.22.14-.67l.23-.16-.07-.07v-.07l.15-.58-.08-.09v-.07l.08-.29v-.07h-.15v-.16a.19.19,0,0,0,.22-.22h.07c0-.69-.17-1-.52-1s-.38-.39-.38-.9a2.65,2.65,0,0,1-.59-1,1,1,0,0,0-.51-.29v.52l.15.14-.15.45V58l.06-.07h.09V58l-.15.38h.15l-.09.07v.52a1.07,1.07,0,0,1,.23.67c-.05.15-.2.23-.45.23a.45.45,0,0,1-.43-.3l.07-.08v-.07l-.07-.23.21-.07v-.22l-.07-2.16.07-.07v-.09c-.06-1-.31-1.55-.75-1.55a4.15,4.15,0,0,1-1.55-2.16l-1.26-1.49A7,7,0,0,1,132,49.48c-1.68-1.62-2.57-2.9-2.67-3.86A5,5,0,0,0,128,44.05a8,8,0,0,1-1.26-2c-.23,0-.45-.35-.67-1H126v.07l.22.52-.08.29.08.23c-.1,0-.2.22-.31.67l.09.07-.23.09.37,2-.07.07c.17,0,.37.52.6,1.57a5.39,5.39,0,0,0,.82,1.4v.45c.2,0,.55.48,1,1.35a6.93,6.93,0,0,1,1,1.71l.15.14q0,.15.75.6a4.88,4.88,0,0,0,.67,1.26.21.21,0,0,0,.23.23Zm-4.79-5.32-.09.07.09.12.28.22-.07.06.14,0c0-.09-.07-.2-.11-.31S126.59,48.83,126.51,48.7Zm10.21,14.83-.07-.12-.32-.32.06-.05-.18-.1-.07-.24-.33-.28,0-.35-.81-.5a1.63,1.63,0,0,0-.36-.74l-.12.1-.18-.22,0-.1h-.1l-.05-.06-.23-.41a1.25,1.25,0,0,1,0,.21l-.07.07v.06l.38.61v.43c.44.19.66.43.66.74l.08-.06h.14l.23.67h-.07c.12.49.39.74.81.74Zm1.33-27.07.07.45v.23A1.73,1.73,0,0,1,138,38l.14.9v.07a10.54,10.54,0,0,0-.43,3.42l.07.09-.16.13v.23l.38.6c-.12,0-.22.28-.29.82l.07.22-.16.88.16.75-.07.22.21.22v.23l-.14.22v.45l.07.75h-.07l.07.07v.15l-.14.23V49l.14.23-.23.59.23.52v.67l-.07.07.14.45-.14.15.07.07h.07l-.3,1.11.09.09v.06l-.15.3.22.52h-.07l.07.08V54l-.22.74a2.39,2.39,0,0,1,.58,1.13,4.1,4.1,0,0,1,1.06,1.62h.07q0-.45.15-.45l-.08-.07.08-.51V55.8l-.08-.29.08-.3v-.45l-.08-.29.15-.52-.07-.08.07-.37v-.29l-.15-.22V52.9l.15-.21V52.6l.14-1.48-.07-.07V51l.07-.09-.07-.45a3.23,3.23,0,0,1,.22-1.17l-.06-.09v-.07l.13-.29-.07-.09V48.6a1.44,1.44,0,0,0,.23-.75l-.07-.45.07-1-.07-.23.07-.29c0-.9-.05-1.35-.16-1.35l.09-.36V43L140,43l-.07-.09v-.43l-.09-.75h.09l-.22-.45v-.51l.06-.09-.06-.23.06-.29L139.7,40V40l.06-.31-.36-1.26.21-1.11-.07-.08.07-.37-.07-.51.16-.16h-.16l.16-.74-.3-.16c-.85,0-1.28.2-1.28.61Zm2.54,25.25a6.86,6.86,0,0,0,.35-.62h.14l-.14-.07.71-1-.12-.39c.05-.35.14-.52.26-.52l-.14-.07v-.9l.14-.07-.14-.07.43-2.31-.14-.47h.14l-.14-.22.14-.21-.14-.45.3-.31-.59-1a1.22,1.22,0,0,0,.29-.85h-.29V51.9l.14-.07-.14-.09v-.07l.14-.59-.26-.15.26-.23-.26-.29.12-.29h-.12l.12-.09V50l-.26-.4c.17,0,.26-.07.26-.2l-.12-.09.26-.66-.14-.08v-.07l.29-1-.15-.29v-.09l.15-.83-.15-.07.15-.52v-.83l.14-.74-.14-.07.3-.17-.3-.52.14-.07v-.07l-.29-.45.15-.08h.14l-.14-.07v-.14l.14-.09-.29-.29.15-.23-.29-.45.14-.22-.14-.07V41l.14-.29v-.09l-.14-.07v-.06h.14l-.26-.38h.12l-.12-.07.12-.23-.12-.52.41-3.07-.15-.07.29-1.06-.16-.13a3.26,3.26,0,0,1-.81.65,3.9,3.9,0,0,0-.45,1.19l.07.3c-.19,0-.29.1-.29.22.19,0,.29.32.29.82h-.07l.14.44a2.08,2.08,0,0,1-.29,1.13,2.22,2.22,0,0,0,.52,1.1v.3a2.28,2.28,0,0,0-.37,1.28l.07.2-.07.09v.07l.14.6-.07.66.16.45v.29l-.09.09.16.74-.16.75.09.29h-.09l.16.67-.07.07h-.09l.09.07v.09l-.09.21.16.15v.23l-.07.07.14.31L140.51,51l.07.29-.14,1,.07.07v.09l-.11.76c.07,0,.15,0,.23.08h.12l.07-.05,0,.11.11.13.14,0-.25,1.66,0,0-.05.14-.09.64a.18.18,0,0,1-.1,0l-.05.14.07.3-.07.07.07.22-.07.07.07.38v.29c.2,0,.31.18.31.52l-.09.23.09.07v.08a1.62,1.62,0,0,0-.38.81l.07.45-.07.59v.09l.15.2v.32l-.15.22v.29Z"/></g></svg>